<svg width="120" height="39" viewBox="0 0 120 39" fill="none" xmlns="http://www.w3.org/2000/svg">
<path d="M29.2755 30.2906C29.4113 29.9521 29.6075 29.629 29.8491 29.3289C30.0906 29.0289 30.4151 28.7903 30.8151 28.6057C31.2151 28.4287 31.6604 28.3364 32.1585 28.3364C32.6868 28.3364 33.1472 28.4287 33.5547 28.6134C33.9623 28.798 34.2868 29.0442 34.5283 29.3443C34.7698 29.6521 34.9509 29.9752 35.0717 30.3137C35.1925 30.6523 35.2679 30.9985 35.283 31.3524H29.0189C29.0491 30.9831 29.1321 30.6369 29.2755 30.2906ZM28.1811 36.5611C29.2755 37.6613 30.6642 38.2153 32.3396 38.2153C33.2377 38.2153 34.0755 38.0768 34.8453 37.7921C35.6226 37.5151 36.2792 37.1074 36.8302 36.5765L35.7434 34.9608C35.3585 35.3532 34.883 35.6532 34.3019 35.8764C33.7208 36.0918 33.1547 36.2072 32.5887 36.2072C31.5774 36.2072 30.7547 35.9071 30.1283 35.3147C29.5019 34.7223 29.1396 33.976 29.0415 33.0835H37.6075V32.4988C37.6075 30.6984 37.1094 29.2212 36.1132 28.0671C35.117 26.9131 33.7962 26.336 32.1585 26.336C31.0943 26.336 30.1283 26.5976 29.2604 27.1285C28.3925 27.6594 27.7283 28.3749 27.2528 29.2828C26.7774 30.1829 26.5434 31.1831 26.5434 32.2603C26.5434 34.0298 27.0868 35.4686 28.1811 36.5688M16.5887 37.9383V30.0444C16.9057 29.6136 17.3132 29.2597 17.8189 28.9596C18.3245 28.6672 18.8679 28.5211 19.4415 28.5211C20.1736 28.5211 20.7321 28.698 21.117 29.0442C21.5019 29.3905 21.6981 29.9829 21.6981 30.8138V37.946H24.1132V29.9367C24.1132 28.7596 23.8113 27.8671 23.2151 27.2593C22.6189 26.6515 21.7208 26.3437 20.5358 26.3437C19.7208 26.3437 18.966 26.5207 18.2717 26.8823C17.5774 27.2439 17.0189 27.6747 16.5962 28.1748V22.3198H14.1811V37.9537H16.5962L16.5887 37.9383ZM4.64906 24.7049V37.9229H7.3434V24.7049H11.9774V22.2891H0V24.7049H4.64906Z" fill="#4D9F22"/>
<path d="M112.709 37.7531C113.54 38.0609 114.423 38.207 115.374 38.207C116.823 38.207 117.962 37.8762 118.777 37.2145C119.592 36.5529 120 35.7065 120 34.6756C120 34.137 119.902 33.6677 119.713 33.2522C119.524 32.8367 119.268 32.5136 118.958 32.2674C118.641 32.0289 118.287 31.8135 117.879 31.6288C117.479 31.4442 117.064 31.298 116.649 31.198C116.234 31.0979 115.826 30.9902 115.426 30.8902C115.026 30.7902 114.664 30.6979 114.34 30.6209C114.023 30.544 113.766 30.4209 113.57 30.2516C113.374 30.0824 113.283 29.8823 113.283 29.6438C113.283 29.236 113.472 28.9052 113.841 28.6513C114.219 28.3897 114.717 28.2589 115.343 28.2589C116.015 28.2589 116.649 28.382 117.238 28.6359C117.826 28.8898 118.294 29.2206 118.634 29.6207L119.645 27.8896C118.46 26.8356 117.019 26.3047 115.321 26.3047C113.97 26.3047 112.898 26.6355 112.121 27.2972C111.343 27.9589 110.951 28.7667 110.951 29.7361C110.951 30.3286 111.072 30.8364 111.321 31.2595C111.57 31.6827 111.887 32.0135 112.279 32.2443C112.672 32.4751 113.109 32.6521 113.6 32.7829C114.091 32.9137 114.566 33.0445 115.034 33.1676C115.502 33.2907 115.932 33.4061 116.332 33.5138C116.724 33.6215 117.049 33.7754 117.291 33.9677C117.54 34.1678 117.66 34.414 117.66 34.714C117.66 35.168 117.472 35.545 117.094 35.822C116.717 36.1066 116.174 36.2451 115.472 36.2451C114.77 36.2451 114.091 36.0835 113.389 35.7681C112.687 35.4526 112.128 35.0757 111.713 34.6371L110.604 36.4298C111.17 36.9914 111.872 37.43 112.694 37.7377M106.008 37.907V30.1978C106.249 29.7977 106.657 29.4515 107.23 29.1514C107.804 28.8513 108.347 28.6975 108.86 28.6975C109.17 28.6975 109.419 28.7205 109.623 28.7667V26.3278C108.928 26.3278 108.264 26.5047 107.623 26.8663C106.989 27.2279 106.445 27.6896 106.008 28.2512V26.5894H103.592V37.907H106.008ZM92.8452 30.267C92.9811 29.9285 93.1773 29.6053 93.4188 29.3053C93.6603 29.0052 93.9849 28.7667 94.3849 28.5821C94.7849 28.4051 95.2301 28.3128 95.7282 28.3128C96.2566 28.3128 96.7169 28.4051 97.1245 28.5898C97.532 28.7744 97.8566 29.0206 98.0981 29.3207C98.3396 29.6284 98.5207 29.9516 98.6415 30.2901C98.7622 30.6286 98.8377 30.9748 98.8528 31.3288H92.5886C92.6188 30.9595 92.7018 30.6132 92.8452 30.267ZM91.7509 36.5375C92.8452 37.6377 94.2264 38.1916 95.9094 38.1916C96.8075 38.1916 97.6452 38.0532 98.415 37.7685C99.1924 37.4915 99.849 37.0837 100.4 36.5529L99.3132 34.9372C98.9282 35.3295 98.4528 35.6296 97.8716 35.8527C97.2905 36.0682 96.7245 36.1836 96.1584 36.1836C95.1471 36.1836 94.3245 35.8835 93.6981 35.2911C93.0716 34.6987 92.7094 33.9524 92.6113 33.0599H101.177V32.4751C101.177 30.6748 100.679 29.1976 99.683 28.0435C98.6867 26.8894 97.366 26.3124 95.7282 26.3124C94.6641 26.3124 93.6981 26.574 92.8301 27.1048C91.9622 27.6357 91.2981 28.3512 90.8226 29.2591C90.3471 30.1593 90.1132 31.1595 90.1132 32.2366C90.1132 34.0062 90.6566 35.445 91.7509 36.5452" fill="#4D9F22"/>
<path d="M53.9095 0.578125L47.4717 19.2433H54.4302C57.5699 19.2433 59.9699 19.9127 61.6227 21.2437C63.0868 22.3978 63.8189 23.8981 63.8189 25.7523C63.8189 27.7604 63.1246 29.63 61.7283 31.3534C60.2642 33.1461 58.4906 34.1771 56.4151 34.4463C56.7095 33.6847 56.8604 32.9153 56.8604 32.1536C56.8604 30.3917 56.1812 28.8837 54.8227 27.6373C53.4642 26.3832 51.8114 25.76 49.8793 25.76C47.9472 25.76 46.3548 26.3832 45.0038 27.6373C43.6529 28.8914 42.9736 30.3994 42.9736 32.1536C42.9736 33.8078 43.5774 35.2388 44.7774 36.4467C45.9774 37.6547 47.4868 38.3856 49.3057 38.6318C50.8906 38.878 52.468 39.0088 54.0378 39.0088C61.3585 39.0088 67.0642 36.8699 71.1472 32.5844C73.6378 29.9916 74.8755 27.2065 74.8604 24.2366C74.8227 21.4823 73.6831 19.151 71.434 17.2506C69.3434 15.4888 66.2642 14.6117 62.2038 14.6117H58.5133L60.8151 8.18732H74.2567L77.4265 0.578125H53.9095Z" fill="#4D9F22"/>
<path d="M97.9547 0.578125L75.0114 38.0932H81.1321L104.362 0.578125H97.9547Z" fill="#4D9F22"/>
<path d="M84.3547 11.8253C87.5547 11.8253 90.1584 9.17861 90.1584 5.90874C90.1584 2.63886 87.5622 -0.0078125 84.3547 -0.0078125C81.1471 -0.0078125 78.5509 2.63886 78.5509 5.90874C78.5509 9.17861 81.1471 11.8253 84.3547 11.8253Z" fill="#4D9F22"/>
</svg>
