<svg width="212" height="89" viewBox="0 0 212 89" fill="none" xmlns="http://www.w3.org/2000/svg">
<g filter="url(#filter0_d_1_13549)">
<path d="M95.4773 37.6598L89.389 55.6612H82.0594L75.9941 37.6445H82.0211L85.7415 50.036L89.4503 37.6522H95.4773V37.6598Z" fill="#4D9F22"/>
<path d="M107.523 49.5067C108.136 48.7854 108.443 47.8161 108.443 46.5949C108.443 45.3584 108.136 44.3776 107.523 43.6563C106.91 42.9351 106.044 42.5763 104.918 42.5725C103.776 42.5725 102.902 42.9312 102.285 43.6525C101.669 44.3738 101.366 45.3508 101.366 46.5911C101.366 47.8313 101.672 48.7816 102.285 49.5029C102.899 50.2242 103.776 50.5829 104.914 50.5867C106.037 50.5867 106.906 50.228 107.519 49.5067H107.523ZM100.228 54.6511C98.8065 53.8534 97.68 52.7505 96.8448 51.3423C96.0095 49.9341 95.5957 48.3504 95.5957 46.5872C95.5957 44.8241 96.0133 43.2404 96.8486 41.8321C97.6839 40.4239 98.8142 39.3287 100.236 38.5425C101.657 37.7564 103.22 37.3633 104.922 37.3633C106.623 37.3633 108.182 37.7602 109.596 38.5501C111.01 39.3401 112.125 40.4392 112.952 41.8474C113.776 43.2556 114.19 44.8394 114.186 46.6063C114.186 48.3694 113.772 49.9532 112.945 51.3614C112.117 52.7696 110.994 53.8687 109.573 54.6663C108.151 55.4639 106.596 55.8608 104.91 55.857C103.209 55.857 101.646 55.4563 100.224 54.6587L100.228 54.6511Z" fill="#4D9F22"/>
<path d="M125.653 49.6093C126.404 48.9147 126.776 47.9225 126.78 46.6326C126.784 45.3427 126.408 44.3505 125.657 43.6559C124.91 42.9613 123.895 42.6102 122.619 42.6102H121.266L121.262 50.6473H122.615C123.891 50.6473 124.906 50.3039 125.653 49.6093ZM128.098 38.8283C129.519 39.5916 130.611 40.6525 131.377 42.0111C132.144 43.3697 132.523 44.9115 132.523 46.6402C132.523 48.3537 132.136 49.8955 131.37 51.2694C130.604 52.6433 129.508 53.7233 128.086 54.5094C126.665 55.2956 125.01 55.6886 123.121 55.6886H115.588L115.599 37.6758H123.132C125.021 37.6834 126.676 38.065 128.098 38.8283Z" fill="#4D9F22"/>
<path d="M95.2716 36.9059L89.0301 55.3538L81.5203 55.35L75.3057 36.8906L81.482 36.8944L85.2944 49.5912L89.0952 36.9021L95.2716 36.9059Z" fill="#4FA124" stroke="#64B147" stroke-width="0.06" stroke-miterlimit="10"/>
<path d="M107.617 49.0464C108.245 48.3098 108.56 47.3138 108.56 46.062C108.56 44.795 108.245 43.7914 107.621 43.051C106.993 42.3106 106.104 41.9405 104.95 41.9405C103.782 41.9405 102.881 42.3068 102.253 43.0472C101.625 43.7837 101.31 44.7874 101.31 46.0582C101.31 47.31 101.625 48.306 102.249 49.0426C102.878 49.7829 103.774 50.1531 104.943 50.1531C106.096 50.1531 106.985 49.7867 107.613 49.0464H107.617ZM100.142 54.3205C98.6859 53.5038 97.5287 52.3742 96.6782 50.9278C95.8237 49.4852 95.3984 47.8595 95.3984 46.0544C95.3984 44.2455 95.8276 42.6236 96.682 41.181C97.5364 39.7385 98.6935 38.6165 100.153 37.8074C101.609 36.9984 103.211 36.5977 104.954 36.5977C106.698 36.5977 108.295 37.0022 109.744 37.8112C111.192 38.6203 112.337 39.7461 113.184 41.1887C114.031 42.6312 114.452 44.2569 114.449 46.0659C114.449 47.8748 114.023 49.4967 113.177 50.9393C112.33 52.3818 111.177 53.5114 109.721 54.3243C108.265 55.141 106.671 55.5455 104.943 55.5455C103.199 55.5455 101.598 55.1372 100.142 54.3167V54.3205Z" fill="#4FA124" stroke="#64B147" stroke-width="0.06" stroke-miterlimit="10"/>
<path d="M126.195 49.1491C126.962 48.4354 127.349 47.4203 127.349 46.0999C127.349 44.7794 126.965 43.7643 126.199 43.0506C125.433 42.337 124.394 41.9821 123.084 41.9783H121.697L121.693 50.2138H123.08C124.387 50.2138 125.425 49.8589 126.195 49.1491ZM128.701 38.0971C130.157 38.8795 131.28 39.9671 132.061 41.3562C132.847 42.7453 133.238 44.3291 133.238 46.0999C133.238 47.8554 132.843 49.4353 132.057 50.8435C131.272 52.2517 130.149 53.3584 128.693 54.1637C127.237 54.9727 125.54 55.3734 123.601 55.3734H115.881L115.892 36.9141H123.613C125.548 36.9217 127.245 37.311 128.701 38.0933V38.0971Z" fill="#4FA124" stroke="#64B147" stroke-width="0.06" stroke-miterlimit="10"/>
<path d="M95.0638 36.1443L88.6729 55.0425L80.9793 55.0387L74.6113 36.1328L80.9371 36.1366L84.8414 49.1425L88.738 36.1404L95.0638 36.1443Z" fill="#50A326" stroke="#64B147" stroke-width="0.13" stroke-miterlimit="10"/>
<path d="M107.708 48.5824C108.352 47.8267 108.674 46.8078 108.674 45.5255C108.674 44.228 108.352 43.1976 107.712 42.442C107.068 41.6863 106.156 41.3047 104.98 41.3047C103.785 41.3047 102.861 41.6825 102.217 42.4381C101.574 43.1938 101.252 44.2203 101.252 45.5217C101.252 46.823 101.574 47.8229 102.214 48.5785C102.857 49.3342 103.777 49.7158 104.972 49.7158C106.152 49.7158 107.064 49.338 107.708 48.5824ZM100.053 53.9824C98.5622 53.1466 97.3783 51.9865 96.5047 50.5096C95.6311 49.0327 95.1943 47.3688 95.1943 45.5179C95.1943 43.667 95.635 42.0031 96.5124 40.5262C97.3898 39.0493 98.5737 37.8968 100.068 37.0724C101.562 36.2443 103.202 35.8321 104.988 35.836C106.773 35.836 108.409 36.2519 109.892 37.0801C111.375 37.9082 112.547 39.0607 113.413 40.5414C114.279 42.0183 114.712 43.6822 114.708 45.537C114.708 47.3879 114.271 49.0518 113.405 50.5287C112.536 52.0056 111.356 53.1619 109.865 53.9977C108.371 54.8334 106.742 55.2494 104.972 55.2494C103.187 55.2494 101.547 54.8296 100.056 53.99L100.053 53.9824Z" fill="#50A326" stroke="#64B147" stroke-width="0.13" stroke-miterlimit="10"/>
<path d="M126.739 48.6889C127.524 47.96 127.919 46.9182 127.919 45.5672C127.919 44.2162 127.528 43.1744 126.743 42.4417C125.957 41.7128 124.892 41.3464 123.555 41.3464H122.134L122.13 49.7804H123.551C124.892 49.7804 125.954 49.4178 126.743 48.6889H126.739ZM129.306 37.3698C130.797 38.1713 131.946 39.2856 132.747 40.7091C133.551 42.1326 133.95 43.7545 133.95 45.5672C133.95 47.3647 133.544 48.9828 132.739 50.4253C131.935 51.8679 130.785 53.0013 129.291 53.8256C127.797 54.6538 126.061 55.0659 124.076 55.0621H116.168L116.179 36.1562H124.088C126.072 36.1639 127.808 36.5646 129.298 37.366L129.306 37.3698Z" fill="#50A326" stroke="#64B147" stroke-width="0.13" stroke-miterlimit="10"/>
<path d="M94.8532 35.3903L88.3129 54.735L80.4353 54.7312L73.918 35.375L80.3932 35.3788L84.3933 48.6938L88.378 35.3864L94.8532 35.3903Z" fill="#52A528" stroke="#64B147" stroke-width="0.19" stroke-miterlimit="10"/>
<path d="M107.796 48.122C108.455 47.3473 108.784 46.3055 108.784 44.9927C108.784 43.6608 108.455 42.6113 107.8 41.8366C107.141 41.0619 106.21 40.6726 105.003 40.6726C103.777 40.6726 102.834 41.0581 102.175 41.8328C101.516 42.6075 101.187 43.657 101.187 44.9888C101.187 46.3016 101.516 47.3435 102.171 48.1182C102.83 48.8929 103.773 49.2822 104.995 49.2822C106.202 49.2822 107.137 48.8967 107.796 48.122ZM99.9567 53.6518C98.4279 52.7931 97.2172 51.6101 96.3244 50.095C95.4279 48.5838 94.9834 46.8779 94.9834 44.985C94.9834 43.0921 95.4317 41.3863 96.3321 39.875C97.2287 38.3638 98.4432 37.1845 99.972 36.3373C101.501 35.4901 103.179 35.0703 105.007 35.0703C106.834 35.0703 108.509 35.4939 110.026 36.345C111.543 37.1922 112.746 38.3752 113.631 39.8865C114.516 41.4015 114.961 43.1036 114.957 45.0003C114.957 46.897 114.513 48.599 113.624 50.1103C112.735 51.6215 111.528 52.8046 109.999 53.6594C108.47 54.5143 106.8 54.9417 104.991 54.9417C103.164 54.9417 101.485 54.5105 99.9567 53.6556V53.6518Z" fill="#52A528" stroke="#64B147" stroke-width="0.19" stroke-miterlimit="10"/>
<path d="M127.279 48.2289C128.084 47.4809 128.486 46.4161 128.49 45.0308C128.494 43.6455 128.088 42.5808 127.287 41.8328C126.482 41.0848 125.394 40.7108 124.022 40.7108H122.566L122.563 49.347H124.019C125.39 49.347 126.478 48.9769 127.283 48.2289H127.279ZM129.908 36.6426C131.436 37.4631 132.609 38.6042 133.433 40.062C134.256 41.5198 134.666 43.1799 134.662 45.0385C134.662 46.8779 134.249 48.538 133.425 50.0111C132.601 51.488 131.425 52.6481 129.896 53.4915C128.367 54.3387 126.59 54.7624 124.559 54.7585H116.463L116.474 35.4023H124.57C126.601 35.41 128.379 35.8183 129.908 36.6388V36.6426Z" fill="#52A528" stroke="#64B147" stroke-width="0.19" stroke-miterlimit="10"/>
<path d="M94.6465 34.6286L87.9529 54.4237L79.8952 54.4199L73.2246 34.6172L79.8493 34.621L83.9413 48.2413L88.0218 34.6248L94.6465 34.6286Z" fill="#54A62A" stroke="#64B147" stroke-width="0.26" stroke-miterlimit="10"/>
<path d="M107.889 47.6579C108.563 46.8641 108.9 45.7993 108.9 44.456C108.9 43.0936 108.563 42.0174 107.893 41.2274C107.218 40.4336 106.264 40.0367 105.03 40.0367C103.797 40.0367 102.812 40.4298 102.138 41.2236C101.463 42.0174 101.126 43.0936 101.126 44.4522C101.126 45.7955 101.463 46.8603 102.134 47.6541C102.808 48.4478 103.77 48.8447 105.023 48.8447C106.257 48.8447 107.214 48.4517 107.889 47.6579ZM99.8695 53.3136C98.3062 52.4359 97.0687 51.2223 96.1529 49.6767C95.2372 48.1273 94.7812 46.387 94.7812 44.4484C94.7812 42.5097 95.241 40.7657 96.1606 39.2201C97.0801 37.6745 98.3177 36.4685 99.8848 35.6022C101.448 34.7359 103.165 34.3047 105.038 34.3047C106.908 34.3047 108.621 34.7397 110.176 35.6099C111.728 36.4762 112.958 37.6859 113.866 39.2315C114.774 40.7809 115.226 42.5212 115.222 44.4636C115.222 46.4023 114.766 48.1464 113.858 49.692C112.95 51.2375 111.713 52.4511 110.149 53.3251C108.586 54.199 106.877 54.6379 105.023 54.6379C103.153 54.6379 101.433 54.199 99.8733 53.3212L99.8695 53.3136Z" fill="#54A62A" stroke="#64B147" stroke-width="0.26" stroke-miterlimit="10"/>
<path d="M127.824 47.7689C128.648 47.0057 129.062 45.9142 129.062 44.4984C129.062 43.0825 128.652 41.9911 127.828 41.224C127.004 40.4607 125.893 40.0753 124.487 40.0753H123L122.996 48.91H124.483C125.885 48.91 127 48.5322 127.824 47.7651V47.7689ZM130.514 35.9155C132.077 36.7551 133.276 37.9229 134.119 39.4151C134.962 40.9072 135.38 42.6055 135.38 44.506C135.38 46.3874 134.955 48.0857 134.112 49.5931C133.269 51.1043 132.066 52.2912 130.502 53.1575C128.939 54.0238 127.119 54.455 125.042 54.455H116.759L116.77 34.6523H125.054C127.131 34.66 128.951 35.0798 130.514 35.9194V35.9155Z" fill="#54A62A" stroke="#64B147" stroke-width="0.26" stroke-miterlimit="10"/>
<path d="M94.4359 33.8746L87.5928 54.1162L79.3513 54.1124L72.5312 33.8594L79.3092 33.867L83.4893 47.7926L87.6618 33.8708L94.4359 33.8746Z" fill="#55A82C" stroke="#64B147" stroke-width="0.32" stroke-miterlimit="10"/>
<path d="M107.981 47.1936C108.67 46.3846 109.015 45.2931 109.015 43.9193C109.015 42.5263 108.67 41.4272 107.985 40.6144C107.295 39.8053 106.322 39.397 105.057 39.397C103.774 39.397 102.789 39.8015 102.099 40.6105C101.41 41.4196 101.065 42.5225 101.065 43.9116C101.065 45.3008 101.41 46.3769 102.096 47.186C102.785 47.9951 103.77 48.4034 105.053 48.4034C106.337 48.4034 107.295 47.9989 107.985 47.1898L107.981 47.1936ZM99.7813 52.9791C98.1836 52.0823 96.9154 50.842 95.9805 49.2582C95.0418 47.6745 94.5743 45.8923 94.5781 43.9116C94.5781 41.9272 95.0494 40.1488 95.9881 38.565C96.9269 36.9851 98.1951 35.7486 99.7928 34.8632C101.391 33.9778 103.149 33.5352 105.061 33.5352C106.977 33.5352 108.728 33.9817 110.314 34.867C111.9 35.7562 113.161 36.9889 114.088 38.5726C115.015 40.1564 115.479 41.9386 115.475 43.9193C115.475 45.9037 115.008 47.6859 114.08 49.2659C113.149 50.8496 111.885 52.0861 110.287 52.9791C108.69 53.8759 106.942 54.3225 105.046 54.3186C103.134 54.3186 101.375 53.8683 99.7775 52.9715L99.7813 52.9791Z" fill="#55A82C" stroke="#64B147" stroke-width="0.32" stroke-miterlimit="10"/>
<path d="M128.364 47.3088C129.207 46.5264 129.629 45.4121 129.629 43.9657C129.629 42.5155 129.211 41.4012 128.368 40.6188C127.525 39.8365 126.387 39.4434 124.954 39.4434H123.433L123.429 48.4804H124.95C126.387 48.4804 127.525 48.0911 128.368 47.3126L128.364 47.3088ZM131.115 35.1844C132.713 36.0431 133.943 37.2376 134.801 38.7603C135.659 40.2868 136.092 42.0232 136.088 43.9657C136.088 45.8929 135.656 47.6255 134.793 49.1711C133.931 50.7129 132.701 51.9303 131.104 52.8157C129.506 53.701 127.644 54.1437 125.517 54.1437H117.05L117.061 33.8945H125.529C127.652 33.9022 129.514 34.3334 131.111 35.1921L131.115 35.1844Z" fill="#55A82C" stroke="#64B147" stroke-width="0.32" stroke-miterlimit="10"/>
<path d="M94.2292 33.1207L87.2329 53.8088L78.8113 53.805L71.8418 33.1055L78.7653 33.1093L83.0412 47.3478L87.3057 33.1169L94.2292 33.1207Z" fill="#57AA2E" stroke="#64B147" stroke-width="0.39" stroke-miterlimit="10"/>
<path d="M108.073 46.7335C108.778 45.9054 109.13 44.791 109.13 43.3866C109.13 41.9632 108.778 40.8374 108.076 40.0092C107.371 39.1811 106.375 38.7651 105.084 38.7651C103.774 38.7651 102.766 39.1773 102.061 40.0054C101.356 40.8335 101.003 41.9593 101.003 43.379C101.003 44.7834 101.356 45.8978 102.057 46.7259C102.762 47.554 103.77 47.97 105.08 47.97C106.39 47.97 107.368 47.5578 108.073 46.7297V46.7335ZM99.6892 52.6449C98.057 51.729 96.762 50.462 95.8041 48.8439C94.8462 47.2258 94.3673 45.4055 94.3711 43.379C94.3749 41.3526 94.8539 39.5322 95.8118 37.9141C96.7696 36.296 98.0685 35.0366 99.7007 34.1321C101.333 33.2277 103.13 32.7736 105.088 32.7774C107.046 32.7774 108.835 33.2315 110.456 34.1398C112.08 35.0481 113.364 36.3112 114.31 37.9255C115.257 39.5436 115.732 41.364 115.728 43.3905C115.728 45.4169 115.253 47.2373 114.303 48.8554C113.352 50.4735 112.061 51.7367 110.425 52.6526C108.789 53.5685 107.004 54.0226 105.069 54.0226C103.111 54.0226 101.318 53.5647 99.6854 52.6449H99.6892Z" fill="#57AA2E" stroke="#64B147" stroke-width="0.39" stroke-miterlimit="10"/>
<path d="M128.904 46.8485C129.766 46.0509 130.195 44.9099 130.195 43.4291C130.195 41.9484 129.766 40.8074 128.908 40.0098C128.046 39.2121 126.885 38.8114 125.418 38.8076H123.862L123.854 48.043H125.41C126.877 48.043 128.042 47.6461 128.904 46.8485ZM131.713 34.4571C133.345 35.3348 134.602 36.5522 135.483 38.1131C136.36 39.6739 136.801 41.4447 136.801 43.433C136.801 45.4022 136.356 47.1729 135.475 48.7529C134.594 50.329 133.337 51.5731 131.701 52.4776C130.069 53.382 128.165 53.8362 125.992 53.8323H117.337L117.348 33.1328H126.004C128.176 33.1404 130.077 33.5793 131.709 34.4571H131.713Z" fill="#57AA2E" stroke="#64B147" stroke-width="0.39" stroke-miterlimit="10"/>
<path d="M94.0215 32.359L86.8719 53.4974L78.2664 53.4898L71.1475 32.3438L78.2204 32.3514L82.5883 46.8952L86.9447 32.3552L94.0215 32.359Z" fill="#59AC30" stroke="#64B147" stroke-width="0.45" stroke-miterlimit="10"/>
<path d="M108.16 46.2693C108.88 45.4221 109.24 44.2848 109.24 42.8499C109.24 41.3959 108.884 40.2472 108.163 39.4C107.443 38.5527 106.424 38.1291 105.106 38.1291C103.769 38.1291 102.738 38.5489 102.018 39.3961C101.297 40.2434 100.937 41.3921 100.937 42.8461C100.937 44.281 101.297 45.4182 102.014 46.2655C102.734 47.1127 103.761 47.5363 105.102 47.5363C106.42 47.5363 107.439 47.1165 108.16 46.2693ZM99.5962 52.3104C97.9295 51.3755 96.6038 50.0779 95.6267 48.4255C94.6497 46.773 94.1593 44.9107 94.1631 42.8422C94.1631 40.77 94.6535 38.9115 95.6344 37.259C96.6153 35.6066 97.941 34.3205 99.6077 33.3931C101.278 32.4696 103.11 32.0078 105.11 32.0078C107.11 32.0078 108.937 32.4734 110.596 33.4008C112.255 34.3281 113.566 35.618 114.535 37.2705C115.505 38.9229 115.987 40.7853 115.983 42.8537C115.983 44.9259 115.497 46.7845 114.527 48.4369C113.558 50.0894 112.236 51.3831 110.57 52.3181C108.899 53.2531 107.075 53.7187 105.098 53.7187C103.098 53.7187 101.267 53.2493 99.5962 52.3104Z" fill="#59AC30" stroke="#64B147" stroke-width="0.45" stroke-miterlimit="10"/>
<path d="M129.448 46.3885C130.329 45.5718 130.77 44.4078 130.77 42.8966C130.77 41.3853 130.333 40.2176 129.452 39.4009C128.575 38.5842 127.383 38.1758 125.885 38.1758H124.295L124.287 47.6097H125.877C127.375 47.6097 128.567 47.2052 129.444 46.3885H129.448ZM132.318 33.7299C133.985 34.6267 135.268 35.8708 136.169 37.466C137.065 39.0612 137.517 40.8701 137.513 42.9004C137.513 44.9116 137.061 46.7205 136.161 48.3348C135.261 49.9453 133.977 51.2161 132.306 52.1396C130.636 53.0632 128.693 53.5249 126.475 53.5249H117.632L117.647 32.3789H126.49C128.709 32.3865 130.651 32.8369 132.322 33.7337L132.318 33.7299Z" fill="#59AC30" stroke="#64B147" stroke-width="0.45" stroke-miterlimit="10"/>
<path d="M93.8118 31.6051L86.5128 53.19L77.7272 53.1824L70.4551 31.5898L77.6774 31.5937L82.1411 46.4466L86.5856 31.6013L93.8118 31.6051Z" fill="#5AAE32" stroke="#64B147" stroke-width="0.52" stroke-miterlimit="10"/>
<path d="M108.252 45.8091C108.988 44.9466 109.356 43.7827 109.356 42.3172C109.356 40.8327 108.992 39.6611 108.256 38.7948C107.521 37.9285 106.482 37.4973 105.133 37.4973C103.766 37.4973 102.716 37.9285 101.98 38.791C101.245 39.6535 100.877 40.8289 100.877 42.3134C100.877 43.775 101.241 44.9428 101.976 45.8053C102.712 46.6716 103.762 47.1028 105.13 47.1028C106.478 47.1028 107.517 46.6716 108.252 45.8091ZM99.5089 51.9801C97.8038 51.0222 96.4552 49.7017 95.4551 48.0149C94.4551 46.3281 93.957 44.4276 93.957 42.3134C93.957 40.1992 94.459 38.2987 95.459 36.6119C96.459 34.9251 97.8115 33.6085 99.5165 32.6658C101.222 31.7232 103.095 31.25 105.133 31.25C107.176 31.25 109.042 31.7232 110.735 32.6697C112.429 33.6161 113.77 34.9327 114.758 36.6195C115.747 38.3063 116.241 40.2068 116.241 42.321C116.241 44.4353 115.743 46.3358 114.754 48.0226C113.762 49.7094 112.413 51.0298 110.712 51.9839C109.007 52.9379 107.145 53.415 105.126 53.415C103.084 53.415 101.214 52.9341 99.5089 51.9801Z" fill="#5AAE32" stroke="#64B147" stroke-width="0.52" stroke-miterlimit="10"/>
<path d="M129.989 45.9283C130.89 45.0963 131.338 43.9056 131.338 42.36C131.338 40.8144 130.89 39.6276 129.993 38.7918C129.096 37.9598 127.882 37.5401 126.349 37.5401H124.729L124.721 47.1762H126.342C127.87 47.1762 129.085 46.764 129.985 45.9283H129.989ZM132.92 33.0025C134.625 33.9184 135.936 35.1892 136.851 36.815C137.767 38.4407 138.227 40.2916 138.227 42.3638C138.227 44.417 137.763 46.2679 136.844 47.9127C135.924 49.5575 134.614 50.8551 132.909 51.7977C131.204 52.7403 129.219 53.2135 126.955 53.2135H117.924L117.939 31.6172H126.97C129.234 31.6248 131.219 32.0828 132.924 32.9987L132.92 33.0025Z" fill="#5AAE32" stroke="#64B147" stroke-width="0.52" stroke-miterlimit="10"/>
<path d="M93.6051 30.8435L86.1528 52.8787L77.1833 52.8711L69.7617 30.832L77.1373 30.8358L81.6891 45.9941L86.2295 30.8397L93.6051 30.8435Z" fill="#5CB034" stroke="#64B147" stroke-width="0.58" stroke-miterlimit="10"/>
<path d="M108.345 45.345C109.096 44.4634 109.472 43.2766 109.472 41.7806C109.472 40.2655 109.1 39.0672 108.349 38.1857C107.598 37.3041 106.537 36.8614 105.161 36.8614C103.766 36.8614 102.694 37.3003 101.943 38.1818C101.192 39.0634 100.816 40.2617 100.816 41.7768C100.816 43.2689 101.188 44.4596 101.939 45.3412C102.69 46.2228 103.763 46.6654 105.157 46.6654C106.533 46.6654 107.594 46.2266 108.345 45.345ZM99.4178 51.6419C97.6783 50.6649 96.2989 49.3178 95.2797 47.5928C94.2606 45.8717 93.751 43.9292 93.751 41.773C93.751 39.6168 94.2644 37.6743 95.2874 35.9531C96.3104 34.232 97.6898 32.8887 99.4292 31.927C101.169 30.9614 103.081 30.4806 105.165 30.4844C107.249 30.4844 109.154 30.9691 110.882 31.9346C112.61 32.9001 113.977 34.2434 114.989 35.9684C115.997 37.6934 116.502 39.632 116.502 41.7882C116.502 43.9444 115.993 45.8869 114.985 47.6081C113.974 49.3292 112.598 50.6764 110.859 51.6533C109.119 52.6265 107.219 53.115 105.153 53.1112C103.069 53.1112 101.157 52.6227 99.4216 51.6457L99.4178 51.6419Z" fill="#5CB034" stroke="#64B147" stroke-width="0.58" stroke-miterlimit="10"/>
<path d="M130.533 45.4681C131.449 44.6171 131.909 43.4035 131.909 41.8274C131.909 40.2513 131.453 39.0377 130.537 38.1866C129.621 37.3356 128.38 36.9082 126.82 36.9082H125.165L125.158 46.7428H126.813C128.376 46.7428 129.614 46.3191 130.533 45.4719V45.4681ZM133.525 32.2714C135.265 33.2064 136.602 34.5039 137.537 36.164C138.472 37.8241 138.939 39.7132 138.939 41.8312C138.939 43.9263 138.468 45.8154 137.529 47.4946C136.591 49.1737 135.25 50.498 133.51 51.4597C131.771 52.4252 129.744 52.9061 127.433 52.9022L118.215 52.8946L118.23 30.8594L127.449 30.867C129.759 30.867 131.786 31.3364 133.525 32.2714Z" fill="#5CB034" stroke="#64B147" stroke-width="0.58" stroke-miterlimit="10"/>
<path d="M93.3935 30.0895L85.7918 52.5674L76.6422 52.5636L69.0674 30.0742L76.5924 30.078L81.2362 45.5493L85.8685 30.0857L93.3935 30.0895Z" fill="#5DB136" stroke="#64B147" stroke-width="0.65" stroke-miterlimit="10"/>
<path d="M108.435 44.8808C109.201 43.9801 109.585 42.7704 109.585 41.2438C109.585 39.6982 109.205 38.477 108.439 37.5764C107.673 36.6757 106.592 36.2254 105.186 36.2254C103.78 36.2254 102.669 36.6719 101.902 37.5726C101.136 38.4732 100.753 39.6944 100.753 41.24C100.753 42.7627 101.132 43.9763 101.899 44.8769C102.665 45.7776 103.757 46.2279 105.182 46.2279C106.584 46.2279 107.669 45.7814 108.435 44.8808ZM99.3276 51.3074C97.5536 50.3113 96.1475 48.9336 95.1053 47.1743C94.0632 45.415 93.5459 43.4382 93.5459 41.2362C93.5459 39.0342 94.0708 37.0536 95.113 35.2981C96.1551 33.5426 97.5651 32.1725 99.3391 31.1879C101.113 30.2033 103.063 29.7148 105.19 29.7148C107.316 29.7148 109.259 30.211 111.025 31.1956C112.788 32.1802 114.186 33.554 115.217 35.3095C116.247 37.0688 116.761 39.0457 116.761 41.2477C116.761 43.4496 116.244 45.4303 115.209 47.1858C114.178 48.9413 112.772 50.319 110.998 51.3112C109.224 52.3072 107.282 52.7995 105.178 52.7995C103.052 52.7995 101.102 52.2996 99.3276 51.3036V51.3074Z" fill="#5DB136" stroke="#64B147" stroke-width="0.65" stroke-miterlimit="10"/>
<path d="M131.072 45.008C132.007 44.1417 132.475 42.9014 132.478 41.2947C132.482 39.6881 132.011 38.4478 131.08 37.5777C130.145 36.7075 128.881 36.2725 127.287 36.2725H125.597L125.589 46.3055H127.279C128.873 46.3055 130.137 45.8743 131.072 45.008ZM134.126 31.5441C135.9 32.4982 137.264 33.8224 138.222 35.5169C139.176 37.2113 139.655 39.1385 139.655 41.2985C139.655 43.4357 139.172 45.3629 138.218 47.0764C137.26 48.7899 135.892 50.1409 134.118 51.1217C132.344 52.1063 130.275 52.5947 127.915 52.5947L118.509 52.5871L118.524 30.1016L127.93 30.1092C130.291 30.1092 132.356 30.59 134.13 31.5403L134.126 31.5441Z" fill="#5DB136" stroke="#64B147" stroke-width="0.65" stroke-miterlimit="10"/>
<path d="M93.1868 29.3356L85.4318 52.26L76.0983 52.2562L68.374 29.3203L76.0485 29.3241L80.788 45.1007L85.5123 29.3279L93.1868 29.3356Z" fill="#5FB338" stroke="#64B147" stroke-width="0.71" stroke-miterlimit="10"/>
<path d="M108.524 44.4205C109.306 43.5046 109.696 42.2681 109.696 40.7111C109.696 39.135 109.309 37.887 108.528 36.9711C107.746 36.0514 106.643 35.5935 105.21 35.5935C103.758 35.5935 102.643 36.0514 101.861 36.9673C101.079 37.8832 100.689 39.1312 100.689 40.7073C100.689 42.2605 101.076 43.497 101.857 44.4167C102.639 45.3364 103.754 45.7944 105.206 45.7944C106.658 45.7944 107.742 45.3364 108.524 44.4205ZM99.2365 50.9731C97.428 49.958 95.9912 48.5536 94.9299 46.7599C93.8686 44.9663 93.3398 42.9474 93.3398 40.7035C93.3398 38.4595 93.8724 36.4407 94.9376 34.647C96.0027 32.8572 97.4395 31.4566 99.248 30.4567C101.06 29.4531 103.049 28.9531 105.217 28.9531C107.386 28.9531 109.367 29.4569 111.168 30.4644C112.965 31.4681 114.39 32.8686 115.44 34.6623C116.49 36.4559 117.015 38.4748 117.015 40.7187C117.015 42.9627 116.486 44.9815 115.432 46.7752C114.379 48.5688 112.946 49.9694 111.137 50.9845C109.325 51.9997 107.348 52.5034 105.202 52.5034C103.056 52.5034 101.045 51.9959 99.2365 50.9769V50.9731Z" fill="#5FB338" stroke="#64B147" stroke-width="0.71" stroke-miterlimit="10"/>
<path d="M131.613 44.5518C132.567 43.6664 133.046 42.4033 133.046 40.7623C133.046 39.1213 132.571 37.8581 131.617 36.9727C130.663 36.0873 129.376 35.6446 127.747 35.6408H126.023L126.015 45.8761H127.74C129.364 45.8761 130.655 45.4372 131.609 44.5518H131.613ZM134.728 30.8208C136.537 31.794 137.931 33.145 138.905 34.8737C139.878 36.6025 140.364 38.5679 140.364 40.7699C140.364 42.9528 139.874 44.9144 138.897 46.6622C137.92 48.4101 136.525 49.7878 134.717 50.7876C132.904 51.7913 130.797 52.2913 128.391 52.2913L118.797 52.2836L118.812 29.3516L128.406 29.3592C130.812 29.3592 132.92 29.8477 134.728 30.8208Z" fill="#5FB338" stroke="#64B147" stroke-width="0.71" stroke-miterlimit="10"/>
<path d="M92.9762 28.5739L85.0718 51.9486L75.5582 51.9448L67.6807 28.5586L75.5046 28.5624L80.3361 44.648L85.1523 28.57L92.9762 28.5739Z" fill="#61B53A" stroke="#64B147" stroke-width="0.77" stroke-miterlimit="10"/>
<path d="M108.617 43.9564C109.414 43.0214 109.812 41.762 109.812 40.1745C109.812 38.5678 109.418 37.297 108.621 36.3582C107.824 35.4232 106.697 34.9538 105.241 34.9538C103.785 34.9538 102.621 35.4194 101.827 36.3544C101.03 37.2894 100.632 38.5602 100.632 40.1668C100.632 41.7506 101.027 43.0138 101.824 43.9488C102.621 44.8838 103.759 45.3532 105.237 45.3532C106.716 45.3532 107.824 44.8876 108.621 43.9526L108.617 43.9564ZM99.1454 50.6387C97.2986 49.6045 95.8388 48.1696 94.7545 46.3416C93.674 44.5136 93.1338 42.4566 93.1338 40.1668C93.1338 37.8771 93.6779 35.8201 94.7622 33.9921C95.8465 32.1641 97.3101 30.7406 99.1569 29.7178C101.004 28.6951 103.031 28.1837 105.241 28.1875C107.452 28.1875 109.475 28.7027 111.307 29.7255C113.142 30.7521 114.594 32.1755 115.663 34.0035C116.732 35.8315 117.268 37.8885 117.268 40.1783C117.268 42.4681 116.728 44.525 115.655 46.353C114.582 48.181 113.123 49.6083 111.276 50.6425C109.429 51.6768 107.414 52.1919 105.226 52.1919C103.015 52.1919 100.988 51.6729 99.1416 50.6349L99.1454 50.6387Z" fill="#61B53A" stroke="#64B147" stroke-width="0.77" stroke-miterlimit="10"/>
<path d="M132.157 44.0879C133.13 43.1872 133.617 41.8973 133.617 40.2258C133.617 38.5543 133.134 37.2643 132.161 36.3599C131.188 35.4554 129.874 35.0051 128.218 35.0051H126.46L126.452 45.4388H128.211C129.87 45.4388 131.184 44.9923 132.157 44.0879ZM135.333 30.0897C137.176 31.082 138.598 32.4596 139.59 34.219C140.583 35.9821 141.081 37.9856 141.077 40.2296C141.077 42.4545 140.575 44.4542 139.583 46.2402C138.586 48.0225 137.165 49.4268 135.318 50.4496C133.471 51.4724 131.322 51.9838 128.87 51.9799L119.088 51.9723L119.103 28.5938L128.885 28.6014C131.337 28.6014 133.487 29.1013 135.333 30.0897Z" fill="#61B53A" stroke="#64B147" stroke-width="0.77" stroke-miterlimit="10"/>
<path d="M92.7694 27.82L84.7118 51.6412L75.0143 51.6374L66.9873 27.8047L74.9645 27.8085L79.8841 44.1994L84.7961 27.8161L92.7694 27.82Z" fill="#62B73C" stroke="#64B147" stroke-width="0.84" stroke-miterlimit="10"/>
<path d="M108.708 43.4962C109.52 42.5421 109.926 41.2598 109.926 39.6417C109.926 38.0045 109.524 36.707 108.712 35.7529C107.899 34.7988 106.754 34.3218 105.267 34.3218C103.757 34.3218 102.597 34.7988 101.784 35.7491C100.972 36.7032 100.566 37.9969 100.566 39.6341C100.566 41.2484 100.968 42.5345 101.78 43.4885C102.593 44.4426 103.75 44.9196 105.259 44.9196C106.746 44.9196 107.895 44.4464 108.708 43.4923V43.4962ZM99.0562 50.3044C97.175 49.2473 95.6845 47.7895 94.5811 45.9271C93.4776 44.0648 92.9297 41.9658 92.9297 39.6341C92.9297 37.3023 93.4853 35.2034 94.5887 33.341C95.6922 31.4787 97.1865 30.0285 99.0677 28.9866C100.949 27.9448 103.018 27.4258 105.267 27.4258C107.516 27.4258 109.581 27.9486 111.451 28.9943C113.321 30.0399 114.8 31.4939 115.892 33.3563C116.984 35.2186 117.528 37.3176 117.528 39.6493C117.528 41.9811 116.98 44.08 115.884 45.9424C114.788 47.8047 113.302 49.2626 111.42 50.3159C109.539 51.3691 107.482 51.8958 105.252 51.892C103.022 51.8882 100.934 51.3615 99.0524 50.3082L99.0562 50.3044Z" fill="#62B73C" stroke="#64B147" stroke-width="0.84" stroke-miterlimit="10"/>
<path d="M132.697 43.6276C133.69 42.7079 134.184 41.3951 134.188 39.6892C134.192 37.9833 133.693 36.6705 132.705 35.7508C131.713 34.8311 130.375 34.3693 128.686 34.3693H126.896L126.889 45.0015H128.678C130.368 45.0015 131.709 44.5435 132.701 43.6238L132.697 43.6276ZM135.935 29.3585C137.816 30.3699 139.261 31.7743 140.276 33.5679C141.287 35.3654 141.793 37.4071 141.793 39.693C141.793 41.9599 141.284 44.0016 140.268 45.8182C139.253 47.6347 137.805 49.0658 135.923 50.1077C134.042 51.1495 131.85 51.6685 129.352 51.6685L119.383 51.6609L119.398 27.832L129.368 27.8397C131.87 27.8397 134.057 28.3472 135.939 29.3585H135.935Z" fill="#62B73C" stroke="#64B147" stroke-width="0.84" stroke-miterlimit="10"/>
<path d="M92.5627 27.0621L84.3518 51.3337L74.4742 51.3261L66.2979 27.0469L74.4206 27.0507L79.436 43.7546L84.4361 27.0583L92.5627 27.0621Z" fill="#64B93E" stroke="#64B147" stroke-width="0.9" stroke-miterlimit="10"/>
<path d="M108.801 43.0319C109.628 42.0626 110.042 40.7536 110.042 39.105C110.042 37.4373 109.632 36.1168 108.804 35.1437C107.981 34.1705 106.808 33.6858 105.295 33.6858C103.758 33.6858 102.574 34.1705 101.747 35.1399C100.919 36.113 100.505 37.4296 100.505 39.0973C100.505 40.7422 100.915 42.0511 101.743 43.0243C102.571 43.9974 103.751 44.4821 105.287 44.4821C106.801 44.4821 107.973 43.9974 108.801 43.0281V43.0319ZM98.9691 49.9699C97.0533 48.8937 95.5322 47.4092 94.4096 45.5087C93.287 43.612 92.7237 41.4749 92.7276 39.0973C92.7276 36.7198 93.2908 34.5827 94.4172 32.686C95.5437 30.7893 97.0648 29.3124 98.9806 28.2476C100.896 27.1867 103.004 26.6562 105.299 26.6562C107.594 26.6562 109.693 27.1905 111.598 28.2553C113.502 29.32 115.008 30.8007 116.123 32.6974C117.234 34.5941 117.789 36.7312 117.789 39.1088C117.789 41.4863 117.23 43.6234 116.115 45.5201C115 47.4168 113.483 48.9014 111.567 49.9737C109.651 51.0461 107.555 51.5842 105.283 51.5804C103.011 51.5766 100.885 51.0423 98.9691 49.9661V49.9699Z" fill="#64B93E" stroke="#64B147" stroke-width="0.9" stroke-miterlimit="10"/>
<path d="M133.241 43.1676C134.253 42.2326 134.758 40.8931 134.758 39.1567C134.758 37.4203 134.256 36.0807 133.245 35.1458C132.237 34.2069 130.869 33.7375 129.149 33.7375H127.325L127.318 44.572H129.141C130.862 44.572 132.23 44.1064 133.237 43.1714L133.241 43.1676ZM136.536 28.6314C138.452 29.6617 139.927 31.0929 140.958 32.9209C141.988 34.7489 142.506 36.8325 142.502 39.1605C142.502 41.4693 141.981 43.5492 140.95 45.4001C139.916 47.251 138.44 48.7088 136.525 49.7698C134.609 50.8307 132.375 51.3611 129.827 51.3611L119.674 51.3535L119.689 27.0781L129.843 27.0858C132.391 27.0858 134.62 27.6048 136.536 28.6314Z" fill="#64B93E" stroke="#64B147" stroke-width="0.9" stroke-miterlimit="10"/>
<path d="M92.3511 26.3043L83.9908 51.0224L73.9293 51.0148L65.6035 26.2891L73.8757 26.2929L78.9831 43.3021L84.079 26.3005L92.3511 26.3043Z" fill="#66BB40" stroke="#64B147" stroke-width="0.97" stroke-miterlimit="10"/>
<path d="M108.888 42.5679C109.731 41.5795 110.152 40.2476 110.152 38.5722C110.152 36.8969 109.734 35.5269 108.891 34.5384C108.052 33.55 106.861 33.0539 105.317 33.0501C103.773 33.0463 102.546 33.5424 101.704 34.5308C100.861 35.5192 100.439 36.8626 100.439 38.5646C100.439 40.24 100.857 41.5718 101.7 42.5641C102.543 43.5525 103.746 44.0486 105.309 44.0486C106.872 44.0486 108.045 43.5563 108.888 42.5679ZM98.8721 49.6318C96.9219 48.5366 95.3739 47.0215 94.2283 45.0905C93.0827 43.1594 92.5118 40.9803 92.5156 38.5608C92.5195 36.1413 93.0904 33.9622 94.236 32.0311C95.3816 30.1001 96.9334 28.5927 98.8836 27.5127C100.834 26.4326 102.979 25.8907 105.317 25.8946C107.654 25.8946 109.792 26.4365 111.731 27.5241C113.669 28.6079 115.206 30.1154 116.336 32.0502C117.466 33.9851 118.033 36.1604 118.033 38.5799C118.033 40.9994 117.462 43.1785 116.328 45.1095C115.194 47.0406 113.65 48.5518 111.696 49.6471C109.742 50.7424 107.612 51.2843 105.297 51.2843C102.96 51.2843 100.815 50.7347 98.8644 49.6395L98.8721 49.6318Z" fill="#66BB40" stroke="#64B147" stroke-width="0.97" stroke-miterlimit="10"/>
<path d="M133.781 42.7036C134.812 41.7495 135.325 40.3871 135.325 38.6202C135.325 36.8494 134.812 35.4908 133.785 34.533C132.758 33.5789 131.367 33.098 129.612 33.098H127.754L127.747 44.1309H129.605C131.356 44.1309 132.747 43.6577 133.777 42.7036H133.781ZM137.138 27.9003C139.088 28.9497 140.59 30.4037 141.64 32.2699C142.689 34.1322 143.214 36.2503 143.214 38.6278C143.214 40.9787 142.686 43.0967 141.632 44.9819C140.578 46.8672 139.076 48.3517 137.122 49.4317C135.168 50.5117 132.896 51.0536 130.302 51.0498L119.961 51.0422L119.976 26.3203L130.317 26.3279C132.911 26.3279 135.183 26.8546 137.134 27.9041L137.138 27.9003Z" fill="#66BB40" stroke="#64B147" stroke-width="0.97" stroke-miterlimit="10"/>
<path d="M92.1444 25.5503L83.6308 50.7149L73.3892 50.7073L64.9102 25.5312L73.3318 25.5389L78.5349 42.8534L83.7189 25.5427L92.1444 25.5503Z" fill="#67BC43" stroke="#64B147" stroke-width="1.03" stroke-miterlimit="10"/>
<path d="M108.979 42.1076C109.838 41.1001 110.267 39.7453 110.267 38.0394C110.267 36.3106 109.842 34.9406 108.983 33.9331C108.129 32.9256 106.914 32.4218 105.343 32.418C103.773 32.4142 102.523 32.9218 101.665 33.9255C100.807 34.933 100.378 36.2992 100.378 38.0318C100.378 39.7377 100.803 41.0963 101.661 42.1038C102.52 43.1113 103.742 43.615 105.336 43.6188C106.93 43.6226 108.121 43.1189 108.976 42.1114L108.979 42.1076ZM98.7839 49.3013C96.7992 48.1869 95.2206 46.6451 94.0558 44.6759C92.8911 42.7067 92.3087 40.4933 92.3125 38.028C92.3125 35.5626 92.8987 33.3492 94.0673 31.38C95.2359 29.4146 96.8107 27.8805 98.7992 26.7776C100.788 25.6747 102.972 25.1251 105.351 25.1289C107.73 25.1289 109.907 25.6823 111.884 26.7852C113.857 27.8881 115.42 29.4261 116.574 31.3914C117.727 33.3607 118.302 35.5779 118.302 38.0394C118.302 40.5047 117.723 42.7182 116.566 44.6874C115.409 46.6528 113.838 48.1945 111.849 49.3051C109.861 50.4194 107.688 50.9728 105.336 50.9728C102.983 50.9728 100.772 50.4118 98.7877 49.2975L98.7839 49.3013Z" fill="#67BC43" stroke="#64B147" stroke-width="1.03" stroke-miterlimit="10"/>
<path d="M134.321 42.2473C135.367 41.278 135.892 39.8888 135.896 38.0875C135.9 36.2863 135.375 34.9009 134.329 33.9278C133.283 32.9546 131.865 32.47 130.084 32.4662H128.191L128.183 43.7013H130.076C131.861 43.7013 133.275 43.2205 134.325 42.2473H134.321ZM137.739 27.1768C139.724 28.2453 141.252 29.7261 142.321 31.6228C143.39 33.5195 143.927 35.6757 143.923 38.0952C143.923 40.488 143.383 42.6442 142.314 44.5638C141.241 46.4834 139.712 47.9946 137.724 49.0937C135.735 50.1928 133.421 50.7423 130.781 50.7423L120.252 50.7347L120.267 25.5625L130.796 25.5701C133.436 25.5701 135.75 26.1082 137.739 27.173V27.1768Z" fill="#67BC43" stroke="#64B147" stroke-width="1.03" stroke-miterlimit="10"/>
<path d="M91.9348 24.7887L83.2756 50.4036L72.8463 50.396L64.2178 24.7734L72.7926 24.7773L78.0839 42.4009L83.3637 24.7849L91.9348 24.7887Z" fill="#69BE45" stroke="#64B147" stroke-width="1.1" stroke-miterlimit="10"/>
<path d="M109.073 41.6434C109.947 40.6168 110.384 39.2392 110.384 37.5027C110.384 35.7434 109.951 34.3505 109.077 33.3239C108.207 32.2973 106.97 31.786 105.372 31.7821C103.774 31.7783 102.502 32.2935 101.629 33.3163C100.755 34.3429 100.318 35.7358 100.318 37.4951C100.318 39.2315 100.751 40.613 101.625 41.6396C102.495 42.6662 103.744 43.1776 105.364 43.1814C106.962 43.1814 108.2 42.67 109.07 41.6472L109.073 41.6434ZM98.6977 48.963C96.6747 47.8296 95.0731 46.2611 93.8853 44.2576C92.7014 42.254 92.1075 39.9986 92.1113 37.4913C92.1113 34.984 92.7091 32.7286 93.8968 30.725C95.0846 28.7253 96.69 27.1644 98.713 26.0424C100.736 24.9205 102.958 24.3633 105.38 24.3633C107.801 24.3633 110.016 24.9281 112.027 26.0501C114.035 27.1721 115.629 28.7367 116.801 30.7403C117.974 32.7438 118.56 34.9993 118.56 37.5066C118.56 40.0139 117.97 42.2693 116.794 44.2728C115.618 46.2764 114.02 47.8411 111.997 48.9745C109.974 50.1079 107.763 50.6727 105.364 50.6727C102.966 50.6727 100.721 50.1041 98.6977 48.9669V48.963Z" fill="#69BE45" stroke="#64B147" stroke-width="1.1" stroke-miterlimit="10"/>
<path d="M134.867 41.7832C135.932 40.7948 136.469 39.3828 136.469 37.551C136.469 35.7192 135.936 34.3071 134.875 33.3149C133.81 32.3265 132.369 31.8304 130.553 31.8304H128.63L128.622 43.264H130.545C132.361 43.264 133.802 42.7717 134.871 41.7832H134.867ZM138.346 26.4418C140.369 27.5294 141.925 29.0369 143.013 30.9679C144.101 32.8989 144.645 35.0933 144.645 37.5548C144.645 39.9896 144.097 42.1878 143.005 44.1379C141.913 46.0918 140.358 47.626 138.335 48.748C136.312 49.87 133.955 50.4271 131.269 50.4271L120.553 50.4195L120.568 24.8008L131.285 24.8084C133.974 24.8084 136.327 25.3541 138.35 26.4418H138.346Z" fill="#69BE45" stroke="#64B147" stroke-width="1.1" stroke-miterlimit="10"/>
<path d="M91.727 24.0347L82.9146 50.0961L72.3052 50.0885L63.5234 24.0156L72.2477 24.0233L77.631 41.956L83.0027 24.0271L91.727 24.0347Z" fill="#6BC047" stroke="#64B147" stroke-width="1.16" stroke-miterlimit="10"/>
<path d="M109.164 41.1833C110.053 40.1414 110.497 38.7371 110.497 36.9701C110.497 35.1803 110.057 33.7606 109.168 32.7188C108.283 31.6769 107.026 31.1541 105.398 31.1503C103.769 31.1465 102.478 31.6693 101.589 32.7111C100.7 33.753 100.256 35.1726 100.256 36.9625C100.256 38.7294 100.697 40.1338 101.585 41.1795C102.47 42.2251 103.743 42.7442 105.39 42.748C107.038 42.7518 108.275 42.229 109.16 41.1871L109.164 41.1833ZM98.6045 48.6327C96.547 47.4763 94.9148 45.8811 93.7079 43.8432C92.501 41.8053 91.8994 39.5118 91.8994 36.9587C91.8994 34.4056 92.5048 32.112 93.7155 30.0741C94.9225 28.0362 96.5585 26.4486 98.616 25.3114C100.674 24.1703 102.934 23.6017 105.402 23.6055C107.869 23.6093 110.118 24.1779 112.164 25.3228C114.21 26.4639 115.827 28.0553 117.022 30.0932C118.218 32.1311 118.812 34.4285 118.812 36.9777C118.812 39.5308 118.21 41.8244 117.015 43.8623C115.819 45.9002 114.191 47.4954 112.134 48.6441C110.076 49.7966 107.827 50.3729 105.386 50.3691C102.946 50.3653 100.662 49.789 98.6045 48.6327Z" fill="#6BC047" stroke="#64B147" stroke-width="1.16" stroke-miterlimit="10"/>
<path d="M135.405 41.3271C136.49 40.3234 137.034 38.8847 137.034 37.0223C137.034 35.1562 136.493 33.7212 135.409 32.7137C134.325 31.7062 132.861 31.2025 131.011 31.2025H129.053L129.045 42.8345H131.003C132.85 42.8345 134.317 42.3346 135.401 41.3271H135.405ZM138.946 25.7185C141.003 26.8252 142.585 28.3594 143.693 30.3248C144.8 32.2901 145.352 34.5227 145.352 37.0261C145.352 39.5067 144.792 41.7393 143.685 43.7275C142.574 45.7158 140.992 47.2767 138.934 48.4178C136.877 49.5588 134.478 50.1275 131.742 50.1236L120.838 50.116L120.853 24.0508L131.758 24.0584C134.493 24.0584 136.888 24.6156 138.946 25.7185Z" fill="#6BC047" stroke="#64B147" stroke-width="1.16" stroke-miterlimit="10"/>
<path d="M91.5203 23.2731L82.5546 49.7848L71.7613 49.7772L62.8301 23.2578L71.7038 23.2616L77.1828 41.5035L82.6465 23.2693L91.5203 23.2731Z" fill="#6CC249" stroke="#64B147" stroke-width="1.23" stroke-miterlimit="10"/>
<path d="M109.252 40.719C110.156 39.658 110.609 38.2308 110.609 36.4333C110.609 34.6129 110.16 33.1704 109.256 32.1056C108.356 31.0447 107.076 30.5142 105.421 30.5104C103.765 30.5066 102.451 31.0409 101.547 32.098C100.643 33.1589 100.191 34.6015 100.191 36.4218C100.191 38.2193 100.639 39.6504 101.543 40.7113C102.444 41.7723 103.735 42.3027 105.417 42.3065C107.072 42.3065 108.348 41.7799 109.252 40.719ZM98.5125 48.2943C96.4205 47.1189 94.7615 45.497 93.5354 43.4209C92.3093 41.3487 91.6963 39.0131 91.6963 36.418C91.6963 33.8229 92.3132 31.4874 93.5431 29.4151C94.773 27.3429 96.4358 25.7286 98.5278 24.5685C100.62 23.4083 102.923 22.8282 105.428 22.832C107.934 22.8359 110.229 23.4159 112.31 24.5761C114.39 25.7401 116.034 27.3543 117.252 29.4304C118.467 31.5026 119.072 33.8382 119.072 36.4333C119.072 39.0284 118.463 41.3639 117.245 43.4362C116.026 45.5084 114.371 47.1303 112.279 48.3019C110.187 49.4735 107.896 50.0574 105.417 50.0574C102.938 50.0574 100.612 49.4697 98.5202 48.2943H98.5125Z" fill="#6CC249" stroke="#64B147" stroke-width="1.23" stroke-miterlimit="10"/>
<path d="M135.95 40.8669C137.053 39.8441 137.605 38.3825 137.605 36.4858C137.605 34.5891 137.057 33.1274 135.954 32.1047C134.85 31.0819 133.36 30.5667 131.479 30.5667H129.486L129.479 42.401H131.471C133.352 42.401 134.843 41.8934 135.946 40.8707L135.95 40.8669ZM139.552 24.9911C141.644 26.1169 143.253 27.6778 144.379 29.6737C145.506 31.6734 146.069 33.9441 146.065 36.4896C146.065 39.0122 145.498 41.2828 144.368 43.3055C143.238 45.3281 141.628 46.9157 139.532 48.0758C137.44 49.236 135 49.8161 132.218 49.8122L121.126 49.8046L121.141 23.2891L132.233 23.2967C135.015 23.2967 137.452 23.8615 139.544 24.9873L139.552 24.9911Z" fill="#6CC249" stroke="#64B147" stroke-width="1.23" stroke-miterlimit="10"/>
<path d="M91.3087 22.5152L82.1936 49.4696L71.2202 49.4658L62.1357 22.4961L71.1589 22.5037L76.7299 41.0509L82.2855 22.5114L91.3087 22.5152Z" fill="#6EC44B" stroke="#64B147" stroke-width="1.29" stroke-miterlimit="10"/>
<path d="M109.343 40.2549C110.263 39.1749 110.722 37.7247 110.722 35.8967C110.722 34.042 110.266 32.5765 109.347 31.4965C108.431 30.4165 107.132 29.8746 105.446 29.8746C103.761 29.8746 102.427 30.4127 101.508 31.4927C100.588 32.5727 100.128 34.0382 100.128 35.8891C100.128 37.7171 100.584 39.1711 101.5 40.2511C102.416 41.3311 103.73 41.8692 105.439 41.873C107.121 41.873 108.42 41.3349 109.339 40.2587L109.343 40.2549ZM98.4234 47.96C96.2969 46.7655 94.6072 45.113 93.362 43.0064C92.1129 40.8999 91.4922 38.5261 91.4922 35.8853C91.4922 33.2444 92.1206 30.8707 93.3696 28.7641C94.6187 26.6575 96.3084 25.0165 98.4387 23.8373C100.569 22.658 102.906 22.0703 105.454 22.0703C108.002 22.0703 110.335 22.6618 112.45 23.8449C114.565 25.0279 116.24 26.6727 117.474 28.7793C118.707 30.8859 119.324 33.2635 119.324 35.9005C119.324 38.5414 118.703 40.9151 117.466 43.0217C116.228 45.1283 114.546 46.7769 112.416 47.9676C110.286 49.1621 107.96 49.7536 105.439 49.7536C102.891 49.7536 100.55 49.1545 98.4234 47.96Z" fill="#6EC44B" stroke="#64B147" stroke-width="1.29" stroke-miterlimit="10"/>
<path d="M136.489 40.4029C137.612 39.3649 138.171 37.8765 138.175 35.9493C138.175 34.0221 137.616 32.5337 136.497 31.4919C135.374 30.45 133.861 29.9272 131.949 29.9272H129.922L129.914 41.96H131.941C133.853 41.96 135.37 41.4448 136.493 40.4029H136.489ZM140.152 24.26C142.279 25.4049 143.919 26.9925 145.064 29.0227C146.21 31.0568 146.781 33.3657 146.781 35.9531C146.781 38.5177 146.202 40.8265 145.056 42.8835C143.907 44.9405 142.271 46.5548 140.141 47.734C138.01 48.9132 135.531 49.5009 132.704 49.5009L121.424 49.4933L121.439 22.5312L132.719 22.5389C135.547 22.5389 138.026 23.1151 140.152 24.2562V24.26Z" fill="#6EC44B" stroke="#64B147" stroke-width="1.29" stroke-miterlimit="10"/>
<path d="M91.103 21.7613L81.8346 49.1622L70.6773 49.1546L61.4473 21.7422L70.6199 21.746L76.2828 40.6023L81.9304 21.7536L91.103 21.7613Z" fill="#70C64D" stroke="#64B147" stroke-width="1.35" stroke-miterlimit="10"/>
<path d="M109.436 39.7945C110.371 38.6992 110.838 37.2223 110.838 35.3638C110.838 33.5053 110.375 31.9902 109.44 30.8911C108.509 29.792 107.187 29.2425 105.478 29.2425C103.769 29.2425 102.409 29.7882 101.474 30.8873C100.539 31.9826 100.072 33.4747 100.072 35.3562C100.072 37.2147 100.535 38.6916 101.466 39.7907C102.397 40.8898 103.735 41.4355 105.47 41.4393C107.206 41.4431 108.501 40.8936 109.436 39.7983V39.7945ZM98.3322 47.6255C96.1675 46.4119 94.4548 44.7328 93.1865 42.588C91.9183 40.4471 91.2861 38.0314 91.2861 35.3485C91.2861 32.6657 91.926 30.25 93.1942 28.109C94.4663 25.9681 96.1828 24.2966 98.3476 23.0983C100.512 21.8999 102.888 21.3008 105.482 21.3008C108.076 21.3008 110.444 21.9038 112.593 23.1059C114.743 24.308 116.444 25.9795 117.7 28.1205C118.957 30.2652 119.582 32.6771 119.582 35.36C119.582 38.0428 118.949 40.4585 117.693 42.5995C116.432 44.7404 114.723 46.4196 112.559 47.6293C110.394 48.8429 108.03 49.4459 105.463 49.4459C102.896 49.4459 100.493 48.8353 98.3322 47.6217V47.6255Z" fill="#70C64D" stroke="#64B147" stroke-width="1.35" stroke-miterlimit="10"/>
<path d="M137.031 39.9468C138.173 38.8897 138.744 37.3784 138.744 35.4168C138.744 33.4553 138.177 31.944 137.035 30.8869C135.897 29.8298 134.353 29.2993 132.41 29.2955H130.349L130.341 41.5267H132.403C134.345 41.5267 135.889 41.0001 137.027 39.9429L137.031 39.9468ZM140.751 23.5329C142.912 24.6969 144.579 26.3112 145.744 28.3758C146.909 30.4404 147.491 32.7912 147.487 35.4245C147.487 38.031 146.901 40.378 145.732 42.4693C144.564 44.5606 142.897 46.2017 140.736 47.4038C138.571 48.6021 136.05 49.2013 133.177 49.1974L121.709 49.1898L121.728 21.7812L133.196 21.7889C136.073 21.7889 138.591 22.3728 140.755 23.5367L140.751 23.5329Z" fill="#70C64D" stroke="#64B147" stroke-width="1.35" stroke-miterlimit="10"/>
<path d="M90.8914 20.9996L81.4736 48.8508L70.1362 48.8432L60.7529 20.9805L70.0749 20.9881L75.8298 40.1535L81.5694 20.9957L90.8914 20.9996Z" fill="#71C74F" stroke="#64B147" stroke-width="1.42" stroke-miterlimit="10"/>
<path d="M109.528 39.3306C110.478 38.2162 110.953 36.7164 110.953 34.8273C110.953 32.9116 110.482 31.3965 109.535 30.2821C108.589 29.1678 107.244 28.6068 105.509 28.6068C103.742 28.6068 102.386 29.164 101.44 30.2783C100.489 31.3927 100.014 32.9077 100.014 34.8235C100.014 36.7126 100.485 38.2124 101.432 39.3306C102.378 40.4449 103.735 41.0059 105.501 41.0059C107.24 41.0059 108.581 40.4525 109.532 39.3382L109.528 39.3306ZM98.2441 47.2913C96.0448 46.0587 94.3015 44.3528 93.0141 42.1737C91.7267 39.9946 91.083 37.5445 91.083 34.8159C91.083 32.0872 91.7305 29.6372 93.0217 27.4581C94.313 25.2828 96.0601 23.5846 98.2594 22.3672C100.459 21.1498 102.876 20.5392 105.509 20.543C108.141 20.5468 110.551 21.1574 112.735 22.3786C114.919 23.5998 116.651 25.2981 117.926 27.4772C119.202 29.6563 119.838 32.1101 119.838 34.835C119.838 37.5636 119.195 40.0137 117.919 42.1928C116.639 44.3681 114.9 46.0739 112.7 47.3028C110.501 48.5354 108.099 49.1499 105.489 49.146C102.88 49.1422 100.44 48.5278 98.2402 47.2913H98.2441Z" fill="#71C74F" stroke="#64B147" stroke-width="1.42" stroke-miterlimit="10"/>
<path d="M137.574 39.4827C138.735 38.4065 139.314 36.8724 139.314 34.8803C139.314 32.8882 138.735 31.3502 137.578 30.274C136.421 29.1978 134.854 28.6597 132.877 28.6559H130.785L130.777 41.0894H132.869C134.842 41.0894 136.409 40.5551 137.57 39.4789L137.574 39.4827ZM141.356 22.8017C143.555 23.9848 145.245 25.6258 146.429 27.7247C147.613 29.8237 148.203 32.2127 148.203 34.8879C148.203 37.5364 147.605 39.9254 146.421 42.0473C145.233 44.1729 143.54 45.8406 141.34 47.0619C139.141 48.2793 136.578 48.8899 133.654 48.886L121.999 48.8784L122.018 21.0195L133.674 21.0272C136.597 21.0272 139.156 21.6225 141.356 22.8017Z" fill="#71C74F" stroke="#64B147" stroke-width="1.42" stroke-miterlimit="10"/>
<path d="M90.6847 20.2456L81.1136 48.5434L69.5923 48.5358L60.0596 20.2266L69.531 20.2304L75.3779 39.7049L81.2132 20.238L90.6847 20.2456Z" fill="#73C951" stroke="#64B147" stroke-width="1.48" stroke-miterlimit="10"/>
<path d="M109.617 38.8662C110.582 37.7328 111.065 36.2101 111.065 34.2905C111.065 32.3442 110.586 30.8062 109.624 29.6728C108.663 28.5394 107.299 27.9707 105.532 27.9707C103.766 27.9707 102.36 28.5355 101.398 29.669C100.433 30.8024 99.9499 32.3404 99.9499 34.2867C99.9499 36.2063 100.429 37.7328 101.391 38.8662C102.352 39.9997 103.732 40.5683 105.525 40.5683C107.318 40.5683 108.655 40.0035 109.621 38.87L109.617 38.8662ZM98.153 46.9529C95.9192 45.7012 94.1491 43.9648 92.8387 41.7513C91.5283 39.5379 90.8731 37.0459 90.877 34.2752C90.8808 31.5046 91.536 29.0126 92.8502 26.7991C94.1644 24.5895 95.9384 22.8645 98.1721 21.6242C100.406 20.3878 102.862 19.7695 105.54 19.7695C108.218 19.7695 110.663 20.3916 112.885 21.6319C115.103 22.8722 116.862 24.6009 118.161 26.8106C119.456 29.024 120.104 31.5161 120.104 34.2867C120.104 37.0573 119.452 39.5493 118.153 41.7628C116.854 43.9762 115.088 45.705 112.851 46.9567C110.617 48.2085 108.172 48.8344 105.525 48.8305C102.85 48.8305 100.394 48.2009 98.1606 46.9453L98.153 46.9529Z" fill="#73C951" stroke="#64B147" stroke-width="1.48" stroke-miterlimit="10"/>
<path d="M138.115 39.0265C139.291 37.935 139.881 36.3742 139.885 34.3515C139.885 32.3251 139.299 30.768 138.123 29.6728C136.946 28.5775 135.352 28.0318 133.349 28.0318H131.222L131.214 40.6637H133.341C135.349 40.6637 136.939 40.1218 138.119 39.0303L138.115 39.0265ZM141.958 22.0784C144.192 23.2805 145.908 24.9482 147.111 27.0777C148.314 29.211 148.916 31.6382 148.912 34.3553C148.912 37.0458 148.307 39.473 147.1 41.6292C145.893 43.7854 144.173 45.4836 141.939 46.7239C139.705 47.9604 137.1 48.5786 134.13 48.5786L122.287 48.571L122.306 20.2656L134.149 20.2733C137.119 20.2733 139.72 20.8762 141.954 22.0784H141.958Z" fill="#73C951" stroke="#64B147" stroke-width="1.48" stroke-miterlimit="10"/>
<path d="M90.4741 19.4878L80.7536 48.2359L69.0522 48.2283L59.3662 19.4688L68.9871 19.4764L74.9297 39.2562L80.8532 19.484L90.4741 19.4878Z" fill="#74CB53" stroke="#64B147" stroke-width="1.55" stroke-miterlimit="10"/>
<path d="M109.708 38.4061C110.688 37.2574 111.179 35.708 111.179 33.7578C111.179 31.8077 110.692 30.2163 109.715 29.0676C108.738 27.9151 107.351 27.3389 105.558 27.3389C103.738 27.3389 102.336 27.9113 101.359 29.0638C100.382 30.2125 99.8875 31.7772 99.8875 33.754C99.8875 35.7041 100.374 37.2536 101.351 38.4061C102.328 39.5586 103.731 40.1349 105.55 40.1349C107.344 40.1349 108.731 39.5624 109.711 38.4099L109.708 38.4061ZM98.0599 46.6225C95.7917 45.3479 93.9909 43.5886 92.6613 41.3408C91.3318 39.093 90.6651 36.5628 90.669 33.7464C90.669 30.93 91.3395 28.3998 92.6728 26.152C94.0062 23.9042 95.807 22.1525 98.0791 20.897C100.347 19.6376 102.842 19.0117 105.562 19.0117C108.278 19.0117 110.765 19.6452 113.022 20.9046C115.279 22.164 117.064 23.9195 118.382 26.1673C119.7 28.415 120.355 30.9491 120.355 33.7617C120.355 36.5781 119.692 39.1083 118.374 41.3561C117.053 43.6039 115.259 45.3632 112.987 46.634C110.715 47.9048 108.236 48.5383 105.547 48.5383C102.857 48.5383 100.336 47.901 98.0676 46.6264L98.0599 46.6225Z" fill="#74CB53" stroke="#64B147" stroke-width="1.55" stroke-miterlimit="10"/>
<path d="M138.658 38.5663C139.854 37.4558 140.455 35.872 140.455 33.8151C140.455 31.7581 139.861 30.1743 138.666 29.0638C137.47 27.9532 135.854 27.3961 133.815 27.3961H131.654L131.647 40.2264H133.808C135.846 40.2264 137.463 39.6769 138.662 38.5663H138.658ZM142.562 21.3511C144.831 22.5723 146.578 24.2629 147.8 26.4306C149.022 28.5982 149.632 31.0635 149.632 33.8227C149.632 36.559 149.015 39.0205 147.792 41.211C146.566 43.4016 144.819 45.1265 142.551 46.3859C140.279 47.6415 137.635 48.2711 134.62 48.2673L122.593 48.2597L122.612 19.5078L134.639 19.5154C137.654 19.5154 140.298 20.1299 142.566 21.3473L142.562 21.3511Z" fill="#74CB53" stroke="#64B147" stroke-width="1.55" stroke-miterlimit="10"/>
<path d="M90.2683 18.73L80.3945 47.9246L68.5093 47.917L58.6738 18.7109L68.448 18.7148L74.4787 38.8037L80.498 18.7224L90.2683 18.73Z" fill="#76CD55" stroke="#64B147" stroke-width="1.61" stroke-miterlimit="10"/>
<path d="M109.801 37.9419C110.798 36.7741 111.296 35.2018 111.296 33.2211C111.296 31.2138 110.802 29.6262 109.809 28.4584C108.817 27.2906 107.407 26.7029 105.587 26.7029C103.767 26.7029 102.315 27.2868 101.319 28.4546C100.326 29.6224 99.8281 31.2099 99.8243 33.2173C99.8243 35.198 100.319 36.7703 101.311 37.9419C102.303 39.1097 103.725 39.6974 105.575 39.6974C107.426 39.6974 108.805 39.1173 109.801 37.9457V37.9419ZM97.9737 46.2843C95.671 44.9905 93.8433 43.2007 92.4908 40.9186C91.1383 38.6364 90.464 36.0643 90.4678 33.2059C90.4678 30.3475 91.146 27.7753 92.5023 25.4931C93.8548 23.211 95.6863 21.4326 97.9928 20.1542C100.299 18.8757 102.832 18.2384 105.591 18.2422C108.349 18.2422 110.878 18.8833 113.166 20.1656C115.457 21.4441 117.269 23.2263 118.606 25.5084C119.943 27.7905 120.61 30.3627 120.61 33.2211C120.61 36.0795 119.936 38.6517 118.599 40.9338C117.258 43.216 115.434 45.002 113.127 46.2919C110.821 47.5818 108.303 48.2268 105.568 48.2268C102.805 48.2268 100.273 47.578 97.9698 46.2843H97.9737Z" fill="#76CD55" stroke="#64B147" stroke-width="1.61" stroke-miterlimit="10"/>
<path d="M139.201 38.1062C140.416 36.9804 141.025 35.3699 141.025 33.2824C141.025 31.1949 140.419 29.5844 139.205 28.4548C137.99 27.3252 136.35 26.7604 134.278 26.7604H132.082L132.074 39.793H134.27C136.339 39.793 137.983 39.232 139.197 38.1062H139.201ZM143.167 20.62C145.469 21.8603 147.243 23.5776 148.485 25.7796C149.726 27.9816 150.347 30.4813 150.343 33.2862C150.343 36.0645 149.718 38.5641 148.473 40.7929C147.228 43.0178 145.454 44.7694 143.147 46.0479C140.841 47.3263 138.155 47.9637 135.094 47.9598L122.879 47.9522L122.898 18.75L135.113 18.7576C138.178 18.7576 140.86 19.3797 143.167 20.62Z" fill="#76CD55" stroke="#64B147" stroke-width="1.61" stroke-miterlimit="10"/>
<path d="M90.0606 17.976L80.0336 47.6171L67.9682 47.6095L57.9795 17.9531L67.9031 17.9608L74.0296 38.3588L80.137 17.9684L90.0606 17.976Z" fill="#78CF57" stroke="#64B147" stroke-width="1.68" stroke-miterlimit="10"/>
<path d="M109.892 37.4817C110.904 36.2948 111.41 34.6996 111.41 32.6885C111.41 30.6506 110.908 29.0401 109.9 27.8494C108.892 26.6625 107.463 26.0672 105.613 26.0672C103.762 26.0672 102.291 26.6587 101.279 27.8456C100.272 29.0325 99.7658 30.6429 99.7619 32.6808C99.7619 34.692 100.264 36.291 101.272 37.4779C102.279 38.6648 103.724 39.2601 105.601 39.2601C107.452 39.2601 108.881 38.6686 109.892 37.4817ZM97.8845 45.9539C95.5435 44.6411 93.689 42.8245 92.3174 40.508C90.9457 38.1915 90.2599 35.5812 90.2637 32.677C90.2637 29.7728 90.9534 27.1625 92.3289 24.846C93.7044 22.5295 95.5626 20.7244 97.9037 19.4269C100.245 18.1293 102.816 17.4844 105.62 17.4844C108.421 17.4844 110.988 18.137 113.314 19.4383C115.64 20.7397 117.479 22.5448 118.839 24.8651C120.195 27.1854 120.873 29.7957 120.873 32.6961C120.873 35.6003 120.191 38.2106 118.827 40.5271C117.467 42.8436 115.617 44.6563 113.276 45.9691C110.935 47.2819 108.375 47.9345 105.601 47.9307C102.827 47.9269 100.226 47.2705 97.8884 45.9577L97.8845 45.9539Z" fill="#78CF57" stroke="#64B147" stroke-width="1.68" stroke-miterlimit="10"/>
<path d="M139.739 37.6461C140.973 36.5013 141.59 34.8717 141.594 32.7499C141.598 30.628 140.981 28.9946 139.747 27.8497C138.513 26.7049 136.846 26.1324 134.743 26.1286H132.517L132.509 39.3597H134.735C136.839 39.3597 138.506 38.791 139.739 37.6461ZM143.766 19.8928C146.107 21.1522 147.904 22.8962 149.165 25.1325C150.425 27.3689 151.054 29.9067 151.054 32.7537C151.054 35.5739 150.418 38.1117 149.157 40.3748C147.893 42.634 146.092 44.4124 143.751 45.7099C141.41 47.0075 138.682 47.6524 135.574 47.6524L123.172 47.6448L123.191 17.9961L135.594 18.0037C138.705 18.0037 141.429 18.6372 143.77 19.8928H143.766Z" fill="#78CF57" stroke="#64B147" stroke-width="1.68" stroke-miterlimit="10"/>
<path d="M89.85 17.2183L79.6735 47.3097L67.4243 47.3021L57.2861 17.1992L67.3591 17.203L73.5776 37.9102L79.777 17.2145L89.85 17.2183Z" fill="#79D159" stroke="#64B147" stroke-width="1.74" stroke-miterlimit="10"/>
<path d="M109.98 37.0215C111.007 35.8193 111.521 34.1974 111.521 32.1557C111.521 30.0873 111.011 28.4501 109.988 27.2442C108.965 26.0382 107.513 25.4352 105.635 25.4352C103.727 25.4352 102.264 26.0344 101.237 27.2403C100.214 28.4463 99.7004 30.0797 99.6966 32.1481C99.6966 34.1898 100.206 35.8117 101.229 37.0177C102.252 38.2236 103.72 38.8266 105.624 38.8266C107.501 38.8266 108.953 38.2274 109.976 37.0215H109.98ZM97.7885 45.6234C95.413 44.2915 93.5279 42.4482 92.1371 40.0936C90.7463 37.7389 90.0489 35.0904 90.0528 32.1443C90.0528 29.1981 90.7539 26.5496 92.1486 24.1949C93.5432 21.8441 95.4283 20.0085 97.8077 18.6957C100.183 17.3791 102.796 16.7227 105.639 16.7227C108.486 16.7227 111.088 17.3867 113.448 18.7033C115.808 20.0237 117.678 21.8594 119.057 24.2102C120.436 26.5649 121.122 29.2134 121.122 32.1595C121.122 35.1057 120.429 37.7542 119.046 40.1089C117.662 42.4597 115.785 44.3029 113.41 45.631C111.034 46.9629 108.436 47.6269 105.62 47.6231C102.773 47.6231 100.164 46.9553 97.7885 45.6196V45.6234Z" fill="#79D159" stroke="#64B147" stroke-width="1.74" stroke-miterlimit="10"/>
<path d="M140.284 37.19C141.537 36.0298 142.165 34.3736 142.165 32.2174C142.165 30.0612 141.541 28.4049 140.292 27.2409C139.039 26.077 137.349 25.4969 135.215 25.4931H132.954L132.947 38.9264H135.207C137.341 38.9264 139.035 38.3501 140.288 37.1862L140.284 37.19ZM144.372 19.1695C146.748 20.448 148.575 22.2187 149.851 24.4856C151.131 26.7563 151.767 29.3323 151.767 32.225C151.767 35.0872 151.123 37.667 149.84 39.9606C148.556 42.2542 146.729 44.0593 144.353 45.3759C141.978 46.6925 139.207 47.3489 136.05 47.3489L123.46 47.3413L123.479 17.2461L136.069 17.2537C139.227 17.2537 141.993 17.8949 144.368 19.1733L144.372 19.1695Z" fill="#79D159" stroke="#64B147" stroke-width="1.74" stroke-miterlimit="10"/>
<path d="M89.6423 16.4604L79.3126 46.9983L66.8833 46.9907L56.5957 16.4375L66.8143 16.4451L73.1247 37.4576L79.4199 16.4528L89.6423 16.4604Z" fill="#7BD25B" stroke="#64B147" stroke-width="1.81" stroke-miterlimit="10"/>
<path d="M110.071 36.5533C111.113 35.3321 111.634 33.6873 111.634 31.6151C111.634 29.5428 111.117 27.856 110.079 26.631C109.04 25.4098 107.569 24.7954 105.661 24.7954C103.726 24.7954 102.24 25.406 101.197 26.6272C100.159 27.8484 99.638 29.5085 99.6342 31.6074C99.6342 33.6797 100.151 35.3245 101.19 36.5495C102.228 37.7746 103.715 38.3852 105.65 38.3852C107.554 38.3852 109.029 37.7784 110.067 36.5533H110.071ZM97.6993 45.2812C95.2893 43.9302 93.3774 42.0564 91.9635 39.6674C90.5497 37.2784 89.8447 34.5918 89.8447 31.5998C89.8447 28.6078 90.5574 25.9212 91.9712 23.5322C93.3889 21.147 95.3008 19.2847 97.7146 17.949C100.125 16.6133 102.776 15.9454 105.665 15.9492C108.554 15.9492 111.194 16.6209 113.588 17.9604C115.983 19.2999 117.88 21.1623 119.282 23.5513C120.681 25.9403 121.378 28.6307 121.378 31.6189C121.378 34.6109 120.673 37.2975 119.271 39.6865C117.868 42.0717 115.96 43.9417 113.55 45.2926C111.14 46.6436 108.504 47.3153 105.646 47.3153C102.787 47.3153 100.109 46.636 97.6993 45.2812Z" fill="#7BD25B" stroke="#64B147" stroke-width="1.81" stroke-miterlimit="10"/>
<path d="M140.824 36.7259C142.096 35.5466 142.732 33.8675 142.732 31.6807C142.732 29.494 142.1 27.811 140.828 26.6318C139.556 25.4526 137.839 24.861 135.675 24.861H133.38L133.372 38.4928H135.667C137.832 38.4928 139.552 37.9089 140.824 36.7297V36.7259ZM144.974 18.4382C147.384 19.7358 149.238 21.5332 150.537 23.8344C151.836 26.1357 152.483 28.7536 152.479 31.6884C152.479 34.5925 151.824 37.2105 150.525 39.5385C149.227 41.8664 147.368 43.6982 144.954 45.0339C142.544 46.3696 139.736 47.0375 136.529 47.0336L123.751 47.026L123.77 16.4805L136.548 16.4881C139.751 16.4881 142.56 17.1369 144.97 18.4344L144.974 18.4382Z" fill="#7BD25B" stroke="#64B147" stroke-width="1.81" stroke-miterlimit="10"/>
<path d="M89.4327 15.7027L78.9536 46.6871L66.3403 46.6795L55.9033 15.6836L66.2752 15.6912L72.6776 37.0128L79.0608 15.6989L89.4327 15.7027Z" fill="#7DD45D" stroke="#64B147" stroke-width="1.87" stroke-miterlimit="10"/>
<path d="M110.164 36.0932C111.218 34.8529 111.746 33.1852 111.75 31.0824C111.75 28.9529 111.225 27.2661 110.172 26.0259C109.118 24.7856 107.624 24.1635 105.689 24.1635C103.754 24.1635 102.218 24.7817 101.16 26.022C100.106 27.2623 99.5776 28.9453 99.5738 31.0786C99.5738 33.1814 100.099 34.8491 101.152 36.0932C102.206 37.3335 103.716 37.9556 105.677 37.9556C107.612 37.9556 109.107 37.3373 110.16 36.097L110.164 36.0932ZM97.6121 44.9508C95.1676 43.5769 93.225 41.6802 91.792 39.2569C90.3591 36.8336 89.6426 34.1049 89.6426 31.071C89.6426 28.037 90.3629 25.3084 91.7997 22.8851C93.2365 20.4655 95.1791 18.5765 97.6274 17.2217C100.076 15.8669 102.762 15.1876 105.693 15.1914C108.624 15.1914 111.302 15.8745 113.735 17.2331C116.164 18.5917 118.091 20.4808 119.509 22.9041C120.927 25.3275 121.639 28.0561 121.636 31.0901C121.636 34.124 120.923 36.8526 119.498 39.276C118.076 41.6993 116.141 43.5922 113.693 44.9623C111.245 46.3323 108.57 47.0154 105.67 47.0154C102.739 47.0154 100.053 46.3285 97.6082 44.9546L97.6121 44.9508Z" fill="#7DD45D" stroke="#64B147" stroke-width="1.87" stroke-miterlimit="10"/>
<path d="M141.369 36.2658C142.66 35.0713 143.304 33.3654 143.308 31.1444C143.312 28.9233 142.664 27.2174 141.377 26.0229C140.089 24.8246 138.346 24.2254 136.147 24.2254H133.817L133.809 38.0556H136.139C138.338 38.0556 140.082 37.4603 141.369 36.2658ZM145.576 17.7072C148.02 19.0238 149.902 20.848 151.22 23.1836C152.538 25.5191 153.193 28.1753 153.193 31.152C153.193 34.0982 152.53 36.7543 151.208 39.1166C149.89 41.4788 148.005 43.3374 145.557 44.696C143.108 46.0508 140.262 46.7262 137.009 46.7262L124.043 46.7186L124.062 15.7266L137.028 15.7342C140.281 15.7342 143.128 16.3944 145.572 17.7072H145.576Z" fill="#7DD45D" stroke="#64B147" stroke-width="1.87" stroke-miterlimit="10"/>
<path d="M89.225 14.9448L78.5926 46.3757L65.7992 46.3681L55.209 14.9219L65.7303 14.9295L72.2246 36.5602L78.7037 14.9371L89.225 14.9448Z" fill="#7ED65F" stroke="#64B147" stroke-width="1.94" stroke-miterlimit="10"/>
<path d="M110.256 35.6289C111.325 34.3733 111.861 32.6751 111.865 30.5456C111.865 28.3856 111.333 26.6759 110.264 25.4165C109.195 24.1571 107.677 23.5274 105.716 23.5274C103.723 23.5274 102.194 24.1533 101.122 25.4127C100.053 26.6721 99.5162 28.3818 99.5124 30.5418C99.5124 32.6751 100.045 34.3695 101.114 35.6289C102.183 36.8883 103.716 37.5179 105.704 37.5179C107.693 37.5179 109.183 36.8921 110.252 35.6327L110.256 35.6289ZM97.52 44.6124C95.0372 43.2195 93.0716 41.2961 91.6157 38.8346C90.1597 36.3769 89.4355 33.6101 89.4355 30.5303C89.4355 27.4506 90.1674 24.6838 91.6272 22.2261C93.0831 19.7684 95.0563 17.8526 97.5391 16.4788C100.022 15.1049 102.75 14.418 105.723 14.418C108.696 14.418 111.413 15.1087 113.88 16.4864C116.348 17.8641 118.298 19.7837 119.739 22.2414C121.179 24.699 121.9 27.4697 121.896 30.5456C121.896 33.6253 121.172 36.3921 119.727 38.846C118.283 41.3037 116.321 43.2271 113.838 44.6162C111.356 46.0054 108.643 46.6999 105.7 46.6999C102.758 46.6999 99.999 46.0015 97.52 44.6086V44.6124Z" fill="#7ED65F" stroke="#64B147" stroke-width="1.94" stroke-miterlimit="10"/>
<path d="M141.908 35.8057C143.215 34.5921 143.87 32.8633 143.874 30.6117C143.874 28.3639 143.222 26.6313 141.916 25.4139C140.609 24.2003 138.839 23.5897 136.613 23.5897H134.249L134.241 37.6222H136.605C138.835 37.6222 140.602 37.0192 141.912 35.8057H141.908ZM146.176 16.9799C148.655 18.3156 150.567 20.1665 151.901 22.5326C153.238 24.9025 153.904 27.5968 153.901 30.6155C153.901 33.6075 153.226 36.298 151.889 38.6946C150.552 41.0912 148.64 42.9765 146.157 44.3541C143.674 45.728 140.785 46.4149 137.487 46.4149L124.333 46.4073L124.352 14.9688L137.506 14.9764C140.805 14.9764 143.694 15.6442 146.176 16.9799Z" fill="#7ED65F" stroke="#64B147" stroke-width="1.94" stroke-miterlimit="10"/>
<path d="M89.0144 14.191L78.2325 46.0722L65.2553 46.0646L54.5156 14.1719L65.1863 14.1795L71.7727 36.1155L78.3437 14.1871L89.0144 14.1948V14.191Z" fill="#80D861" stroke="#64B147" stroke-width="2" stroke-miterlimit="10"/>
<path d="M110.344 35.1688C111.428 33.8942 111.972 32.1731 111.976 30.013C111.976 27.8225 111.436 26.0861 110.352 24.8114C109.267 23.533 107.731 22.8957 105.742 22.8957C103.723 22.8957 102.171 23.533 101.083 24.8076C99.9988 26.0823 99.4548 27.8187 99.4509 30.0092C99.4509 32.1692 99.9912 33.8904 101.075 35.1688C102.16 36.4473 103.712 37.0846 105.731 37.0846C107.75 37.0846 109.26 36.4511 110.344 35.1727V35.1688ZM97.4279 44.2821C94.9106 42.8701 92.9144 40.9162 91.4393 38.4241C89.9642 35.9321 89.2285 33.1233 89.2285 30.0016C89.2285 26.8799 89.9718 24.0711 91.4508 21.5791C92.9297 19.087 94.9259 17.1445 97.4471 15.7516C99.9643 14.3548 102.731 13.6603 105.746 13.6641C108.761 13.6641 111.516 14.3663 114.018 15.763C116.52 17.1598 118.501 19.1061 119.961 21.5981C121.421 24.0902 122.153 26.899 122.149 30.0207C122.149 33.1424 121.413 35.9512 119.949 38.4394C118.486 40.9314 116.493 42.8815 113.976 44.2898C111.459 45.7018 108.708 46.404 105.723 46.4002C102.708 46.4002 99.9414 45.6903 97.4279 44.2783V44.2821Z" fill="#80D861" stroke="#64B147" stroke-width="2" stroke-miterlimit="10"/>
<path d="M142.448 35.3456C143.774 34.1168 144.44 32.3613 144.44 30.0791C144.44 27.797 143.781 26.0415 142.456 24.8088C141.13 23.5762 139.337 22.9618 137.076 22.958H134.682L134.674 37.1889H137.069C139.329 37.1889 141.122 36.5783 142.452 35.3456H142.448ZM146.778 16.2527C149.295 17.6075 151.23 19.4851 152.586 21.8856C153.943 24.2898 154.617 27.0223 154.617 30.083C154.617 33.1169 153.935 35.8455 152.579 38.2803C151.222 40.7113 149.283 42.6233 146.762 44.02C144.245 45.413 141.314 46.1113 137.965 46.1075L124.624 46.0999L124.643 14.2148L137.984 14.2225C141.329 14.2225 144.26 14.9018 146.778 16.2527Z" fill="#80D861" stroke="#64B147" stroke-width="2" stroke-miterlimit="10"/>
</g>
<defs>
<filter id="filter0_d_1_13549" x="0.123047" y="-44.8867" width="222.494" height="167.742" filterUnits="userSpaceOnUse" color-interpolation-filters="sRGB">
<feFlood flood-opacity="0" result="BackgroundImageFix"/>
<feColorMatrix in="SourceAlpha" type="matrix" values="0 0 0 0 0 0 0 0 0 0 0 0 0 0 0 0 0 0 127 0" result="hardAlpha"/>
<feOffset dx="7" dy="7"/>
<feGaussianBlur stdDeviation="30"/>
<feColorMatrix type="matrix" values="0 0 0 0 0 0 0 0 0 0 0 0 0 0 0 0 0 0 0.3 0"/>
<feBlend mode="normal" in2="BackgroundImageFix" result="effect1_dropShadow_1_13549"/>
<feBlend mode="normal" in="SourceGraphic" in2="effect1_dropShadow_1_13549" result="shape"/>
</filter>
</defs>
</svg>
