<svg width="41" height="41" viewBox="0 0 41 41" fill="none" xmlns="http://www.w3.org/2000/svg">
<g clip-path="url(#clip0_1_32679)">
<path d="M20.25 40.5C31.4338 40.5 40.5 31.4338 40.5 20.25C40.5 9.06623 31.4338 0 20.25 0C9.06623 0 0 9.06623 0 20.25C0 31.4338 9.06623 40.5 20.25 40.5Z" fill="#107BB6"/>
<path d="M14.37 15.8984H9.56V31.4484H14.37V15.8984Z" fill="white"/>
<path d="M11.95 13.8689C13.52 13.8689 14.8 12.5789 14.8 10.9989C14.8 9.41891 13.53 8.12891 11.95 8.12891C10.37 8.12891 9.09998 9.40891 9.09998 10.9989C9.09998 12.5889 10.37 13.8689 11.95 13.8689Z" fill="white"/>
<path d="M22.07 23.288C22.07 21.098 23.08 19.798 25 19.798C26.77 19.798 27.62 21.048 27.62 23.288V31.448H32.41V21.598C32.41 17.428 30.05 15.418 26.75 15.418C23.45 15.418 22.06 17.988 22.06 17.988V15.898H17.44V31.448H22.06V23.288H22.07Z" fill="white"/>
</g>
<defs>
<clipPath id="clip0_1_32679">
<rect width="40.5" height="40.5" fill="white"/>
</clipPath>
</defs>
</svg>
