<svg width="79" height="25" viewBox="0 0 79 25" fill="none" xmlns="http://www.w3.org/2000/svg">
<g clip-path="url(#clip0_1_28004)">
<path d="M19.131 19.4183C19.2198 19.2013 19.348 18.9941 19.5058 18.8018C19.6636 18.6094 19.8757 18.4566 20.1371 18.3382C20.3985 18.2248 20.6895 18.1656 21.015 18.1656C21.3602 18.1656 21.6611 18.2247 21.9274 18.3431C22.1937 18.4615 22.4058 18.6193 22.5636 18.8117C22.7214 19.0089 22.8398 19.2161 22.9187 19.4331C22.9976 19.6501 23.047 19.872 23.0568 20.0989H18.9633C18.983 19.8622 19.0373 19.6402 19.131 19.4183ZM18.4159 23.4378C19.131 24.1431 20.0385 24.4982 21.1334 24.4982C21.7203 24.4982 22.2677 24.4094 22.7708 24.2269C23.2788 24.0494 23.7078 23.788 24.0679 23.4477L23.3577 22.412C23.1061 22.6635 22.7954 22.8558 22.4157 22.9989C22.0359 23.137 21.666 23.2109 21.2961 23.2109C20.6352 23.2109 20.0977 23.0186 19.6883 22.6388C19.279 22.2591 19.0422 21.7807 18.9781 21.2086H24.5759V20.8337C24.5759 19.6797 24.2503 18.7327 23.5993 17.9929C22.9483 17.2532 22.0852 16.8833 21.015 16.8833C20.3196 16.8833 19.6883 17.0509 19.1211 17.3913C18.554 17.7316 18.1199 18.1902 17.8092 18.7722C17.4985 19.3492 17.3456 19.9904 17.3456 20.6809C17.3456 21.8152 17.7007 22.7375 18.4159 23.4427M10.8404 24.3206V19.2605C11.0475 18.9843 11.3139 18.7574 11.6443 18.5651C11.9747 18.3776 12.3298 18.2839 12.7047 18.2839C13.1831 18.2839 13.548 18.3974 13.7996 18.6193C14.0511 18.8412 14.1793 19.221 14.1793 19.7537V24.3256H15.7575V19.1914C15.7575 18.4368 15.5603 17.8647 15.1706 17.4751C14.781 17.0855 14.1941 16.8882 13.4198 16.8882C12.8872 16.8882 12.394 17.0016 11.9402 17.2334C11.4865 17.4652 11.1215 17.7414 10.8453 18.062V14.3088H9.26711V24.3305H10.8453L10.8404 24.3206ZM3.03807 15.8377V24.3108H4.79878V15.8377H7.82699V14.2891H0V15.8377H3.03807Z" fill="#FFCC06"/>
<path d="M73.6534 24.202C74.1959 24.3993 74.773 24.493 75.3944 24.493C76.3413 24.493 77.0861 24.2809 77.6187 23.8568C78.1514 23.4326 78.4177 22.8901 78.4177 22.2292C78.4177 21.884 78.3536 21.5831 78.2303 21.3168C78.107 21.0505 77.9393 20.8434 77.7371 20.6855C77.5299 20.5326 77.2981 20.3946 77.0318 20.2762C76.7704 20.1578 76.4992 20.0641 76.2279 20C75.9566 19.9359 75.6903 19.8668 75.4289 19.8027C75.1675 19.7386 74.9308 19.6794 74.7187 19.6301C74.5116 19.5808 74.3439 19.5019 74.2157 19.3934C74.0874 19.2849 74.0283 19.1566 74.0283 19.0037C74.0283 18.7424 74.1516 18.5303 74.3932 18.3675C74.6398 18.1998 74.9653 18.116 75.3747 18.116C75.8136 18.116 76.2279 18.1949 76.6126 18.3577C76.9973 18.5204 77.3031 18.7325 77.525 18.9889L78.1859 17.8793C77.4116 17.2036 76.4696 16.8633 75.3599 16.8633C74.4771 16.8633 73.7767 17.0754 73.2687 17.4995C72.7608 17.9236 72.5043 18.4415 72.5043 19.0629C72.5043 19.4427 72.5832 19.7682 72.746 20.0395C72.9087 20.3107 73.1159 20.5228 73.3723 20.6707C73.6288 20.8187 73.9148 20.9321 74.2354 21.016C74.556 21.0998 74.8667 21.1837 75.1725 21.2626C75.4783 21.3415 75.7594 21.4155 76.0208 21.4845C76.2772 21.5536 76.4893 21.6522 76.6471 21.7755C76.8099 21.9037 76.8888 22.0615 76.8888 22.2539C76.8888 22.5449 76.7655 22.7865 76.5189 22.9641C76.2723 23.1466 75.9172 23.2353 75.4585 23.2353C74.9999 23.2353 74.556 23.1318 74.0973 22.9296C73.6386 22.7274 73.2737 22.4857 73.0024 22.2046L72.2774 23.3537C72.6473 23.7137 73.106 23.9949 73.6436 24.1921M69.2739 24.3006V19.3588C69.4317 19.1024 69.698 18.8804 70.0728 18.6881C70.4477 18.4958 70.8028 18.3971 71.1381 18.3971C71.3404 18.3971 71.5031 18.4119 71.6363 18.4415V16.8781C71.1825 16.8781 70.7485 16.9915 70.3293 17.2233C69.915 17.4551 69.5599 17.751 69.2739 18.1111V17.0458H67.6956V24.3006H69.2739ZM60.6726 19.4032C60.7613 19.1862 60.8896 18.9791 61.0474 18.7867C61.2052 18.5944 61.4173 18.4415 61.6787 18.3231C61.9401 18.2097 62.2311 18.1505 62.5566 18.1505C62.9018 18.1505 63.2027 18.2097 63.469 18.3281C63.7353 18.4464 63.9474 18.6043 64.1052 18.7966C64.263 18.9939 64.3814 19.201 64.4603 19.418C64.5392 19.635 64.5885 19.857 64.5984 20.0838H60.5049C60.5246 19.8471 60.5789 19.6252 60.6726 19.4032ZM59.9574 23.4228C60.6726 24.128 61.5751 24.4831 62.6749 24.4831C63.2618 24.4831 63.8093 24.3944 64.3123 24.2119C64.8203 24.0343 65.2494 23.7729 65.6094 23.4326L64.8992 22.3969C64.6477 22.6484 64.337 22.8408 63.9572 22.9838C63.5775 23.1219 63.2076 23.1959 62.8377 23.1959C62.1768 23.1959 61.6392 23.0035 61.2299 22.6238C60.8205 22.244 60.5838 21.7656 60.5197 21.1935H66.1174V20.8187C66.1174 19.6646 65.7919 18.7177 65.1409 17.9779C64.4899 17.2381 63.6268 16.8682 62.5566 16.8682C61.8612 16.8682 61.2299 17.0359 60.6627 17.3762C60.0955 17.7165 59.6615 18.1752 59.3508 18.7571C59.0401 19.3342 58.8872 19.9753 58.8872 20.6658C58.8872 21.8002 59.2423 22.7224 59.9574 23.4277" fill="#FFCC06"/>
<path d="M35.2289 0.371094L31.022 12.336H35.5692C37.6209 12.336 39.1892 12.7651 40.2693 13.6183C41.2261 14.3581 41.7045 15.3198 41.7045 16.5084C41.7045 17.7956 41.2508 18.9941 40.3384 20.0989C39.3816 21.248 38.2226 21.9089 36.8663 22.0815C37.0587 21.5932 37.1573 21.1 37.1573 20.6118C37.1573 19.4824 36.7134 18.5157 35.8257 17.7167C34.9379 16.9128 33.8578 16.5133 32.5952 16.5133C31.3327 16.5133 30.292 16.9128 29.4092 17.7167C28.5264 18.5206 28.0825 19.4873 28.0825 20.6118C28.0825 21.6721 28.4771 22.5895 29.2613 23.3638C30.0454 24.1381 31.0318 24.6066 32.2204 24.7645C33.2561 24.9223 34.2869 25.0061 35.3127 25.0061C40.0967 25.0061 43.8253 23.6351 46.4934 20.888C48.121 19.2259 48.9298 17.4405 48.92 15.5368C48.8953 13.7712 48.1506 12.2768 46.6809 11.0586C45.3147 9.92919 43.3025 9.36695 40.6491 9.36695H38.2374L39.7416 5.24878H48.5254L50.5968 0.371094H35.2289Z" fill="#FFCC06"/>
<path d="M64.0116 0.371094L49.0186 24.4192H53.0184L68.1989 0.371094H64.0116Z" fill="#FFCC06"/>
<path d="M55.1242 7.58142C57.2153 7.58142 58.9169 5.88483 58.9169 3.78876C58.9169 1.69268 57.2203 -0.00390625 55.1242 -0.00390625C53.0281 -0.00390625 51.3315 1.69268 51.3315 3.78876C51.3315 5.88483 53.0281 7.58142 55.1242 7.58142Z" fill="#FFCC06"/>
</g>
<defs>
<clipPath id="clip0_1_28004">
<rect width="78.4178" height="25" fill="white"/>
</clipPath>
</defs>
</svg>
