<svg width="40" height="25" viewBox="0 0 40 25" fill="none" xmlns="http://www.w3.org/2000/svg">
<path d="M7.12172 0.371094L2.93172 12.3011H7.47172C9.52172 12.3011 11.0817 12.7311 12.1617 13.5811C13.1117 14.3211 13.5917 15.2811 13.5917 16.4611C13.5917 17.7411 13.1417 18.9411 12.2317 20.0411C11.2817 21.1911 10.1217 21.8511 8.77172 22.0211C8.96172 21.5311 9.06172 21.0411 9.06172 20.5511C9.06172 19.4311 8.62172 18.4611 7.73172 17.6611C6.84172 16.8611 5.77172 16.4611 4.51172 16.4611C3.25172 16.4611 2.21172 16.8611 1.33172 17.6611C0.451719 18.4611 0.0117188 19.4211 0.0117188 20.5511C0.0117188 21.6111 0.401719 22.5211 1.19172 23.2911C1.97172 24.0611 2.96172 24.5311 4.14172 24.6911C5.17172 24.8511 6.20172 24.9311 7.23172 24.9311C12.0017 24.9311 15.7217 23.5611 18.3817 20.8211C20.0017 19.1611 20.8117 17.3811 20.8017 15.4911C20.7817 13.7311 20.0317 12.2411 18.5717 11.0211C17.2117 9.89109 15.2017 9.33109 12.5517 9.33109H10.1517L11.6517 5.22109H20.4117L22.4517 0.371094H7.12172Z" fill="#00C638"/>
<path d="M35.8228 0.371094L20.8828 24.3511H24.8628L40.0028 0.371094H35.8228Z" fill="#00C638"/>
<path d="M26.9636 7.56C29.0536 7.56 30.7436 5.87 30.7436 3.78C30.7436 1.69 29.0536 0 26.9636 0C24.8736 0 23.1836 1.69 23.1836 3.78C23.1836 5.87 24.8736 7.56 26.9636 7.56Z" fill="#00C638"/>
</svg>
