<svg width="82" height="26" viewBox="0 0 82 26" fill="none" xmlns="http://www.w3.org/2000/svg">
<g clip-path="url(#clip0_1_13500)">
<path d="M19.84 20.1303C19.93 19.9003 20.06 19.6903 20.23 19.4903C20.4 19.2903 20.61 19.1303 20.89 19.0103C21.16 18.8903 21.47 18.8303 21.8 18.8303C22.16 18.8303 22.47 18.8903 22.75 19.0103C23.03 19.1303 23.25 19.2903 23.41 19.5003C23.57 19.7003 23.7 19.9203 23.78 20.1403C23.86 20.3703 23.91 20.6003 23.92 20.8303H19.68C19.7 20.5903 19.76 20.3503 19.85 20.1303M19.11 24.3003C19.85 25.0303 20.79 25.4003 21.93 25.4003C22.54 25.4003 23.1 25.3103 23.63 25.1203C24.16 24.9303 24.6 24.6603 24.97 24.3103L24.23 23.2403C23.97 23.5003 23.65 23.7003 23.25 23.8503C22.86 24.0003 22.47 24.0703 22.09 24.0703C21.4 24.0703 20.85 23.8703 20.43 23.4803C20.01 23.0903 19.76 22.5903 19.69 22.0003H25.49V21.6103C25.49 20.4103 25.15 19.4303 24.48 18.6603C23.81 17.8903 22.91 17.5103 21.8 17.5103C21.08 17.5103 20.42 17.6903 19.84 18.0403C19.25 18.3903 18.8 18.8703 18.48 19.4703C18.16 20.0703 18 20.7303 18 21.4503C18 22.6303 18.37 23.5803 19.11 24.3103M11.25 25.2203V19.9703C11.46 19.6903 11.74 19.4503 12.08 19.2503C12.42 19.0503 12.79 18.9603 13.18 18.9603C13.68 18.9603 14.06 19.0803 14.32 19.3103C14.58 19.5403 14.71 19.9303 14.71 20.4903V25.2303H16.35V19.9103C16.35 19.1303 16.15 18.5403 15.74 18.1303C15.33 17.7203 14.73 17.5203 13.92 17.5203C13.37 17.5203 12.86 17.6403 12.38 17.8803C11.91 18.1203 11.53 18.4003 11.25 18.7403V14.8503H9.61V25.2403H11.25V25.2203ZM3.15 16.4203V25.2103H4.98V16.4203H8.12V14.8203H0V16.4203H3.15Z" fill="#80D961"/>
<path d="M76.3798 25.1C76.9398 25.3 77.5398 25.4 78.1898 25.4C79.1698 25.4 79.9398 25.18 80.4898 24.74C81.0398 24.3 81.3198 23.74 81.3198 23.05C81.3198 22.69 81.2598 22.38 81.1298 22.1C80.9998 21.82 80.8298 21.61 80.6198 21.45C80.4098 21.29 80.1598 21.15 79.8898 21.03C79.6198 20.91 79.3398 20.81 79.0598 20.74C78.7798 20.67 78.4998 20.6 78.2298 20.54C77.9598 20.47 77.7098 20.41 77.4998 20.36C77.2798 20.31 77.1098 20.22 76.9798 20.11C76.8498 20 76.7798 19.86 76.7798 19.71C76.7798 19.44 76.9098 19.22 77.1598 19.05C77.4098 18.88 77.7498 18.79 78.1798 18.79C78.6398 18.79 79.0598 18.87 79.4598 19.04C79.8598 19.21 80.1698 19.43 80.4098 19.7L81.0898 18.55C80.2898 17.85 79.3098 17.5 78.1598 17.5C77.2398 17.5 76.5198 17.72 75.9898 18.16C75.4598 18.6 75.1998 19.14 75.1998 19.78C75.1998 20.17 75.2798 20.51 75.4498 20.79C75.6198 21.07 75.8298 21.29 76.0998 21.44C76.3698 21.59 76.6598 21.71 76.9898 21.8C77.3198 21.89 77.6398 21.97 77.9598 22.06C78.2798 22.14 78.5698 22.22 78.8398 22.29C79.1098 22.36 79.3198 22.46 79.4898 22.59C79.6598 22.72 79.7398 22.89 79.7398 23.08C79.7398 23.38 79.6098 23.63 79.3598 23.82C79.0998 24.01 78.7398 24.1 78.2598 24.1C77.7798 24.1 77.3198 23.99 76.8498 23.78C76.3798 23.57 75.9998 23.32 75.7098 23.03L74.9598 24.22C75.3498 24.6 75.8198 24.88 76.3798 25.09M71.8498 25.2V20.07C72.0098 19.81 72.2898 19.57 72.6798 19.37C73.0698 19.17 73.4398 19.07 73.7798 19.07C73.9898 19.07 74.1598 19.09 74.2998 19.12V17.5C73.8298 17.5 73.3798 17.62 72.9498 17.86C72.5198 18.1 72.1498 18.41 71.8498 18.78V17.68H70.2098V25.2H71.8498ZM62.9298 20.12C63.0198 19.89 63.1498 19.68 63.3198 19.48C63.4898 19.28 63.6998 19.12 63.9798 19C64.2498 18.88 64.5598 18.82 64.8898 18.82C65.2498 18.82 65.5598 18.88 65.8398 19C66.1198 19.12 66.3398 19.28 66.4998 19.49C66.6598 19.69 66.7898 19.91 66.8698 20.13C66.9498 20.36 66.9998 20.59 67.0098 20.82H62.7698C62.7898 20.58 62.8498 20.34 62.9398 20.12M62.1998 24.29C62.9398 25.02 63.8798 25.39 65.0198 25.39C65.6298 25.39 66.1898 25.3 66.7198 25.11C67.2498 24.92 67.6898 24.65 68.0598 24.3L67.3198 23.23C67.0598 23.49 66.7398 23.69 66.3398 23.84C65.9498 23.99 65.5598 24.06 65.1798 24.06C64.4898 24.06 63.9398 23.86 63.5198 23.47C63.0998 23.08 62.8498 22.58 62.7798 21.99H68.5798V21.6C68.5798 20.4 68.2398 19.42 67.5698 18.65C66.8998 17.88 65.9998 17.5 64.8898 17.5C64.1698 17.5 63.5098 17.68 62.9298 18.03C62.3398 18.38 61.8898 18.86 61.5698 19.46C61.2498 20.06 61.0898 20.72 61.0898 21.44C61.0898 22.62 61.4598 23.57 62.1998 24.3" fill="#80D961"/>
<path d="M36.5303 0.378906L32.1703 12.7889H36.8804C39.0104 12.7889 40.6304 13.2289 41.7504 14.1189C42.7404 14.8889 43.2404 15.8889 43.2404 17.1189C43.2404 18.4589 42.7704 19.6989 41.8204 20.8389C40.8304 22.0289 39.6304 22.7189 38.2204 22.8989C38.4204 22.3889 38.5204 21.8789 38.5204 21.3789C38.5204 20.2089 38.0604 19.2089 37.1404 18.3789C36.2204 17.5489 35.1004 17.1289 33.7904 17.1289C32.4804 17.1289 31.4004 17.5489 30.4804 18.3789C29.5604 19.2089 29.1104 20.2089 29.1104 21.3789C29.1104 22.4789 29.5204 23.4289 30.3304 24.2289C31.1504 25.0289 32.1704 25.5189 33.4004 25.6789C34.4804 25.8489 35.5404 25.9289 36.6104 25.9289C41.5704 25.9289 45.4404 24.5089 48.2004 21.6589C49.8904 19.9289 50.7304 18.0889 50.7204 16.1089C50.7004 14.2789 49.9204 12.7289 48.4004 11.4689C46.9804 10.2989 44.9004 9.71891 42.1404 9.71891H39.6404L41.2004 5.44891H50.3104L52.4704 0.378906H36.5404H36.5303Z" fill="#80D961"/>
<path d="M66.3801 0.378906L50.8301 25.3189H54.9801L70.7201 0.378906H66.3801Z" fill="#80D961"/>
<path d="M57.1605 7.86C59.3305 7.86 61.0905 6.1 61.0905 3.93C61.0905 1.76 59.3305 0 57.1605 0C54.9905 0 53.2305 1.76 53.2305 3.93C53.2305 6.1 54.9905 7.86 57.1605 7.86Z" fill="#80D961"/>
</g>
<defs>
<clipPath id="clip0_1_13500">
<rect width="81.32" height="25.92" fill="white"/>
</clipPath>
</defs>
</svg>
