<svg width="58" height="68" viewBox="0 0 58 68" fill="none" xmlns="http://www.w3.org/2000/svg">
<path d="M26.5164 29.2744C26.7627 29.4943 27.0003 29.7231 27.2379 29.9607C27.845 30.5678 28.417 31.2102 28.9449 31.8789C29.4729 31.2102 30.0448 30.5678 30.652 29.9607C30.8896 29.7231 31.1271 29.4943 31.3735 29.2744V13.1454H36.2395L32.5878 6.82759L28.9362 0.509766L25.2845 6.82759L21.6328 13.1454H26.4988V29.2744H26.5164Z" fill="white"/>
<path d="M53.5263 25.9315L52.3736 25.2628L51.3353 24.6644L51.2209 24.594L49.3466 23.5117L44.903 20.9512V24.7084V25.8611C42.7032 26.0019 40.565 26.5123 38.5412 27.3658C36.1918 28.3601 34.0888 29.7768 32.285 31.5806C31.9682 31.8974 31.669 32.2229 31.3699 32.5573C31.2819 32.6629 31.1851 32.7685 31.0971 32.8741C30.8331 33.1909 30.5779 33.5164 30.3316 33.8508C30.314 33.8772 30.2964 33.8948 30.2788 33.9212C30.05 34.238 29.83 34.5635 29.6188 34.8891C29.3812 35.2587 29.1525 35.637 28.9413 36.0242C28.6157 36.6138 28.3253 37.2209 28.0614 37.8368C27.9646 38.0656 27.8766 38.2944 27.7886 38.5232C27.7622 38.6024 27.727 38.6728 27.7006 38.752C27.3926 39.5967 27.1374 40.4678 26.9527 41.3389C26.8647 41.7349 26.7943 42.1396 26.7327 42.5444C26.7063 42.7028 26.6887 42.87 26.6623 43.0284C26.6535 43.1076 26.6447 43.1868 26.6359 43.2747C26.6183 43.4419 26.6007 43.6003 26.5831 43.7675C26.5567 44.0931 26.5303 44.4274 26.5215 44.753C26.5127 44.9994 26.5039 45.2458 26.5039 45.5009V67.9389H31.3611V45.5009C31.3611 45.2106 31.3611 44.929 31.3875 44.6474C31.4491 43.6003 31.6162 42.5796 31.8802 41.5941C31.933 41.4181 31.9858 41.2333 32.0386 41.0573C32.0914 40.899 32.1354 40.7406 32.197 40.591C32.2234 40.5118 32.2498 40.4326 32.2762 40.3622C32.417 39.975 32.5754 39.5967 32.7513 39.2271C33.4729 37.6873 34.4672 36.2618 35.7079 35.0299C38.198 32.5397 41.4274 31.0439 44.8942 30.7447V31.8974V35.549L49.3378 32.9885L51.2121 31.9062L51.3265 31.8358L52.3648 31.2374L53.5175 30.5687L57.5299 28.2545L53.5175 25.9403L53.5263 25.9315Z" fill="white"/>
<path d="M27.5509 33.8586C27.2253 33.4187 26.8821 32.9875 26.5126 32.5651C26.2222 32.2308 25.9142 31.9052 25.5975 31.5884C23.7936 29.7846 21.6818 28.3591 19.3412 27.3736C17.3086 26.5113 15.1704 26.0097 12.9794 25.8689V20.959L6.66158 24.6107L0.34375 28.2535L6.66158 31.9052L12.9794 35.5569V30.7437C16.4551 31.0429 19.6756 32.5387 22.1658 35.0289C23.4065 36.2696 24.4008 37.6863 25.1223 39.2261C25.3511 38.4606 25.6239 37.6951 25.9406 36.9559C26.1166 36.5336 26.3102 36.12 26.5126 35.7064C26.8293 35.0729 27.1725 34.457 27.5509 33.8586Z" fill="white"/>
</svg>
