<svg width="53" height="53" viewBox="0 0 53 53" fill="none" xmlns="http://www.w3.org/2000/svg">
<path d="M29.9515 39.2452C31.2641 41.0429 34.8538 45.1463 36.3262 46.8127C35.5843 47.5318 34.8196 48.2223 34.0434 48.9129C33.7466 49.1811 33.6154 49.495 33.604 49.8032C33.1702 50.5851 33.4784 51.7892 34.6369 51.8178C39.9616 51.9605 45.2748 52.3542 50.5881 52.7651C51.6781 52.8507 52.1461 51.8178 51.9064 51.0074C51.7238 46.2078 51.5526 41.4139 51.3699 36.6142C51.3414 35.8495 50.7935 35.3929 50.2 35.2731C49.7549 34.9934 49.1727 34.9592 48.6648 35.4101C47.6147 36.3403 46.5532 37.2706 45.4403 38.1323C44.1277 36.7398 40.7377 32.8761 39.6991 31.261C39.1797 30.4564 38.1924 30.4678 37.5875 30.8901C37.3877 30.9357 37.1937 31.0271 37.0053 31.1983C34.694 33.2528 32.3712 35.2959 29.9743 37.2534C29.3294 37.7842 29.4093 38.5204 29.8145 39.0226C29.8487 39.0968 29.8944 39.1767 29.9515 39.2566V39.2452ZM38.1753 33.7436C39.3852 35.4215 42.8836 39.3764 44.3389 40.8603C45.0523 41.5851 46.0396 41.2655 46.4847 40.6263C46.6046 40.5806 46.7244 40.5236 46.8386 40.438C47.5063 39.9414 48.1455 39.4164 48.7732 38.8799C48.9102 42.5724 49.0472 46.2648 49.1842 49.963C45.349 49.6719 41.5139 49.4037 37.6674 49.2439C38.1068 48.8273 38.5348 48.405 38.9571 47.9712C39.2996 47.6117 39.3852 47.1894 39.3224 46.7956C39.3681 46.4646 39.2767 46.1107 38.9914 45.7854C37.5703 44.1818 34.0206 40.1583 32.7194 38.4633C34.5627 36.9281 36.3719 35.3416 38.1696 33.7493L38.1753 33.7436ZM22.9775 38.2122C23.3827 37.71 23.4626 36.9738 22.8177 36.443C20.4207 34.4855 18.1036 32.4424 15.7866 30.3879C15.5983 30.2167 15.3985 30.1253 15.2045 30.0797C14.5995 29.6574 13.6122 29.646 13.0929 30.4506C12.0542 32.0657 8.66422 35.9294 7.3516 37.3219C6.23873 36.4602 5.17722 35.5299 4.12713 34.5997C3.6192 34.1488 3.03708 34.183 2.59193 34.4627C1.9984 34.5825 1.45053 35.0391 1.42199 35.8038C1.23937 40.6035 1.06816 45.3974 0.885531 50.197C0.645836 51.0074 1.11381 52.0404 2.20386 51.9547C7.5171 51.5438 12.8304 51.1501 18.155 51.0074C19.3135 50.9788 19.6217 49.7747 19.188 48.9928C19.1766 48.6846 19.0453 48.3707 18.7428 48.1025C17.9667 47.4177 17.2019 46.7271 16.4657 46.0023C17.9381 44.3359 21.5279 40.2325 22.8405 38.4348C22.8976 38.3549 22.9375 38.2807 22.9775 38.2008V38.2122ZM20.0726 37.6529C18.7657 39.3479 15.2216 43.3714 13.8005 44.975C13.5095 45.3003 13.4239 45.6542 13.4695 45.9852C13.4068 46.379 13.4981 46.8013 13.8348 47.1608C14.2514 47.6003 14.6851 48.0226 15.1189 48.4335C11.278 48.599 7.44291 48.8615 3.60779 49.1526C3.75046 45.4601 3.88172 41.7677 4.01869 38.0695C4.65217 38.606 5.28565 39.131 5.95338 39.6276C6.06752 39.7132 6.18737 39.7702 6.30721 39.8159C6.75236 40.4551 7.73968 40.7747 8.45306 40.0499C9.90835 38.566 13.4125 34.6111 14.6167 32.9332C16.4144 34.5255 18.2235 36.112 20.0726 37.6472V37.6529ZM30.2939 15.4069C29.8887 15.9091 29.8088 16.6453 30.4537 17.1761C32.8506 19.1336 35.1677 21.1767 37.4847 23.2312C37.6731 23.3968 37.8728 23.4938 38.0669 23.5394C38.6718 23.9618 39.6591 23.9732 40.1785 23.1685C41.2171 21.5534 44.6071 17.6897 45.9197 16.2972C47.0326 17.159 48.0941 18.0892 49.1442 19.0195C49.6521 19.4703 50.2342 19.4304 50.6794 19.1564C51.2729 19.0309 51.8208 18.58 51.8493 17.8153C52.032 13.0214 52.2032 8.22175 52.3858 3.42214C52.6198 2.61174 52.1575 1.57877 51.0675 1.66437C45.7542 2.07528 40.441 2.46907 35.1163 2.61174C33.9578 2.64028 33.6496 3.83875 34.0833 4.62632C34.0948 4.9345 34.226 5.24839 34.5228 5.51662C35.2989 6.20147 36.0637 6.89202 36.8056 7.61681C35.3332 9.28326 31.7435 13.3866 30.4308 15.1843C30.3738 15.2585 30.3338 15.3384 30.2939 15.4183V15.4069ZM33.1988 15.9605C34.5057 14.2655 38.0497 10.242 39.4708 8.63837C39.7618 8.31307 39.8474 7.95352 39.8018 7.62822C39.8646 7.23444 39.779 6.81212 39.4365 6.45257C39.0142 6.01313 38.5862 5.59081 38.1468 5.1742C41.9876 5.0144 45.8227 4.74617 49.6635 4.45511C49.5209 8.14756 49.3896 11.84 49.2526 15.5382C48.6192 15.0017 47.9857 14.4767 47.318 13.9802C47.2038 13.8945 47.084 13.8375 46.9641 13.7861C46.519 13.1469 45.5317 12.8273 44.8183 13.5578C43.3573 15.0417 39.8589 18.9966 38.6547 20.6745C36.857 19.0822 35.0478 17.4957 33.2045 15.9605H33.1988ZM23.3199 14.3739C22.0073 12.5705 18.4175 8.47286 16.9451 6.80641C17.687 6.08732 18.4518 5.39677 19.2222 4.70622C19.519 4.43799 19.6503 4.12411 19.6674 3.81593C20.1011 3.02835 19.7929 1.82988 18.6344 1.80134C13.3097 1.66437 7.9965 1.27059 2.68325 0.853975C1.5875 0.774077 1.12523 1.80705 1.36492 2.61745C1.54755 7.41706 1.71876 12.211 1.90138 17.0106C1.92992 17.7753 2.47779 18.2319 3.07133 18.3517C3.51647 18.6314 4.09859 18.6656 4.60652 18.2148C5.66232 17.2845 6.71812 16.3543 7.83099 15.4925C9.14361 16.885 12.5336 20.7487 13.5723 22.3638C14.0916 23.1685 15.0789 23.1571 15.6839 22.7347C15.8779 22.6891 16.0777 22.5921 16.266 22.4266C18.5773 20.372 20.9001 18.3289 23.2971 16.3714C23.9419 15.8406 23.862 15.1044 23.4569 14.6022C23.4226 14.5223 23.3769 14.4481 23.3199 14.3682V14.3739ZM15.096 19.8755C13.8862 18.1976 10.3877 14.2427 8.93245 12.7588C8.21907 12.0283 7.23175 12.3536 6.7866 12.9871C6.66676 13.0328 6.54691 13.0899 6.43277 13.1812C5.76505 13.6777 5.13156 14.2027 4.49808 14.7392C4.36111 11.0467 4.22415 7.35429 4.08718 3.65613C7.9223 3.94719 11.7574 4.21542 15.5983 4.37521C15.1588 4.79183 14.7308 5.21415 14.3142 5.65359C13.9718 6.01313 13.8804 6.43545 13.9489 6.82924C13.9033 7.16025 13.9946 7.51408 14.2799 7.83938C15.701 9.44306 19.2508 13.4665 20.552 15.1615C18.7086 16.6967 16.8995 18.2833 15.096 19.8755Z" fill="white"/>
</svg>
