<svg width="63" height="62" viewBox="0 0 63 62" fill="none" xmlns="http://www.w3.org/2000/svg">
<path fill-rule="evenodd" clip-rule="evenodd" d="M56.4053 31.1429C56.4053 45.0104 45.0983 56.3174 31.2308 56.3174C17.3633 56.3174 6.05628 45.0104 6.05628 31.1429C6.05628 17.2754 17.3633 5.96839 31.2308 5.96839C45.0983 5.96839 56.4053 17.2754 56.4053 31.1429ZM31.2308 61.9401C14.2483 61.9401 0.433594 48.1254 0.433594 31.1429C0.433594 14.1604 14.2483 0.345703 31.2308 0.345703C48.2133 0.345703 62.028 14.1604 62.028 31.1429C62.028 48.1254 48.2133 61.9401 31.2308 61.9401ZM31.2308 3.19664C15.8234 3.19664 3.28453 15.7355 3.28453 31.1429C3.28453 46.5503 15.8234 59.0892 31.2308 59.0892C46.6382 59.0892 59.1771 46.5503 59.1771 31.1429C59.1771 15.7355 46.6382 3.19664 31.2308 3.19664Z" fill="white"/>
<path d="M33.3835 46.5594C33.2251 46.5594 33.0755 46.5594 32.9171 46.5418C32.1516 46.4978 31.5444 46.4186 31.0165 46.3042C30.3125 46.1547 29.7054 45.9963 29.1598 45.8027C28.9399 45.7411 28.7287 45.6531 28.5351 45.5827C28.4383 45.5475 28.3327 45.5035 28.2271 45.4595L27.1624 45.0108L27.0304 44.9492C26.8369 44.8612 26.6521 44.7732 26.4585 44.6764L26.2209 44.5444C26.0185 44.4388 25.8249 44.3332 25.6314 44.2188L24.6987 43.6293C24.4611 43.4621 24.2499 43.3213 24.0563 43.1541L23.6691 42.8462C23.6076 42.7934 23.5372 42.7318 23.4668 42.6614L22.974 42.2126L22.5165 41.7551C22.4461 41.6847 22.3757 41.6143 22.3229 41.5527L21.7861 40.9543C21.6453 40.7959 21.4957 40.6376 21.3638 40.4616C21.3638 40.4616 20.8622 39.8368 20.7566 39.7048L20.2199 38.9393L19.7271 38.121C19.6743 38.0418 19.6391 37.9626 19.6039 37.8746L19.5247 37.7162C19.4455 37.5578 19.3839 37.4259 19.3311 37.3027C19.0672 36.7131 18.8472 36.0796 18.6624 35.534L18.504 35.0413H15.0195L15.5651 31.6712H17.9497L17.9233 31.196C17.9145 31.0024 17.8529 29.9817 17.9849 29.1194L18.0553 28.6091H15.0195L15.5651 25.2302H18.7504C19.0496 24.3766 19.2959 23.7959 19.4103 23.5495C19.4895 23.3911 19.5687 23.2151 19.6479 23.0392L19.7007 22.9336C19.7975 22.7224 19.9031 22.5024 20.0087 22.3L20.3254 21.7017C20.387 21.5961 20.8446 20.8306 20.8446 20.8306L21.0294 20.5666C21.091 20.4874 21.1526 20.3906 21.223 20.2938L21.4253 20.0034L21.6453 19.7307C21.8565 19.4579 22.0589 19.2115 22.2789 18.9739C22.534 18.6748 22.8244 18.402 23.0972 18.138L23.238 17.9972C23.326 17.9092 23.4228 17.83 23.5196 17.7508L24.0035 17.3373L24.8218 16.7301L26.0097 15.991L27.356 15.2959L27.8224 15.1199C28.2711 14.9439 28.7023 14.8031 29.1334 14.6887C29.327 14.6271 29.5206 14.5831 29.7054 14.5391C29.9694 14.4687 30.1366 14.4423 30.2949 14.4159L30.4709 14.3807C30.8845 14.3104 31.3332 14.2488 31.8172 14.2136C31.9492 14.2048 32.0812 14.196 32.2132 14.196C32.3628 14.196 32.6267 14.196 32.6267 14.196C32.7323 14.196 32.8379 14.196 32.9523 14.2048L33.4715 14.2224C33.6562 14.2224 33.7618 14.2312 33.8762 14.2488L35.2753 14.4071L36.5512 14.6447L37.0879 13.6328C38.575 14.24 40.0709 14.8471 41.5667 15.4542L43.3706 16.1846L40.6428 22.7224L40.5548 22.6608L39.6661 22.1504L38.7422 21.7017C38.5046 21.5961 38.267 21.4993 38.0382 21.4113L37.7919 21.3145C37.5631 21.2265 37.3255 21.1561 37.0967 21.0769L36.8064 20.9801C36.5512 20.9098 36.296 20.8482 36.0496 20.7954L35.7944 20.7338C35.5833 20.6898 35.3721 20.6546 35.1609 20.6282L34.7561 20.5666C34.5098 20.5402 34.281 20.5314 34.0698 20.5226L33.5243 20.505C33.2251 20.505 32.9435 20.5226 32.6267 20.5578C32.266 20.6018 31.9052 20.6634 31.562 20.7426C31.2629 20.813 30.9373 20.9098 30.5413 21.0593C30.2246 21.1825 29.9078 21.3233 29.5734 21.4993C29.4942 21.5433 29.415 21.5873 29.3358 21.6313L29.1071 21.7633C29.0015 21.8249 28.8959 21.8953 28.7903 21.9657L28.6671 22.0448L28.2447 22.3528L27.84 22.6872L27.4528 23.0392L27.092 23.4087L26.7489 23.8047C26.7489 23.8047 26.1769 24.4646 25.737 25.2126C26.1945 25.2126 37.7655 25.2302 37.7655 25.2302L37.2375 28.5915C35.2137 28.5915 25.7194 28.6091 24.8658 28.6091C24.725 29.093 24.6987 29.6562 24.6987 30.1489C24.6987 30.7209 24.7602 31.2224 24.8834 31.6712H36.7536L36.2168 35.0413H25.737C26.0009 35.7804 27.0216 36.8979 27.0216 36.8979L27.3736 37.2587L27.752 37.6106L28.1479 37.9362L28.5703 38.2442L29.0015 38.5258L29.4502 38.7809L29.9166 39.0097L30.4005 39.2121L30.8933 39.3793L31.3948 39.5201L31.914 39.6345L32.4331 39.7136L32.9699 39.7576L33.4803 39.7752L34.0346 39.7576C34.2106 39.7576 34.3954 39.7488 34.5714 39.7312L35.2401 39.6433C35.4337 39.6169 35.5481 39.6081 35.6625 39.5817L36.3488 39.4321C36.4808 39.4057 36.604 39.3793 36.7184 39.3353L37.2199 39.1769C37.2903 39.1505 37.3343 39.1329 37.3783 39.1241C37.5631 39.0625 37.6687 39.0273 37.7567 38.9833L38.4078 38.6929C38.5222 38.6489 38.6366 38.5873 38.7422 38.517L39.3053 38.1914C39.4637 38.1034 39.5781 38.0418 39.6749 37.9626L40.2028 37.5754C40.326 37.4874 40.4316 37.4083 40.5372 37.3203L40.7132 37.1619L43.441 42.8902L42.8778 43.3477C42.8162 43.4005 42.7722 43.4357 42.7282 43.4709C42.7282 43.4709 41.8219 44.0956 41.7339 44.1572L41.0828 44.5356C40.898 44.6412 40.7044 44.7644 40.4932 44.8524L40.0445 45.0636C39.8949 45.134 39.7453 45.2043 39.6045 45.2659L38.6894 45.6091C38.5046 45.6883 38.3198 45.7411 38.1438 45.7851C37.9854 45.8291 37.8711 45.8643 37.7655 45.8995L37.6247 45.9435C37.5191 45.9787 37.4223 46.0051 37.3167 46.0315L36.1288 46.2866L34.8969 46.4626C34.4922 46.5066 33.9906 46.5506 33.4715 46.5506L33.3835 46.5594Z" fill="#E5E5E5"/>
</svg>
