<svg width="57" height="67" viewBox="0 0 57 67" fill="none" xmlns="http://www.w3.org/2000/svg">
<path d="M25.8452 28.9646C26.0861 29.1797 26.3184 29.4034 26.5507 29.6357C27.1444 30.2293 27.7036 30.8574 28.2198 31.5113C28.736 30.8574 29.2952 30.2293 29.8889 29.6357C30.1212 29.4034 30.3535 29.1797 30.5944 28.9646V13.1944H35.3521L31.7816 7.01714L28.2112 0.839844L24.6408 7.01714L21.0703 13.1944H25.828V28.9646H25.8452Z" fill="white"/>
<path d="M52.2572 25.6957L51.1302 25.0419L50.115 24.4568L50.0031 24.388L48.1706 23.3298L43.8258 20.8262V24.4999V25.6269C41.6749 25.7646 39.5843 26.2636 37.6055 27.0981C35.3084 28.0703 33.2521 29.4555 31.4884 31.2192C31.1787 31.5289 30.8862 31.8472 30.5937 32.1742C30.5076 32.2774 30.413 32.3806 30.327 32.4839C30.0689 32.7936 29.8194 33.1119 29.5785 33.4389C29.5612 33.4647 29.544 33.4819 29.5268 33.5077C29.3031 33.8174 29.0881 34.1358 28.8816 34.4541C28.6493 34.8154 28.4256 35.1854 28.2191 35.5639C27.9008 36.1404 27.6169 36.734 27.3588 37.3363C27.2641 37.5599 27.1781 37.7836 27.092 38.0073C27.0662 38.0848 27.0318 38.1536 27.006 38.231C26.7049 39.0569 26.4554 39.9087 26.2747 40.7604C26.1887 41.1476 26.1199 41.5434 26.0596 41.9391C26.0338 42.094 26.0166 42.2574 25.9908 42.4123C25.9822 42.4897 25.9736 42.5672 25.965 42.6532C25.9478 42.8167 25.9306 42.9715 25.9134 43.135C25.8876 43.4533 25.8617 43.7803 25.8531 44.0986C25.8445 44.3395 25.8359 44.5804 25.8359 44.8299V66.7688H30.5851V44.8299C30.5851 44.546 30.5851 44.2707 30.6109 43.9953C30.6711 42.9715 30.8346 41.9735 31.0927 41.0099C31.1443 40.8379 31.1959 40.6572 31.2475 40.4851C31.2991 40.3303 31.3422 40.1754 31.4024 40.0291C31.4282 39.9517 31.454 39.8743 31.4798 39.8055C31.6175 39.4269 31.7723 39.0569 31.9444 38.6956C32.6499 37.19 33.6221 35.7962 34.8352 34.5917C37.27 32.157 40.4274 30.6944 43.8172 30.4018V31.5289V35.0993L48.162 32.5957L49.9945 31.5375L50.1064 31.4687L51.1216 30.8836L52.2486 30.2298L56.1718 27.9671L52.2486 25.7043L52.2572 25.6957Z" fill="white"/>
<path d="M26.8598 33.4467C26.5414 33.0165 26.2059 32.5949 25.8446 32.182C25.5606 31.855 25.2595 31.5367 24.9498 31.227C23.1861 29.4633 21.1213 28.0695 18.8327 27.1059C16.8453 26.2628 14.7547 25.7724 12.6124 25.6347V20.834L6.43511 24.4044L0.257812 27.9663L6.43511 31.5367L12.6124 35.1072V30.4011C16.0108 30.6936 19.1597 32.1562 21.5944 34.591C22.8075 35.804 23.7797 37.1892 24.4852 38.6948C24.7089 37.9463 24.9756 37.1978 25.2853 36.4751C25.4574 36.0621 25.6467 35.6578 25.8446 35.2534C26.1543 34.634 26.4898 34.0317 26.8598 33.4467Z" fill="white"/>
</svg>
