<svg width="52" height="61" viewBox="0 0 52 61" fill="none" xmlns="http://www.w3.org/2000/svg">
<path d="M23.6909 26.119C23.9128 26.3171 24.1267 26.5232 24.3407 26.7371C24.8875 27.2839 25.4025 27.8624 25.878 28.4646C26.3534 27.8624 26.8685 27.2839 27.4153 26.7371C27.6292 26.5232 27.8432 26.3171 28.0651 26.119V11.594H32.4471L29.1586 5.90442L25.8701 0.214844L22.5815 5.90442L19.293 11.594H23.675V26.119H23.6909Z" fill="white"/>
<path d="M48.0188 23.1081L46.9807 22.5059L46.0457 21.9671L45.9427 21.9037L44.2548 20.929L40.2531 18.623V22.0067V23.0447C38.272 23.1715 36.3465 23.6311 34.5239 24.3998C32.4081 25.2952 30.5143 26.571 28.8898 28.1955C28.6045 28.4808 28.3351 28.7739 28.0657 29.0751C27.9864 29.1702 27.8993 29.2652 27.82 29.3603C27.5823 29.6456 27.3525 29.9388 27.1306 30.2399C27.1148 30.2637 27.0989 30.2795 27.0831 30.3033C26.877 30.5886 26.6789 30.8818 26.4888 31.175C26.2748 31.5078 26.0688 31.8485 25.8786 32.1972C25.5854 32.7281 25.3239 33.2749 25.0862 33.8296C24.999 34.0356 24.9198 34.2416 24.8405 34.4477C24.8168 34.519 24.7851 34.5824 24.7613 34.6537C24.4839 35.4144 24.2541 36.1989 24.0877 36.9834C24.0085 37.34 23.9451 37.7045 23.8896 38.069C23.8659 38.2117 23.85 38.3622 23.8262 38.5049C23.8183 38.5762 23.8104 38.6475 23.8025 38.7267C23.7866 38.8773 23.7708 39.0199 23.7549 39.1705C23.7311 39.4637 23.7074 39.7648 23.6994 40.058C23.6915 40.2799 23.6836 40.5018 23.6836 40.7316V60.9383H28.0578V40.7316C28.0578 40.4701 28.0578 40.2165 28.0815 39.9629C28.137 39.0199 28.2876 38.1007 28.5253 37.2132C28.5728 37.0547 28.6204 36.8883 28.6679 36.7298C28.7155 36.5872 28.7551 36.4446 28.8106 36.3099C28.8343 36.2385 28.8581 36.1672 28.8819 36.1038C29.0087 35.7552 29.1513 35.4144 29.3098 35.0816C29.9596 33.6949 30.855 32.4111 31.9723 31.3018C34.2149 29.0592 37.123 27.7121 40.2452 27.4427V28.4807V31.7693L44.2469 29.4633L45.9347 28.4887L46.0378 28.4253L46.9728 27.8864L48.0109 27.2842L51.6243 25.2001L48.0109 23.1161L48.0188 23.1081Z" fill="white"/>
<path d="M24.6266 30.2477C24.3334 29.8515 24.0244 29.4632 23.6916 29.0829C23.4301 28.7818 23.1527 28.4886 22.8674 28.2033C21.243 26.5788 19.3412 25.2951 17.2333 24.4076C15.4029 23.631 13.4773 23.1793 11.5041 23.0526V18.6309L5.81457 21.9194L0.125 25.2L5.81457 28.4886L11.5041 31.7771V27.4426C14.6342 27.712 17.5345 29.0591 19.777 31.3017C20.8943 32.419 21.7898 33.6948 22.4395 35.0815C22.6456 34.3921 22.8912 33.7027 23.1765 33.037C23.335 32.6567 23.5093 32.2843 23.6916 31.9118C23.9768 31.3413 24.2859 30.7866 24.6266 30.2477Z" fill="white"/>
</svg>
