<svg width="54" height="58" viewBox="0 0 54 58" fill="none" xmlns="http://www.w3.org/2000/svg">
<path fill-rule="evenodd" clip-rule="evenodd" d="M44.8074 27.0469H50.6148C51.9171 27.0469 52.9818 28.2524 52.9818 29.7306V57.6241H42.4228V29.7306C42.4228 28.2524 43.4963 27.0469 44.7986 27.0469H44.8074ZM30.9398 36.1101H36.7473C38.0584 36.1101 39.1231 37.254 39.1231 38.653V57.7913H28.5728V38.653C28.5728 37.254 29.6375 36.1101 30.9486 36.1101H30.9398ZM17.2131 42.5247H23.0117C24.314 42.5247 25.3875 43.6246 25.3875 44.9708V57.9409H14.8373V44.9708C14.8373 43.6246 15.902 42.5247 17.2131 42.5247ZM3.32792 46.2115H9.1354C10.4465 46.2115 11.5112 47.3114 11.5112 48.6665V57.9409H0.960938V48.6665C0.960938 47.3114 2.03444 46.2115 3.33672 46.2115H3.32792Z" fill="white"/>
<path d="M0.714844 38.9677C30.0338 38.0086 43.0214 10.4407 43.0214 10.4407L38.0675 6.73621L53.5101 0.902344L53.2285 18.4831L48.7585 15.1658C30.4561 44.7488 2.20191 39.2229 0.714844 38.9677Z" fill="white"/>
</svg>
