<svg width="65" height="61" viewBox="0 0 65 61" fill="none" xmlns="http://www.w3.org/2000/svg">
<path d="M19.4183 21.9923C25.8262 21.9923 30.8854 20.9404 34.1765 19.5724C35.0089 18.0172 36.0737 16.5782 37.3578 15.3134C37.7063 14.9649 38.0741 14.6358 38.4484 14.3196V9.69922C34.5636 12.5773 26.8393 14.1002 19.4441 14.1002C12.0489 14.1002 4.30526 12.5773 0.414062 9.69922V16.049C0.723809 18.5851 7.89316 21.9923 19.4183 21.9923Z" fill="white"/>
<path d="M19.4377 11.468C31.221 11.468 38.4548 8.20271 38.4548 5.86025C38.4548 3.51779 31.2145 0.246094 19.4377 0.246094C7.66085 0.246094 0.414062 3.51134 0.414062 5.8538C0.414062 8.19626 7.64794 11.4615 19.4312 11.4615L19.4377 11.468Z" fill="white"/>
<path d="M17.7908 34.9781C10.9183 34.7716 4.02642 33.2745 0.419156 30.6094V35.8041C0.419156 35.8041 0.419156 35.8428 0.412703 35.8622C0.412703 35.9009 0.412703 35.9331 0.40625 35.9719V36.7914C0.40625 39.0048 5.85263 41.9732 14.9902 42.7218C15.3257 39.8824 16.313 37.2496 17.7972 34.9781H17.7908Z" fill="white"/>
<path d="M19.4183 32.4409C19.5474 32.4409 19.6764 32.4409 19.799 32.4409C22.9223 29.1628 27.2652 27.1042 32.0728 27.0526C32.1567 25.5749 32.4212 24.1358 32.8471 22.7484C28.9495 23.9358 24.1161 24.5488 19.4183 24.5488C12.0296 24.5488 4.31171 23.0259 0.414062 20.1543V26.4977C0.723809 29.0337 7.89316 32.4345 19.4183 32.4345V32.4409Z" fill="white"/>
<path d="M49.4393 12.2031C41.1342 12.2031 34.352 18.9208 33.9648 27.3485C34.6747 27.4194 35.3652 27.5356 36.0492 27.6969C36.2621 20.2888 42.1731 14.352 49.4393 14.352C56.7054 14.352 62.8358 20.5082 62.8358 28.1099C62.8358 35.7116 56.8409 41.8678 49.4393 41.8678C49.3554 41.8678 49.2715 41.8678 49.1876 41.8678C49.3038 42.5712 49.3812 43.294 49.4199 44.0231C49.4264 44.0231 49.4328 44.0231 49.4393 44.0231C57.996 44.0231 64.9331 36.899 64.9331 28.1164C64.9331 19.3338 57.996 12.2096 49.4393 12.2096V12.2031Z" fill="white"/>
<path d="M32.2516 28.957C23.6948 28.957 16.7578 36.0812 16.7578 44.8638C16.7578 53.6464 23.6948 60.7706 32.2516 60.7706C40.8084 60.7706 47.7454 53.6464 47.7454 44.8638C47.7454 36.0812 40.8084 28.957 32.2516 28.957ZM32.2516 58.6217C24.8499 58.6217 18.8551 52.4655 18.8551 44.8638C18.8551 37.2621 24.8499 31.1059 32.2516 31.1059C39.6533 31.1059 45.6482 37.2621 45.6482 44.8638C45.6482 52.4655 39.6533 58.6217 32.2516 58.6217Z" fill="white"/>
<path d="M49.438 16.1348C42.9979 16.1348 37.7773 21.4973 37.7773 28.1052C37.7773 28.131 37.7773 28.1633 37.7773 28.1891C43.0882 30.0411 47.244 34.4937 48.7863 40.0563C48.9992 40.0692 49.2186 40.0756 49.438 40.0756C55.8782 40.0756 61.0987 34.7131 61.0987 28.1052C61.0987 21.4973 55.8782 16.1348 49.438 16.1348ZM53.5099 33.0611C53.5034 33.1708 53.4905 33.2612 53.4647 33.3322C53.4647 33.3386 53.4647 33.3515 53.4583 33.358C53.4196 33.4741 53.355 33.5709 53.2711 33.6548C53.1937 33.7323 53.0646 33.8226 52.8969 33.9258C52.7291 34.0291 52.5161 34.1259 52.2709 34.2162C52.0257 34.3066 51.7418 34.384 51.4191 34.4421C51.0965 34.5066 50.7415 34.5324 50.3673 34.5324C49.709 34.5324 49.1154 34.4356 48.5927 34.2485C48.07 34.0614 47.6118 33.7839 47.2246 33.4225C46.8374 33.0611 46.5212 32.6094 46.276 32.0803C46.0373 31.564 45.8566 30.9639 45.7469 30.2992H44.9661C44.6111 30.2992 44.3143 30.0153 44.3143 29.6539V29.6152V29.5894C44.3143 29.228 44.6111 28.9376 44.9661 28.9376H45.6501C45.6501 28.8279 45.6436 28.7182 45.6372 28.6021C45.6372 28.473 45.6372 28.3375 45.6372 28.2149C45.6372 28.06 45.6372 27.9051 45.6372 27.7438C45.6372 27.6018 45.6436 27.4728 45.6501 27.3502H44.9661C44.6111 27.3502 44.3143 27.0662 44.3143 26.7049V26.6662V26.6403C44.3143 26.279 44.6111 25.9886 44.9661 25.9886H45.8049C45.9276 25.3497 46.1082 24.756 46.347 24.2334C46.5922 23.6977 46.902 23.2331 47.2827 22.8589C47.6634 22.4846 48.1151 22.1813 48.6378 21.9748C49.1605 21.7683 49.7671 21.665 50.4511 21.665C50.7544 21.665 51.0577 21.6908 51.3481 21.7425C51.645 21.7941 51.916 21.8586 52.1548 21.9361C52.4 22.0135 52.6065 22.1038 52.7807 22.1942C52.9549 22.291 53.0775 22.3684 53.1485 22.4265C53.1614 22.4394 53.1743 22.4523 53.1873 22.4588C53.2582 22.5233 53.3163 22.6072 53.355 22.6975C53.3615 22.7233 53.3744 22.7491 53.3873 22.7879C53.4067 22.8524 53.4196 22.9363 53.4325 23.0266C53.4325 23.0266 53.4325 23.0266 53.4325 23.0331C53.4325 23.0654 53.4389 23.1041 53.4389 23.1428C53.4389 23.5042 53.1485 23.7945 52.7872 23.7945C52.671 23.7945 52.5613 23.7623 52.4581 23.7042C52.3935 23.6655 52.3161 23.6268 52.2451 23.5816C52.0451 23.4719 51.7934 23.3686 51.5095 23.2783C51.2255 23.188 50.8771 23.1428 50.477 23.1428C50.0769 23.1428 49.6897 23.2073 49.3799 23.3364C49.0702 23.4654 48.7927 23.6526 48.5604 23.9042C48.3281 24.1495 48.141 24.4592 47.9925 24.8141C47.8506 25.1561 47.7344 25.5498 47.657 25.9886H50.2705C50.6318 25.9886 50.9222 26.279 50.9222 26.6403V26.6662V26.7049C50.9222 27.0598 50.6254 27.3502 50.2705 27.3502H47.5021C47.4892 27.4663 47.4827 27.5889 47.4763 27.7116C47.4763 27.8471 47.4698 27.9955 47.4698 28.1568C47.4698 28.2988 47.4698 28.4343 47.4763 28.5698C47.4763 28.6924 47.4892 28.815 47.5021 28.9376H50.2705C50.6318 28.9376 50.9222 29.228 50.9222 29.5894V29.6152V29.6475C50.9222 30.0088 50.6254 30.2928 50.2705 30.2928H47.6312C47.7022 30.7122 47.8119 31.0994 47.9538 31.4285C48.1022 31.777 48.3023 32.0674 48.541 32.3061C48.7798 32.5384 49.0702 32.7191 49.3993 32.8417C49.7284 32.9643 50.122 33.0224 50.5609 33.0224C50.9739 33.0224 51.3288 32.9708 51.6192 32.874C51.916 32.7708 52.1677 32.661 52.3742 32.5384C52.4258 32.5062 52.4774 32.4804 52.5226 32.4481C52.7291 32.319 52.9937 32.319 53.2066 32.4481C53.4131 32.5772 53.5357 32.8095 53.5164 33.0547L53.5099 33.0611Z" fill="white"/>
<path d="M30.6395 40.2165C30.4459 40.3714 30.304 40.5585 30.2136 40.7779C30.1233 40.9973 30.0781 41.2361 30.0781 41.4942C30.0781 41.8943 30.1685 42.2234 30.3492 42.488C30.5298 42.7525 30.7751 42.9849 31.0719 43.172C31.2268 43.2688 31.3945 43.3591 31.5688 43.443V39.8164C31.5107 39.8293 31.4591 39.8422 31.4075 39.8551C31.0913 39.939 30.8331 40.0616 30.6395 40.2165Z" fill="white"/>
<path d="M33.6667 46.2245C33.4473 46.0825 33.2021 45.9599 32.9375 45.8438V49.8382C33.3311 49.7414 33.6602 49.5994 33.9184 49.3994C34.4023 49.0316 34.654 48.5218 34.654 47.8829C34.654 47.4957 34.5637 47.1602 34.383 46.9021C34.2023 46.6375 33.9635 46.4116 33.6667 46.218V46.2245Z" fill="white"/>
<path d="M32.2505 32.8926C25.8104 32.8926 20.5898 38.2551 20.5898 44.863C20.5898 51.4709 25.8104 56.8334 32.2505 56.8334C38.6907 56.8334 43.9112 51.4709 43.9112 44.863C43.9112 38.2551 38.6907 32.8926 32.2505 32.8926ZM36.2579 49.2446C36.0449 49.7028 35.7481 50.0835 35.3609 50.4126C34.9737 50.7353 34.4962 50.9999 33.9412 51.187C33.625 51.2967 33.2895 51.3806 32.9281 51.4387V52.8583C32.9281 53.2326 32.6248 53.5424 32.2441 53.5424C31.8633 53.5424 31.56 53.2391 31.56 52.8583V51.5161L30.734 51.4903C30.734 51.4903 30.6889 51.4903 30.6631 51.4903C30.3469 51.4516 30.05 51.3999 29.779 51.3354C29.5015 51.2709 29.2498 51.1999 29.0304 51.1225C28.811 51.045 28.6239 50.9676 28.469 50.8837C28.3851 50.8385 28.3142 50.7934 28.2496 50.7546C28.0818 50.6385 27.9721 50.4643 27.9399 50.2642C27.927 50.1932 27.9205 50.1093 27.9141 50.019C27.9012 49.7544 28.0302 49.5028 28.2561 49.3608C28.4819 49.2188 28.7594 49.1995 28.9982 49.3221C29.1014 49.3737 29.224 49.4318 29.3595 49.4898C29.6241 49.606 29.9532 49.7157 30.3404 49.8189C30.6824 49.9093 31.0954 49.9609 31.56 49.9674V45.347C31.5213 45.3341 31.4891 45.3212 31.4503 45.3083C31.0503 45.1663 30.6566 44.9985 30.2694 44.8178C29.8822 44.6307 29.5338 44.3984 29.2305 44.1209C28.9207 43.8434 28.682 43.5079 28.4948 43.1078C28.3077 42.7077 28.2109 42.2172 28.2109 41.6365C28.2109 41.1783 28.2883 40.7395 28.4497 40.3394C28.611 39.9329 28.8433 39.5909 29.166 39.2811C29.4822 38.9843 29.8887 38.7326 30.3662 38.5455C30.7211 38.4099 31.1148 38.3067 31.5536 38.2486V36.8741C31.5536 36.4998 31.8569 36.1901 32.2376 36.1901C32.6183 36.1901 32.9216 36.4934 32.9216 36.8741V38.2228L33.3863 38.2357C33.3863 38.2357 33.425 38.2357 33.4508 38.2357C33.6444 38.2551 33.8509 38.2938 34.0638 38.339C34.2832 38.3906 34.4962 38.4487 34.6898 38.5132C34.8834 38.5777 35.0641 38.6487 35.2254 38.7326C35.3028 38.7713 35.3673 38.81 35.419 38.8423C35.5997 38.952 35.7223 39.1327 35.761 39.3392C35.7674 39.3779 35.7739 39.4231 35.7803 39.4682C35.8191 39.7393 35.7029 40.0038 35.49 40.1652C35.277 40.3265 34.9866 40.3588 34.7414 40.2491C34.664 40.2168 34.5801 40.1781 34.4897 40.1394C34.2445 40.0361 33.9541 39.9458 33.6315 39.8554C33.4121 39.7974 33.1733 39.7586 32.9152 39.7393V43.9531C33.0378 43.9983 33.1539 44.037 33.2766 44.0822C33.6831 44.2306 34.0832 44.3919 34.4704 44.5726C34.864 44.7533 35.2125 44.9792 35.5222 45.2566C35.832 45.5341 36.0772 45.8697 36.2708 46.2698C36.4579 46.6699 36.5547 47.1603 36.5547 47.7411C36.5547 48.3218 36.445 48.7994 36.2385 49.2511L36.2579 49.2446Z" fill="white"/>
</svg>
