<svg width="67" height="67" viewBox="0 0 67 67" fill="none" xmlns="http://www.w3.org/2000/svg">
<path fill-rule="evenodd" clip-rule="evenodd" d="M33.3759 66.9393C15.1792 66.9393 0.378906 52.1391 0.378906 33.9423C0.378906 15.7456 15.1792 0.945312 33.3759 0.945312C51.5727 0.945312 66.3729 15.7456 66.3729 33.9423C66.3729 52.1391 51.5727 66.9393 33.3759 66.9393ZM33.3759 3.99864C16.8686 3.99864 3.43223 17.435 3.43223 33.9423C3.43223 50.4496 16.8598 63.886 33.3759 63.886C49.892 63.886 63.3196 50.4584 63.3196 33.9423C63.3196 17.4262 49.8832 3.99864 33.3759 3.99864Z" fill="white"/>
<path fill-rule="evenodd" clip-rule="evenodd" d="M47.5771 31.4707C47.5771 27.3966 47.5947 23.3226 47.5771 19.2486C47.5771 17.5679 46.5124 16.5384 44.9462 16.5912C43.5823 16.6352 42.5616 17.6031 42.544 19.0638C42.5 22.821 42.5 26.5695 42.544 30.3268C42.5528 30.9427 42.4648 31.3475 41.8665 31.4003C41.1361 31.4619 41.1625 30.8547 41.1625 30.3532C41.1801 24.9329 41.2241 19.5213 41.2329 14.101C41.2329 12.4996 40.3266 11.4613 38.8923 11.3469C37.3261 11.2237 36.0942 12.262 36.0854 13.8371C36.059 19.363 36.0678 24.8889 36.0854 30.4148C36.0854 30.9251 36.2174 31.5323 35.5134 31.5411C34.7919 31.5499 34.8007 30.9251 34.8007 30.3708C34.8007 24.1673 34.8007 17.9727 34.8007 11.7693C34.8007 10.2646 34.1496 9.28788 32.9969 8.97991C31.237 8.51355 29.7588 9.67504 29.75 11.5845C29.7324 15.5881 29.75 19.5917 29.75 23.5954C29.75 25.8656 29.7412 28.127 29.7764 30.3972C29.7852 30.9427 29.618 31.2331 29.0988 31.2419C28.5533 31.2419 28.4477 30.8987 28.4477 30.3884C28.4653 24.9681 28.4741 19.5477 28.4653 14.1274C28.4653 12.4116 27.3126 11.2325 25.8167 11.3645C24.576 11.4789 23.5905 12.4732 23.5817 13.7843C23.5729 18.7382 23.6257 23.701 23.6257 28.6549C23.6257 31.3387 23.7225 34.0224 23.5553 36.7062C23.5377 37.023 23.5553 37.3749 23.1506 37.4629C22.7018 37.5597 22.473 37.2429 22.3586 36.9086C21.8219 35.2983 20.9596 33.8377 20.4052 32.2274C19.8597 30.6435 19.0149 29.2005 17.4487 28.3645C16.7447 27.995 16.0144 27.7486 15.2049 27.9246C13.8674 28.215 13.2954 29.0685 13.7794 30.3356C15.9968 36.231 17.871 42.2497 19.8861 48.2155C20.7924 50.9169 22.297 53.3103 24.1713 55.4925C29.8116 62.0567 42.5 61.1152 46.0021 51.4625C47.0316 48.6291 47.5331 45.7166 47.5683 42.7248C47.6123 38.9676 47.5771 35.2191 47.5771 31.4619V31.4707Z" fill="white"/>
<path d="M14.2862 9.40523L9.30859 14.3828L52.8624 57.9366L57.84 52.9591L14.2862 9.40523Z" fill="white"/>
</svg>
