<svg width="64" height="58" viewBox="0 0 64 58" fill="none" xmlns="http://www.w3.org/2000/svg">
<path d="M57.0457 7.43016H53.0916V10.996C53.0916 13.5635 50.9996 15.6555 48.4321 15.6555H47.6952C45.1277 15.6555 43.0358 13.5635 43.0358 10.996V7.43016H20.1982V10.996C20.1982 13.5635 18.1062 15.6555 15.5388 15.6555H14.8018C12.2344 15.6555 10.1424 13.5635 10.1424 10.996V7.43016H6.29918C2.80461 7.43016 0.0390625 9.87081 0.0390625 13.3654V51.1955C0.0390625 54.6901 2.80461 57.939 6.29918 57.939H57.0537C60.5482 57.939 63.4326 54.6901 63.4326 51.1955V13.3575C63.4326 9.86288 60.5482 7.42223 57.0537 7.42223L57.0457 7.43016ZM58.0997 51.8928H5.36412V23.2548H58.0997V51.8928ZM17.4802 14.1023H12.8446C12.2106 14.1023 11.6876 13.5793 11.6876 12.9454V1.76435C11.6876 1.13042 12.2106 0.607422 12.8446 0.607422H17.4802C18.1142 0.607422 18.6372 1.13042 18.6372 1.76435V12.9454C18.6372 13.5793 18.1142 14.1023 17.4802 14.1023ZM50.3736 14.1023H45.7379C45.104 14.1023 44.581 13.5793 44.581 12.9454V1.76435C44.581 1.13042 45.104 0.607422 45.7379 0.607422H50.3736C51.0075 0.607422 51.5305 1.13042 51.5305 1.76435V12.9454C51.5305 13.5793 51.0075 14.1023 50.3736 14.1023ZM23.2094 26.6305C25.3569 26.6305 27.0368 27.3991 28.2492 28.9285C29.6914 30.7431 30.4125 33.7623 30.4125 37.97C30.4125 42.1778 29.6835 45.189 28.2334 47.0274C27.0289 48.5409 25.3569 49.3016 23.2094 49.3016C21.062 49.3016 19.3107 48.4696 17.9874 46.8134C16.664 45.1493 16.0063 42.1936 16.0063 37.9304C16.0063 33.6672 16.7353 30.7431 18.1855 28.9047C19.39 27.3912 21.062 26.6305 23.2094 26.6305ZM23.2094 30.1568C22.6943 30.1568 22.2347 30.3232 21.8306 30.6481C21.4265 30.9729 21.1174 31.5673 20.8955 32.4151C20.6024 33.5166 20.4597 35.3709 20.4597 37.97C20.4597 40.5691 20.5944 42.3679 20.8559 43.3347C21.1174 44.3094 21.4502 44.9592 21.8465 45.284C22.2427 45.6089 22.7023 45.7674 23.2173 45.7674C23.7324 45.7674 24.192 45.601 24.5961 45.2761C25.0003 44.9512 25.3093 44.3569 25.5312 43.509C25.8244 42.4155 25.967 40.5691 25.967 37.97C25.967 35.3709 25.8323 33.58 25.5708 32.6053C25.3093 31.6307 24.9765 30.9809 24.5803 30.6481C24.1841 30.3232 23.7245 30.1568 23.2094 30.1568ZM44.9455 48.9213H40.6902V32.8827C39.1371 34.3328 37.3066 35.4105 35.1908 36.1078V32.2487C36.3002 31.8842 37.5047 31.1948 38.8122 30.1805C40.1197 29.1662 41.0072 27.9855 41.4905 26.6305H44.9455V48.9213Z" fill="white"/>
</svg>
