<svg width="80" height="75" viewBox="0 0 80 75" fill="none" xmlns="http://www.w3.org/2000/svg">
<path d="M23.6727 27.3241C31.5414 27.3241 37.754 26.0325 41.7953 24.3525C42.8176 22.4428 44.125 20.6757 45.702 19.1226C46.1299 18.6947 46.5815 18.2905 47.0412 17.9022V12.2285C42.2708 15.7627 32.7855 17.6328 23.7044 17.6328C14.6233 17.6328 5.11423 15.7627 0.335938 12.2285V20.0259C0.716299 23.1401 9.52008 27.3241 23.6727 27.3241Z" fill="white"/>
<path d="M23.6965 14.3993C38.1661 14.3993 47.0491 10.3897 47.0491 7.51319C47.0491 4.63671 38.1581 0.619141 23.6965 0.619141C9.23481 0.619141 0.335938 4.62878 0.335938 7.50527C0.335938 10.3818 9.21896 14.3914 23.6885 14.3914L23.6965 14.3993Z" fill="white"/>
<path d="M21.6759 43.267C13.2366 43.0135 4.7736 41.175 0.343973 37.9023V44.2813C0.343973 44.2813 0.343973 44.3289 0.336049 44.3526C0.336049 44.4002 0.336049 44.4398 0.328125 44.4874V45.4937C0.328125 48.2117 7.01615 51.8569 18.2368 52.7761C18.6489 49.2894 19.8613 46.0563 21.6838 43.267H21.6759Z" fill="white"/>
<path d="M23.6727 40.1521C23.8312 40.1521 23.9897 40.1521 24.1402 40.1521C27.9755 36.1266 33.3085 33.5988 39.2121 33.5354C39.3151 31.7208 39.64 29.9537 40.163 28.25C35.3767 29.708 29.4415 30.4608 23.6727 30.4608C14.5995 30.4608 5.12215 28.5907 0.335938 25.0645V32.8539C0.716299 35.9681 9.52008 40.1442 23.6727 40.1442V40.1521Z" fill="white"/>
<path d="M60.5374 15.3027C50.3389 15.3027 42.0106 23.5518 41.5352 33.9008C42.4068 33.988 43.2547 34.1306 44.0947 34.3287C44.3562 25.2318 51.6147 17.9415 60.5374 17.9415C69.46 17.9415 76.988 25.5012 76.988 34.8359C76.988 44.1706 69.6264 51.7303 60.5374 51.7303C60.4344 51.7303 60.3314 51.7303 60.2283 51.7303C60.371 52.594 60.4661 53.4815 60.5136 54.3769C60.5215 54.3769 60.5295 54.3769 60.5374 54.3769C71.0449 54.3769 79.5634 45.6286 79.5634 34.8438C79.5634 24.059 71.0449 15.3107 60.5374 15.3107V15.3027Z" fill="white"/>
<path d="M39.4322 35.875C28.9248 35.875 20.4062 44.6233 20.4062 55.4081C20.4062 66.193 28.9248 74.9413 39.4322 74.9413C49.9397 74.9413 58.4582 66.193 58.4582 55.4081C58.4582 44.6233 49.9397 35.875 39.4322 35.875ZM39.4322 72.3025C30.3432 72.3025 22.9816 64.7428 22.9816 55.4081C22.9816 46.0734 30.3432 38.5138 39.4322 38.5138C48.5213 38.5138 55.8829 46.0734 55.8829 55.4081C55.8829 64.7428 48.5213 72.3025 39.4322 72.3025Z" fill="white"/>
<path d="M60.5378 20.127C52.6294 20.127 46.2188 26.712 46.2188 34.8263C46.2188 34.858 46.2188 34.8977 46.2188 34.9294C52.7404 37.2036 57.8436 42.6713 59.7374 49.502C59.9989 49.5178 60.2684 49.5257 60.5378 49.5257C68.4461 49.5257 74.8568 42.9407 74.8568 34.8263C74.8568 26.712 68.4461 20.127 60.5378 20.127ZM65.5379 40.9121C65.53 41.0468 65.5142 41.1578 65.4825 41.2449C65.4825 41.2529 65.4825 41.2687 65.4746 41.2766C65.427 41.4193 65.3478 41.5381 65.2447 41.6411C65.1497 41.7362 64.9912 41.8472 64.7851 41.974C64.5791 42.1007 64.3176 42.2196 64.0165 42.3306C63.7154 42.4415 63.3667 42.5366 62.9705 42.6079C62.5743 42.6871 62.1385 42.7188 61.6789 42.7188C60.8706 42.7188 60.1416 42.6 59.4997 42.3702C58.8578 42.1404 58.2952 41.7996 57.8198 41.3559C57.3443 40.9121 56.956 40.3574 56.6549 39.7076C56.3617 39.0737 56.1398 38.3368 56.0051 37.5206H55.0463C54.6105 37.5206 54.246 37.1719 54.246 36.7281V36.6806V36.6489C54.246 36.2052 54.6105 35.8486 55.0463 35.8486H55.8863C55.8863 35.7138 55.8783 35.5791 55.8704 35.4365C55.8704 35.278 55.8704 35.1116 55.8704 34.9611C55.8704 34.7709 55.8704 34.5807 55.8704 34.3826C55.8704 34.2083 55.8784 34.0498 55.8863 33.8992H55.0463C54.6105 33.8992 54.246 33.5505 54.246 33.1068V33.0592V33.0275C54.246 32.5838 54.6105 32.2272 55.0463 32.2272H56.0765C56.227 31.4427 56.4489 30.7137 56.7421 30.0718C57.0432 29.4141 57.4236 28.8436 57.8911 28.384C58.3586 27.9244 58.9133 27.5519 59.5552 27.2983C60.197 27.0448 60.9419 26.918 61.7819 26.918C62.1543 26.918 62.5267 26.9497 62.8833 27.0131C63.2478 27.0765 63.5807 27.1557 63.8739 27.2508C64.175 27.3459 64.4286 27.4568 64.6425 27.5678C64.8565 27.6866 65.007 27.7817 65.0942 27.853C65.11 27.8689 65.1259 27.8847 65.1417 27.8927C65.2289 27.9719 65.3002 28.0749 65.3478 28.1859C65.3557 28.2176 65.3715 28.2493 65.3874 28.2968C65.4112 28.376 65.427 28.4791 65.4429 28.59C65.4429 28.59 65.4429 28.59 65.4429 28.5979C65.4429 28.6375 65.4508 28.6851 65.4508 28.7326C65.4508 29.1764 65.0942 29.533 64.6504 29.533C64.5078 29.533 64.3731 29.4934 64.2463 29.422C64.1671 29.3745 64.072 29.3269 63.9848 29.2715C63.7391 29.1368 63.4301 29.01 63.0814 28.899C62.7328 28.7881 62.3049 28.7326 61.8136 28.7326C61.3223 28.7326 60.8468 28.8119 60.4665 28.9704C60.0861 29.1288 59.7454 29.3586 59.4601 29.6677C59.1748 29.9688 58.945 30.3492 58.7628 30.785C58.5884 31.205 58.4458 31.6884 58.3507 32.2272H61.56C62.0038 32.2272 62.3603 32.5838 62.3603 33.0275V33.0592V33.1068C62.3603 33.5426 61.9958 33.8992 61.56 33.8992H58.1605C58.1447 34.0418 58.1367 34.1924 58.1288 34.343C58.1288 34.5094 58.1209 34.6916 58.1209 34.8897C58.1209 35.0641 58.1209 35.2305 58.1288 35.3969C58.1288 35.5474 58.1447 35.698 58.1605 35.8486H61.56C62.0038 35.8486 62.3603 36.2052 62.3603 36.6489V36.6806V36.7202C62.3603 37.164 61.9958 37.5126 61.56 37.5126H58.319C58.4062 38.0277 58.5409 38.5032 58.7152 38.9073C58.8975 39.3352 59.1431 39.6918 59.4363 39.985C59.7295 40.2703 60.0861 40.4921 60.4902 40.6427C60.8944 40.7933 61.3777 40.8646 61.9166 40.8646C62.4237 40.8646 62.8596 40.8012 63.2162 40.6823C63.5807 40.5555 63.8897 40.4208 64.1433 40.2703C64.2067 40.2306 64.2701 40.1989 64.3255 40.1593C64.5791 40.0008 64.904 40.0008 65.1655 40.1593C65.4191 40.3178 65.5696 40.6031 65.5459 40.9042L65.5379 40.9121Z" fill="white"/>
<path d="M37.455 49.7022C37.2173 49.8924 37.043 50.1222 36.932 50.3916C36.8211 50.6611 36.7656 50.9543 36.7656 51.2712C36.7656 51.7625 36.8766 52.1667 37.0984 52.4916C37.3203 52.8164 37.6214 53.1017 37.9859 53.3315C38.1761 53.4504 38.3822 53.5613 38.5961 53.6643V49.2109C38.5248 49.2268 38.4614 49.2426 38.398 49.2585C38.0097 49.3615 37.6928 49.5121 37.455 49.7022Z" fill="white"/>
<path d="M41.1689 57.0789C40.8994 56.9045 40.5983 56.754 40.2734 56.6113V61.5164C40.7568 61.3975 41.1609 61.2232 41.4779 60.9776C42.0722 60.5259 42.3813 59.8999 42.3813 59.1154C42.3813 58.6399 42.2703 58.2279 42.0485 57.9109C41.8266 57.586 41.5334 57.3087 41.1689 57.0709V57.0789Z" fill="white"/>
<path d="M39.4362 40.707C31.5279 40.707 25.1172 47.292 25.1172 55.4064C25.1172 63.5208 31.5279 70.1058 39.4362 70.1058C47.3446 70.1058 53.7552 63.5208 53.7552 55.4064C53.7552 47.292 47.3446 40.707 39.4362 40.707ZM44.3571 60.7869C44.0956 61.3496 43.7311 61.8171 43.2557 62.2212C42.7802 62.6174 42.1938 62.9423 41.5124 63.1721C41.1241 63.3068 40.712 63.4099 40.2683 63.4812V65.2245C40.2683 65.6841 39.8958 66.0645 39.4283 66.0645C38.9608 66.0645 38.5883 65.692 38.5883 65.2245V63.5763L37.574 63.5446C37.574 63.5446 37.5186 63.5446 37.4869 63.5446C37.0986 63.497 36.7341 63.4336 36.4012 63.3544C36.0605 63.2751 35.7515 63.188 35.482 63.0929C35.2126 62.9978 34.9828 62.9027 34.7926 62.7997C34.6896 62.7442 34.6025 62.6888 34.5232 62.6412C34.3172 62.4986 34.1825 62.2846 34.1428 62.039C34.127 61.9518 34.1191 61.8488 34.1111 61.7378C34.0953 61.413 34.2538 61.1039 34.5311 60.9296C34.8085 60.7553 35.1492 60.7315 35.4424 60.882C35.5692 60.9454 35.7198 61.0167 35.8862 61.0881C36.2111 61.2307 36.6152 61.3654 37.0907 61.4922C37.5106 61.6031 38.0178 61.6665 38.5883 61.6745V56.0007C38.5408 55.9849 38.5012 55.969 38.4536 55.9532C37.9623 55.7789 37.4789 55.5728 37.0035 55.3509C36.528 55.1211 36.1001 54.8359 35.7277 54.4951C35.3473 54.1544 35.0541 53.7423 34.8243 53.251C34.5945 52.7597 34.4757 52.1575 34.4757 51.4443C34.4757 50.8817 34.5708 50.3429 34.7689 49.8516C34.967 49.3523 35.2522 48.9323 35.6484 48.552C36.0367 48.1875 36.536 47.8784 37.1223 47.6486C37.5582 47.4822 38.0416 47.3554 38.5804 47.2841V45.5963C38.5804 45.1367 38.9528 44.7563 39.4204 44.7563C39.8879 44.7563 40.2603 45.1287 40.2603 45.5963V47.2524L40.8309 47.2683C40.8309 47.2683 40.8784 47.2683 40.9101 47.2683C41.1478 47.292 41.4014 47.3396 41.6629 47.3951C41.9323 47.4584 42.1938 47.5298 42.4316 47.609C42.6693 47.6882 42.8912 47.7754 43.0893 47.8784C43.1844 47.926 43.2636 47.9735 43.327 48.0131C43.5489 48.1479 43.6994 48.3697 43.747 48.6233C43.7549 48.6709 43.7628 48.7263 43.7707 48.7818C43.8183 49.1146 43.6757 49.4395 43.4142 49.6376C43.1527 49.8357 42.7961 49.8753 42.495 49.7406C42.3999 49.701 42.2968 49.6535 42.1859 49.6059C41.8848 49.4791 41.5282 49.3682 41.132 49.2572C40.8626 49.1859 40.5694 49.1384 40.2524 49.1146V54.2891C40.403 54.3446 40.5456 54.3921 40.6962 54.4476C41.1954 54.6298 41.6867 54.828 42.1621 55.0498C42.6455 55.2717 43.0734 55.5491 43.4538 55.8898C43.8341 56.2305 44.1353 56.6426 44.373 57.1339C44.6028 57.6252 44.7216 58.2274 44.7216 58.9406C44.7216 59.6538 44.5869 60.2402 44.3334 60.7949L44.3571 60.7869Z" fill="white"/>
</svg>
