<svg width="67" height="56" viewBox="0 0 67 56" fill="none" xmlns="http://www.w3.org/2000/svg">
<path d="M39.5222 16.3606L33.6444 18.7452C31.6381 15.1815 29.104 12.1458 26.2882 9.93716C23.3141 7.61417 20.252 6.39108 17.4098 6.39108C16.2395 6.39108 15.122 6.60226 14.0837 7.02462C12.3239 7.73736 10.8368 9.01324 9.68413 10.8259C8.58423 12.5329 7.8275 14.6447 7.43153 17.0821C7.03557 19.5019 7.00917 22.1065 7.36114 24.8518C7.72191 27.6851 8.46984 30.5185 9.58734 33.2638C11.4528 37.8746 14.3037 42.0454 17.621 45.0196C20.9207 47.9849 24.5196 49.6128 27.7489 49.6128C28.9192 49.6128 30.0367 49.4016 31.075 48.9792C34.1459 47.7385 36.3985 44.694 37.428 40.4176C38.3871 36.4228 38.2111 31.636 36.9441 26.8756L42.8307 24.491C44.7401 31.0464 44.8985 37.6458 43.2619 43.1453C41.5812 48.7944 38.0968 52.9477 33.442 54.8307C31.6293 55.5698 29.6935 55.9394 27.7137 55.9394C18.2985 55.9394 8.67222 47.7737 3.75347 35.6308C0.779338 28.3099 -0.0125906 20.725 1.50967 14.2664C3.01433 7.87814 6.63961 3.22337 11.7079 1.17315C13.5206 0.442819 15.4476 0.0644531 17.4362 0.0644531C25.6371 0.0644531 34.2515 6.44387 39.5222 16.3606ZM23.5869 23.1976L26.7634 21.9129C24.6252 19.3347 21.7918 18.0852 19.46 19.0355C16.2307 20.3466 15.21 25.3358 17.1722 30.1841C19.1345 35.0325 23.3405 37.9098 26.5786 36.5987C28.928 35.6484 30.1071 32.7359 29.8167 29.357L26.6138 30.6505C24.5548 31.4864 22.2142 30.4921 21.3783 28.4243C20.5423 26.3653 21.5367 24.0159 23.5869 23.1888V23.1976ZM66.3686 18.226L56.9358 14.8207C56.4255 14.6095 56.1879 14.02 56.4079 13.5096L60.8251 4.53445C61.0451 4.02409 60.8075 3.78652 60.2971 3.9889L49.2013 8.48529C48.691 8.69647 48.0926 9.27722 47.8727 9.77877L44.6082 17.2845L24.4844 25.4326C23.6573 25.7669 23.2613 26.6996 23.5957 27.5268C23.93 28.3539 24.8628 28.7498 25.6899 28.4155L45.7609 20.285L53.4074 23.4615C53.9177 23.6727 54.7536 23.6815 55.264 23.4703L66.3598 18.9739C66.8701 18.7628 66.8701 18.4284 66.3598 18.2172L66.3686 18.226Z" fill="white"/>
</svg>
