<svg width="40" height="63" viewBox="0 0 40 63" fill="none" xmlns="http://www.w3.org/2000/svg">
<path d="M39.3889 0.746094H27.3344L20.543 14.4083L26.736 27.8687L39.3889 0.746094Z" fill="white"/>
<path d="M20.0331 28.8359C10.7471 28.8359 3.19141 36.4421 3.19141 45.793C3.19141 55.1438 10.7471 62.7716 20.0331 62.7716C29.3191 62.7716 36.8748 55.1583 36.8748 45.793C36.8748 36.4277 29.3191 28.8359 20.0331 28.8359ZM20.0331 59.1884C12.7009 59.1884 6.73854 53.1828 6.73854 45.793C6.73854 38.4031 12.7009 32.4263 20.0331 32.4263C27.3653 32.4263 33.3276 38.4247 33.3276 45.793C33.3276 53.1612 27.3653 59.1884 20.0331 59.1884Z" fill="white"/>
<path d="M20.0336 27.7029C22.0163 27.7029 23.934 28.0273 25.7148 28.6329L12.7231 0.746094H0.675781L13.7612 28.8348C15.7151 28.0994 17.8275 27.6957 20.0336 27.6957V27.7029Z" fill="white"/>
</svg>
