<svg width="39" height="49" viewBox="0 0 39 49" fill="none" xmlns="http://www.w3.org/2000/svg">
<path d="M11.7679 1.14949C13.1204 -0.0333548 19.3688 1.65339 22.2384 1.31923C25.108 0.979756 29.3302 0.81002 26.7948 2.83624C25.1186 4.17821 24.1851 6.25748 23.7926 8.05031H14.7435C14.054 6.92581 13.1894 5.69523 12.4415 5.19663C10.9245 4.18352 10.4153 2.32703 11.7679 1.14419V1.14949ZM31.3405 12.1134C31.5315 12.1717 31.7489 12.1558 31.9346 12.0497C32.2953 11.8482 32.4226 11.3867 32.221 11.026C30.9321 8.72925 28.9059 7.86997 27.4366 7.55171C28.7839 6.69773 31.3246 5.88088 35.202 7.69493C35.5786 7.86997 36.0242 7.70554 36.1992 7.33424C36.3742 6.95764 36.2151 6.51208 35.8385 6.33704C28.6141 2.94763 25.0921 7.63128 25.055 7.67901C24.8852 7.9124 24.864 8.22535 25.0019 8.47996C25.1398 8.73456 25.4104 8.88838 25.7021 8.87247C25.7392 8.87247 29.1923 8.71334 30.9109 11.7633C31.0116 11.9383 31.1655 12.055 31.3405 12.1134ZM38.7664 39.2286C38.7664 40.6661 38.6975 42.0823 38.5808 43.472C38.5596 43.6153 38.5437 43.7797 38.5384 43.9653C38.4959 44.3897 38.4482 44.8087 38.3951 45.2278C37.6154 48.6384 33.4887 48.771 33.4887 48.771H4.81929C2.06109 48.771 0.867635 46.2674 0.432687 44.9519C0.416774 44.9095 0.406166 44.8724 0.395557 44.8352C0.384949 44.7981 0.37434 44.761 0.363732 44.7238C0.315993 44.2783 0.268255 43.8274 0.231125 43.3766C0.114432 42.0187 0.0507812 40.6396 0.0507812 39.234C0.0507812 29.7234 2.75064 21.2207 6.99403 15.5611C7.04708 15.4922 7.09482 15.4232 7.14786 15.3596C7.40777 15.0254 7.66767 14.6965 7.93819 14.3783C7.99123 14.3146 8.04427 14.251 8.09732 14.1926C8.2034 14.0706 8.31479 13.9433 8.42618 13.8266C8.47922 13.7683 8.53757 13.7046 8.59061 13.6463C8.702 13.5296 8.81339 13.4076 8.92478 13.2909C9.2059 13.0045 9.49233 12.7234 9.78407 12.4581C9.90076 12.3521 10.0175 12.246 10.1341 12.1452C11.6671 10.8085 13.322 9.79541 15.0724 9.1589H23.7554C23.8509 9.19603 23.9464 9.22785 24.0419 9.26498C24.0631 9.27559 24.0843 9.2809 24.1055 9.2915C24.1957 9.32863 24.2912 9.36576 24.3813 9.4082C24.3973 9.4135 24.4079 9.41881 24.4238 9.42411C24.5086 9.46124 24.5935 9.49837 24.6784 9.5355C24.6943 9.5408 24.7102 9.55141 24.7261 9.55672C24.8216 9.59915 24.9118 9.64158 25.0019 9.68402C25.0179 9.68932 25.0338 9.69993 25.0497 9.71054C25.1398 9.75297 25.2353 9.80071 25.3255 9.84845C25.421 9.90149 25.5165 9.94923 25.6119 10.0023C25.6278 10.0076 25.6384 10.0182 25.6544 10.0235C25.8453 10.1296 26.0363 10.2357 26.2272 10.3524C26.2325 10.3524 26.2431 10.363 26.2484 10.363C26.3439 10.4213 26.4394 10.4797 26.5349 10.5433C26.5349 10.5433 26.5402 10.5433 26.5455 10.5486C26.7417 10.6759 26.938 10.8032 27.1289 10.9358C33.9714 15.6937 38.7611 26.5674 38.7611 39.234L38.7664 39.2286ZM26.8266 33.6433C26.8266 30.5986 25.543 29.0445 21.5277 27.6389C18.6793 26.5992 17.2206 25.5755 17.2206 24.5041C17.2206 23.5652 18.2125 22.5945 20.3872 22.5945C22.8007 22.5945 24.3707 23.3637 25.2088 23.7668L26.2113 19.9849C25.0762 19.4491 23.5645 18.9452 21.3208 18.8816V15.9377H18.0428V19.115C14.4624 19.7833 12.3831 22.0959 12.3831 25.0716C12.3831 28.3178 14.8284 29.994 18.4088 31.198C20.8858 32.0361 21.9891 32.837 21.9891 34.1101C21.9891 35.3831 20.6472 36.184 18.7429 36.184C16.5682 36.184 14.5897 35.4839 13.1841 34.7147L12.1816 38.6293C13.4546 39.3294 15.6293 39.9659 17.873 40.0349V43.2493H21.1511V39.8015C25.0338 39.1332 26.8213 36.619 26.8213 33.6433H26.8266Z" fill="white"/>
</svg>
