<svg width="81" height="70" viewBox="0 0 81 70" fill="none" xmlns="http://www.w3.org/2000/svg">
<path d="M70.7626 35.1453C70.826 35.1374 70.8814 35.1216 70.9369 35.1136C70.9527 35.1136 70.9765 35.1057 70.9924 35.0978C71.032 35.0899 71.0716 35.0819 71.1112 35.074C71.135 35.074 71.1588 35.0582 71.1826 35.0582C71.2142 35.0502 71.2539 35.0423 71.2856 35.0265C71.3093 35.0265 71.3331 35.0106 71.3569 35.0027C71.3886 34.9948 71.4203 34.9789 71.452 34.971C71.4757 34.9631 71.4995 34.9551 71.5233 34.9393C71.555 34.9314 71.5867 34.9155 71.6105 34.9076C71.6342 34.8997 71.658 34.8838 71.6818 34.8759C71.7135 34.8601 71.7372 34.8521 71.7689 34.8363C71.7927 34.8284 71.8165 34.8125 71.8403 34.7967C71.864 34.7808 71.8957 34.7729 71.9195 34.757C71.9433 34.7412 71.967 34.7333 71.9908 34.7174C72.0146 34.7016 72.0463 34.6857 72.0701 34.6699C72.0938 34.654 72.1176 34.6382 72.1414 34.6302C72.1652 34.6144 72.1889 34.5986 72.2127 34.5827C72.2365 34.5669 72.2602 34.551 72.284 34.5352C72.3078 34.5193 72.3316 34.5035 72.3553 34.4876C72.3791 34.4718 72.4029 34.4559 72.4187 34.4401C72.4425 34.4242 72.4663 34.4084 72.49 34.3846C72.5138 34.3688 72.5297 34.3529 72.5534 34.3291C72.5772 34.3133 72.5931 34.2895 72.6168 34.2737C72.6406 34.2578 72.6565 34.234 72.6802 34.2182C72.704 34.2023 72.7198 34.1786 72.7436 34.1627C72.7674 34.1469 72.7832 34.1231 72.7991 34.0993C72.8149 34.0756 72.8387 34.0597 72.8546 34.0359C72.8704 34.0122 72.8942 33.9963 72.91 33.9725C72.9259 33.9488 72.9496 33.9329 72.9655 33.9091C72.9813 33.8854 73.0051 33.8695 73.021 33.8458C73.0368 33.822 73.0527 33.7982 73.0764 33.7824C73.0923 33.7586 73.1081 33.7348 73.124 33.711C73.1398 33.6873 73.1557 33.6635 73.1715 33.6397C73.1874 33.616 73.2032 33.5922 73.2191 33.5684C73.2349 33.5446 73.2508 33.5209 73.2666 33.4971C73.2825 33.4733 73.2983 33.4495 73.3142 33.4258C73.33 33.402 73.3459 33.3782 73.3538 33.3545C73.3696 33.3307 73.3776 33.3069 73.3934 33.2831C73.4093 33.2594 73.4172 33.2356 73.433 33.2118C73.4489 33.188 73.4568 33.1643 73.4726 33.1326C73.4885 33.1088 73.4964 33.085 73.5123 33.0533C73.5202 33.0296 73.536 33.0058 73.544 32.9741C73.5519 32.9503 73.5677 32.9186 73.5757 32.8949C73.5836 32.8711 73.5994 32.8473 73.6074 32.8156C73.6153 32.7918 73.6311 32.7601 73.6391 32.7364C73.647 32.7126 73.6549 32.6888 73.6628 32.6571C73.6707 32.6254 73.6787 32.6017 73.6866 32.57C73.6866 32.5462 73.7024 32.5224 73.7104 32.4907C73.7183 32.459 73.7262 32.4273 73.7341 32.4035C73.7341 32.3798 73.75 32.356 73.75 32.3243C73.75 32.2926 73.7658 32.2609 73.7658 32.2292C73.7658 32.2054 73.7738 32.1817 73.7817 32.1579C73.7817 32.1262 73.7896 32.0945 73.7975 32.0549C73.7975 32.0311 73.7975 32.0073 73.8055 31.9836C73.8055 31.9519 73.8055 31.9122 73.8134 31.8806C73.8134 31.8568 73.8134 31.8409 73.8134 31.8172C73.8134 31.7775 73.8134 31.7379 73.8134 31.6983C73.8134 31.6824 73.8134 31.6587 73.8134 31.6428C73.8134 31.6032 73.8134 31.5557 73.8134 31.516C73.8134 31.5002 73.8134 31.4843 73.8134 31.4685C73.8134 31.421 73.8134 31.3655 73.8134 31.3179C73.8134 31.31 73.8134 31.3021 73.8134 31.2942C73.8134 31.2942 73.8134 31.2862 73.8134 31.2783C73.8134 31.2228 73.8055 31.1674 73.7975 31.1198C73.7975 31.0802 73.7896 31.0327 73.7817 30.993L69.566 3.504C69.566 3.46438 69.5264 3.26628 69.5185 3.22666C69.154 1.31692 67.3789 0.310552 65.4375 0.619595L10.6655 9.12226C8.73195 9.4313 7.39276 11.2142 7.63841 13.1478C7.63841 13.1874 7.64633 13.227 7.65426 13.2666L11.9096 40.5338C11.9096 40.5734 11.9254 40.613 11.9333 40.6526C11.9412 40.7081 11.9571 40.7636 11.965 40.8111C11.965 40.8111 11.965 40.819 11.965 40.827C11.965 40.8349 11.965 40.8428 11.965 40.8507C11.9809 40.8983 11.9888 40.9458 12.0046 40.9934C12.0046 41.0092 12.0126 41.0251 12.0205 41.0409C12.0363 41.0805 12.0443 41.1202 12.0601 41.1598C12.0601 41.1756 12.076 41.1994 12.0839 41.2153C12.0997 41.247 12.1077 41.2866 12.1235 41.3183C12.1314 41.342 12.1394 41.3579 12.1473 41.3817C12.1631 41.4134 12.1711 41.4451 12.1869 41.4768C12.1948 41.5005 12.2107 41.5243 12.2186 41.5481C12.2344 41.5798 12.2503 41.6035 12.2582 41.6352C12.2741 41.659 12.282 41.6828 12.2978 41.7066C12.3137 41.7303 12.3295 41.762 12.3454 41.7858C12.3612 41.8096 12.3771 41.8333 12.385 41.8571C12.4009 41.8809 12.4167 41.9047 12.4325 41.9284C12.4484 41.9522 12.4642 41.976 12.4801 41.9998C12.4959 42.0235 12.5118 42.0473 12.5276 42.0711C12.5435 42.0948 12.5593 42.1186 12.5752 42.1424C12.591 42.1662 12.6069 42.1899 12.6227 42.2058C12.6386 42.2296 12.6624 42.2533 12.6782 42.2771C12.694 42.3009 12.7099 42.3167 12.7337 42.3405C12.7495 42.3643 12.7733 42.3801 12.7891 42.4039C12.805 42.4277 12.8288 42.4435 12.8446 42.4594C12.8684 42.4831 12.8842 42.499 12.908 42.5228C12.9239 42.5386 12.9476 42.5624 12.9635 42.5782C12.9872 42.602 13.0031 42.6178 13.0269 42.6416C13.0506 42.6575 13.0665 42.6733 13.0823 42.6971C13.1061 42.7129 13.1299 42.7367 13.1537 42.7526C13.1774 42.7684 13.1933 42.7842 13.217 42.8001C13.2408 42.8159 13.2646 42.8397 13.2884 42.8556C13.3121 42.8714 13.328 42.8873 13.3518 42.9031C13.3755 42.919 13.3993 42.9348 13.4231 42.9507C13.4468 42.9665 13.4706 42.9824 13.4865 42.9982C13.5102 43.014 13.534 43.0299 13.5578 43.0457C13.5816 43.0616 13.6053 43.0695 13.6291 43.0854C13.6529 43.1012 13.6766 43.1171 13.7083 43.1329C13.7321 43.1488 13.7559 43.1567 13.7797 43.1725C13.8034 43.1884 13.8272 43.1963 13.8589 43.2122C13.8827 43.228 13.9065 43.2359 13.9302 43.2439C13.954 43.2597 13.9857 43.2676 14.0095 43.2835C14.0332 43.2914 14.057 43.3072 14.0887 43.3152C14.1125 43.3231 14.1442 43.3389 14.1679 43.3469C14.1917 43.3548 14.2234 43.3627 14.2472 43.3786C14.271 43.3865 14.3027 43.3944 14.3264 43.4103C14.3502 43.4182 14.3819 43.4261 14.4057 43.434C14.4294 43.442 14.4611 43.4499 14.4849 43.4578C14.5087 43.4657 14.5404 43.4737 14.5642 43.4816C14.5879 43.4816 14.6196 43.4974 14.6434 43.5054C14.6751 43.5054 14.6989 43.5212 14.7306 43.5212C14.7543 43.5212 14.786 43.5291 14.8098 43.537C14.8415 43.537 14.8653 43.545 14.897 43.5529C14.9207 43.5529 14.9524 43.5608 14.9762 43.5687C15.0079 43.5687 15.0396 43.5687 15.0634 43.5767C15.0872 43.5767 15.1189 43.5767 15.1426 43.5846C15.1743 43.5846 15.206 43.5846 15.2377 43.5846C15.2615 43.5846 15.2932 43.5846 15.317 43.5846C15.3487 43.5846 15.3804 43.5846 15.412 43.5846C15.4358 43.5846 15.4675 43.5846 15.4913 43.5846C15.523 43.5846 15.5626 43.5846 15.5943 43.5846C15.6181 43.5846 15.6418 43.5846 15.6656 43.5846C15.7052 43.5846 15.7449 43.5846 15.7845 43.5767C15.8083 43.5767 15.8241 43.5767 15.8479 43.5767C15.9033 43.5767 15.9667 43.5608 16.0222 43.5529L70.7309 35.1453H70.7626ZM70.8735 24.0594C69.5422 24.7725 68.2506 25.6838 67.054 26.7774C64.5738 29.0437 63.4961 31.6666 62.6165 34.4321L24.3347 40.5496C22.6468 38.1961 20.8163 36.0328 17.7576 34.6461C15.9826 33.8378 14.1679 33.3307 12.3929 33.1009L10.3881 20.5331C12.0046 19.7645 13.5736 18.7264 15.0158 17.411C17.504 15.1367 18.5817 12.5059 19.4613 9.74035L57.759 3.86059C59.4468 6.222 61.2456 8.15551 64.3123 9.54224C65.7941 10.2158 67.2997 10.6754 68.7815 10.9448L70.8735 24.0594ZM44.3512 24.9469C44.7554 25.2955 45.001 25.7235 45.0723 26.2148C45.1595 26.7694 45.0327 27.3083 44.6999 27.8075C44.375 28.2988 43.8044 28.7109 43.02 29.0199L42.6871 29.1467L41.9106 24.0831L42.3068 24.1545C43.2894 24.3367 43.955 24.5903 44.3591 24.939L44.3512 24.9469ZM38.2417 8.77359C30.6899 9.97015 25.5312 17.0544 26.7278 24.6061C27.9244 32.1579 35.0086 37.3166 42.5603 36.12C50.1121 34.9234 55.2628 27.8392 54.0742 20.2875C52.8777 12.7357 45.7934 7.57704 38.2417 8.77359ZM49.2642 27.4747C48.971 28.3147 48.5273 29.0595 47.9646 29.6776C47.3941 30.3036 46.7522 30.7949 46.0628 31.1436C45.9915 31.1832 45.9123 31.2149 45.833 31.2545C45.1516 31.6032 44.375 31.9994 43.4241 32.1817L43.1547 32.2371L43.3924 33.7824L41.0548 34.139L40.817 32.6096L40.5555 32.6254C39.2718 32.7047 38.1941 32.4828 37.3225 32.3005H37.2828C36.4508 32.1183 35.698 31.8092 35.0482 31.3813C34.3984 30.9455 33.8675 30.4463 33.4634 29.8995C33.1068 29.4082 32.7898 28.7901 32.5204 28.0769L37.3225 26.7536C37.6156 27.5302 37.9168 28.0849 38.2417 28.4256C38.6062 28.8139 39.1609 29.1229 39.882 29.3448L40.3178 29.4795L39.4858 24.0673L39.2718 24.0435C37.4017 23.8216 36.0546 23.5839 35.2542 23.3462C34.4935 23.1085 33.7724 22.6409 33.1306 21.9595C32.4887 21.278 32.0846 20.3746 31.9102 19.2732C31.6725 17.7438 32.0053 16.4204 32.9166 15.2239C33.6219 14.2968 34.9848 13.0923 37.4413 12.5772L37.7028 12.5217L37.4889 11.1033L39.8265 10.7467L40.0405 12.1572L40.3099 12.1335C42.5286 11.9353 44.0976 12.498 45.0168 13.013C46.0628 13.5915 46.8553 14.479 47.3783 15.6597L42.9883 17.0623C42.6713 16.5393 42.4019 16.1827 42.1641 15.9688C41.8947 15.7231 41.4985 15.5171 40.9517 15.319L40.5001 15.1605L41.2053 19.7328L41.4193 19.7565C44.2086 20.0576 46.1262 20.5331 47.1247 21.175C48.448 22.0387 49.2087 23.2353 49.4544 24.8359C49.597 25.7631 49.5178 26.6585 49.2246 27.4905L49.2642 27.4747ZM37.8454 15.6993L38.1941 15.525L38.8439 19.7645L38.4477 19.6931C37.7979 19.5743 37.3066 19.3682 36.9976 19.0671C36.6806 18.766 36.4825 18.3856 36.4112 17.926C36.3399 17.4823 36.4112 17.0702 36.633 16.7057C36.847 16.3412 37.2432 16.0163 37.8454 15.7073V15.6993ZM23.8751 24.2575C23.994 25.0499 23.4551 25.7868 22.6627 25.9057L16.4501 26.8645C15.6577 26.9834 14.9207 26.4446 14.8019 25.6521C14.683 24.8597 15.2219 24.1228 16.0143 24.0039L22.2269 23.0451C23.0193 22.9262 23.7562 23.4651 23.8751 24.2575ZM65.7466 17.8151C65.8654 18.6075 65.3266 19.3445 64.5342 19.4633L58.3216 20.4222C57.5292 20.541 56.7922 20.0022 56.6733 19.2098C56.5545 18.4173 57.0933 17.6804 57.8857 17.5615L64.0983 16.6027C64.8907 16.4838 65.6277 17.0227 65.7466 17.8151Z" fill="white"/>
<path d="M77.7191 53.822C75.8014 54.9789 73.8838 56.1438 71.9661 57.3007C69.9851 58.4972 68.004 59.6938 66.023 60.8904C63.6299 62.3326 61.1575 64.068 58.6059 65.6132C56.4664 66.9127 55.4362 67.7923 53.1937 68.5531C48.2252 70.2488 41.2361 67.9191 36.3944 66.6909C31.4735 65.4071 26.9171 63.8699 21.798 64.2344C20.3004 64.3453 20.0626 65.1219 19.2623 63.8461C18.4936 62.6337 17.7329 61.4213 16.9643 60.2009C16.362 59.2421 15.7598 58.2833 15.1576 57.3245C14.5157 56.2943 13.8659 55.2721 13.2082 54.2578C15.95 54.4955 19.3415 52.1737 22.0675 51.5398C25.3085 50.7632 28.597 50.058 31.941 50.47C35.0552 50.8504 38.6132 51.8805 41.6085 52.7839C44.3899 53.6239 47.2664 53.9091 50.1112 54.4876C52.0288 54.8759 56.3634 55.1374 57.6075 56.9283C58.8674 58.7508 58.1463 60.819 56.506 61.35C52.0764 62.7763 44.3186 61.3579 39.7463 61.3183C44.485 62.2771 52.1556 63.7272 56.9656 62.6099C59.9451 61.9126 60.5949 57.8554 58.2573 55.5415C59.2874 55.1849 60.2383 54.7808 61.1496 54.3608C62.5759 53.6952 63.9072 52.9741 65.2781 52.2688C66.6807 51.5556 68.1308 50.8583 69.779 50.2799C71.871 49.535 74.0502 48.5365 76.3165 48.6633C79.8982 48.8614 82.2834 51.1594 77.7112 53.822H77.7191ZM19.397 67.7765C19.2147 68.5372 13.7391 69.5198 13.018 69.6783C10.9023 70.13 9.93551 70.1934 8.70726 68.2282C7.20166 65.8113 5.69606 63.7827 4.19046 61.3658C3.54068 60.3277 1.44869 57.166 1.05248 55.9377C0.291759 55.0898 6.5281 53.8616 7.25713 53.711C9.34119 53.2594 10.5298 53.0058 11.7581 55.0185C13.2874 57.5226 14.8168 60.0266 16.3541 62.5307C16.7979 63.2597 19.1038 66.6037 19.3891 67.7923C19.4208 67.935 19.4525 67.618 19.3891 67.7923L19.397 67.7765ZM13.9927 65.1298C13.9927 63.0537 10.7834 63.0537 10.7834 65.1298C10.7834 67.2059 13.9927 67.2059 13.9927 65.1298Z" fill="white"/>
</svg>
