<svg width="57" height="77" viewBox="0 0 57 77" fill="none" xmlns="http://www.w3.org/2000/svg">
<path d="M12.4134 43.8798C19.7671 43.8798 23.9352 41.661 23.9352 40.0683C23.9352 38.8083 21.7877 37.1522 16.9461 36.5182V40.9637H8.20567V36.4707C3.1738 37.0809 0.542969 38.7766 0.542969 40.0683C0.542969 41.661 5.05976 43.8798 12.4134 43.8798Z" fill="white"/>
<path d="M12.4055 50.4011C19.7591 50.4011 23.9352 48.1823 23.9352 46.5896V42.7305C21.5104 44.5293 17.0332 45.4722 12.4213 45.4722C7.80946 45.4722 2.96777 44.5293 0.542969 42.7305V46.6926C0.733149 48.2774 5.21032 50.4011 12.3976 50.4011H12.4055Z" fill="white"/>
<path d="M0.542969 55.7812V59.0222C0.542969 59.0222 0.542969 59.046 0.542969 59.0619C0.542969 59.0856 0.542969 59.1094 0.542969 59.1332V59.6403C0.542969 61.2331 5.05976 63.4519 12.4134 63.4519C13.6179 63.4519 14.7352 63.3885 15.7812 63.2855V58.3566C14.6718 58.4676 13.5387 58.523 12.4134 58.523C7.80153 58.523 2.98362 57.58 0.558817 55.7812H0.542969Z" fill="white"/>
<path d="M0.550781 62.3027V65.5437C0.550781 65.5437 0.550781 65.5675 0.550781 65.5834C0.550781 65.6071 0.550781 65.6309 0.550781 65.6547V66.1618C0.550781 67.7546 5.06757 69.9734 12.4212 69.9734C13.6178 69.9734 14.743 69.91 15.7811 69.807V64.8781C14.6717 64.989 13.5385 65.0445 12.4212 65.0445C7.80935 65.0445 2.99143 64.1015 0.56663 62.3027H0.550781Z" fill="white"/>
<path d="M44.1236 43.1102C51.4772 43.1102 55.994 40.8914 55.994 39.2986V35.4396C53.5692 37.2384 48.7513 38.1813 44.1315 38.1813C39.5117 38.1813 35.2881 37.2304 32.8633 35.4316V39.3937C33.0535 40.9786 36.9284 43.1023 44.1156 43.1023L44.1236 43.1102Z" fill="white"/>
<path d="M48.8622 33.9105H40.1218V29.1719C35.1454 29.7583 32.8633 31.4699 32.8633 32.7774C32.8633 34.3702 36.7778 36.5889 44.1315 36.5889C51.4851 36.5889 56.0019 34.3702 56.0019 32.7774C56.0019 31.5333 53.5851 29.9088 48.8702 29.259V33.9105H48.8622Z" fill="white"/>
<path d="M42.5312 57.7159V62.6448C43.0463 62.6686 43.5772 62.6844 44.1319 62.6844C51.4856 62.6844 56.0024 60.4656 56.0024 58.8729V55.0059C53.5855 56.8047 48.7597 57.7556 44.1319 57.7556C43.601 57.7556 43.0701 57.7397 42.5312 57.7159Z" fill="white"/>
<path d="M44.1274 49.6336C51.481 49.6336 55.9978 47.4149 55.9978 45.8221V41.9551C53.5809 43.7539 48.7551 44.7127 44.1274 44.7127C39.4996 44.7127 35.2998 43.7618 32.875 41.9709V45.933C33.0652 47.5179 36.9401 49.6416 44.1274 49.6416V49.6336Z" fill="white"/>
<path d="M42.5353 53.556C42.5353 53.556 42.5353 53.6194 42.5353 53.6431V56.1155C43.0504 56.1393 43.5813 56.1551 44.128 56.1551C51.4817 56.1551 55.9985 53.9363 55.9985 52.3436V48.4766C53.5816 50.2754 48.7558 51.2263 44.128 51.2263C43.1296 51.2263 42.1232 51.1787 41.1406 51.0915C41.9885 51.7651 42.456 52.5258 42.5274 53.342C42.5274 53.3737 42.5274 53.4054 42.5274 53.4371C42.5274 53.4688 42.5274 53.5084 42.5274 53.548L42.5353 53.556Z" fill="white"/>
<path d="M32.8285 49.9102V54.6726H24.0881V50.0845C19.5713 50.766 17.2812 52.3429 17.2812 53.5553C17.2812 55.1481 21.798 57.3668 29.1517 57.3668C36.5054 57.3668 41.0221 55.1481 41.0221 53.5553C41.0221 52.224 38.1853 50.449 32.8285 49.9102Z" fill="white"/>
<path d="M42.5273 64.253V65.0058V69.1819C43.0424 69.2057 43.5813 69.2215 44.128 69.2215C51.4817 69.2215 55.9985 67.0027 55.9985 65.41V61.543C53.5816 63.3418 48.7558 64.2927 44.128 64.2927C43.5971 64.2927 43.0583 64.2768 42.5273 64.253Z" fill="white"/>
<path d="M17.2892 56.2189V60.181C17.4794 61.7658 21.9565 63.8895 29.1438 63.8895C36.331 63.8895 41.0142 61.6707 41.0142 60.0779V56.2189C38.5894 58.0177 33.7715 58.9606 29.1517 58.9606C24.5319 58.9606 19.7061 58.0097 17.2812 56.2109L17.2892 56.2189Z" fill="white"/>
<path d="M17.2852 69.2677V72.5087C17.2852 72.5087 17.2852 72.5325 17.2852 72.5483C17.2852 72.5721 17.2852 72.5959 17.2852 72.6196V73.1268C17.2852 74.7195 21.8019 76.9383 29.1556 76.9383C36.5093 76.9383 41.0261 74.7195 41.0261 73.1268V69.2598C38.6092 71.0586 33.7833 72.0095 29.1556 72.0095C24.5279 72.0095 19.7258 71.0665 17.301 69.2677H17.2852Z" fill="white"/>
<path d="M0.542969 49.2617V53.2238C0.733149 54.8087 5.21032 56.9323 12.3976 56.9323C13.602 56.9323 14.7194 56.8689 15.7654 56.7659V53.5329C15.7654 53.4695 15.7654 53.4061 15.7733 53.3427C15.8208 52.7801 16.0585 52.2571 16.4785 51.7578C15.1473 51.9242 13.7605 52.0035 12.3976 52.0035C7.78569 52.0035 2.96777 51.0526 0.542969 49.2617Z" fill="white"/>
<path d="M17.2852 62.7482V66.7103C17.4753 68.2951 21.9525 70.4188 29.1398 70.4188C36.327 70.4188 41.0102 68.2 41.0102 66.6072V62.7402C38.5933 64.539 33.7675 65.4979 29.1398 65.4979C24.512 65.4979 19.71 64.547 17.2852 62.7561V62.7482Z" fill="white"/>
<path d="M25.4893 53.6183H31.4325V27.0881H35.561L31.9159 20.7725L28.2707 14.4648L24.6256 20.7725L20.9805 27.0881H25.4893V53.6183Z" fill="white"/>
<path d="M9.61032 39.9178H15.5535V19.7111H19.682L16.0368 13.3956L12.3917 7.08789L8.74658 13.3956L5.10938 19.7111H9.61032V39.9178Z" fill="white"/>
<path d="M41.5284 32.8573H47.4715V12.6506H51.6001L47.9549 6.335L44.3098 0.0273438L40.6647 6.335L37.0195 12.6506H41.5284V32.8573Z" fill="white"/>
</svg>
