<svg width="130" height="42" viewBox="0 0 130 42" fill="none" xmlns="http://www.w3.org/2000/svg">
<g clip-path="url(#clip0_1_32612)">
<path d="M31.7151 32.1271C31.8623 31.7681 32.0748 31.4254 32.3365 31.1071C32.5981 30.7889 32.9497 30.5359 33.383 30.3401C33.8164 30.1524 34.2987 30.0545 34.8384 30.0545C35.4107 30.0545 35.9094 30.1524 36.3509 30.3482C36.7924 30.5441 37.144 30.8052 37.4057 31.1235C37.6673 31.4499 37.8635 31.7926 37.9943 32.1516C38.1252 32.5107 38.2069 32.8779 38.2233 33.2532H31.4371C31.4698 32.8616 31.5597 32.4944 31.7151 32.1271ZM30.5296 38.7776C31.7151 39.9445 33.2195 40.5321 35.0346 40.5321C36.0075 40.5321 36.9151 40.3852 37.7491 40.0833C38.5912 39.7895 39.3025 39.357 39.8994 38.794L38.722 37.0803C38.305 37.4965 37.7899 37.8148 37.1604 38.0514C36.5308 38.2799 35.9176 38.4023 35.3044 38.4023C34.2088 38.4023 33.3176 38.084 32.639 37.4557C31.9604 36.8274 31.5679 36.0358 31.4616 35.0893H40.7415V34.4691C40.7415 32.5596 40.2019 30.9929 39.1226 29.7689C38.0434 28.5449 36.6126 27.9328 34.8384 27.9328C33.6855 27.9328 32.639 28.2103 31.6987 28.7733C30.7585 29.3364 30.039 30.0953 29.5239 31.0582C29.0088 32.0129 28.7553 33.0737 28.7553 34.2161C28.7553 36.093 29.344 37.6189 30.5296 38.7858M17.9711 40.2383V31.866C18.3145 31.4091 18.756 31.0337 19.3038 30.7154C19.8516 30.4054 20.4403 30.2503 21.0616 30.2503C21.8547 30.2503 22.4597 30.438 22.8767 30.8052C23.2937 31.1724 23.5063 31.8007 23.5063 32.682V40.2465H26.1226V31.7518C26.1226 30.5033 25.7956 29.5567 25.1497 28.9121C24.5038 28.2674 23.5308 27.941 22.2472 27.941C21.3641 27.941 20.5465 28.1287 19.7943 28.5122C19.0421 28.8957 18.4371 29.3527 17.9792 29.8831V23.6733H15.3629V40.2546H17.9792L17.9711 40.2383ZM5.03648 26.2029V40.222H7.95535V26.2029H12.9755V23.6406H0V26.2029H5.03648Z" fill="black"/>
<path d="M122.102 40.0446C123.001 40.371 123.958 40.526 124.988 40.526C126.558 40.526 127.792 40.1752 128.676 39.4734C129.559 38.7716 130 37.874 130 36.7806C130 36.2093 129.894 35.7116 129.689 35.2709C129.485 34.8303 129.207 34.4876 128.872 34.2264C128.528 33.9735 128.144 33.745 127.703 33.5491C127.269 33.3533 126.82 33.1983 126.37 33.0922C125.92 32.9861 125.479 32.8719 125.045 32.7658C124.612 32.6597 124.22 32.5618 123.868 32.4802C123.525 32.3986 123.247 32.268 123.034 32.0885C122.821 31.909 122.723 31.6968 122.723 31.4438C122.723 31.0113 122.928 30.6605 123.328 30.3912C123.737 30.1137 124.277 29.975 124.955 29.975C125.683 29.975 126.37 30.1056 127.008 30.3749C127.645 30.6441 128.152 30.995 128.52 31.4194L129.616 29.5833C128.332 28.4654 126.77 27.9023 124.931 27.9023C123.467 27.9023 122.306 28.2532 121.464 28.955C120.622 29.6568 120.197 30.5136 120.197 31.5418C120.197 32.1701 120.328 32.7087 120.598 33.1575C120.867 33.6063 121.211 33.9572 121.636 34.202C122.061 34.4468 122.535 34.6344 123.067 34.7732C123.598 34.9119 124.113 35.0506 124.62 35.1812C125.127 35.3117 125.593 35.4341 126.026 35.5484C126.452 35.6626 126.803 35.8258 127.065 36.0298C127.335 36.242 127.465 36.5031 127.465 36.8214C127.465 37.3028 127.261 37.7026 126.852 37.9964C126.443 38.2983 125.855 38.4452 125.094 38.4452C124.334 38.4452 123.598 38.2739 122.838 37.9393C122.077 37.6047 121.472 37.2049 121.023 36.7398L119.821 38.6411C120.434 39.2367 121.194 39.7019 122.086 40.0283M114.842 40.2078V32.0314C115.103 31.607 115.545 31.2398 116.166 30.9216C116.787 30.6033 117.376 30.4401 117.932 30.4401C118.267 30.4401 118.537 30.4646 118.758 30.5136V27.9268C118.006 27.9268 117.286 28.1145 116.591 28.498C115.904 28.8816 115.316 29.3712 114.842 29.9669V28.2043H112.225V40.2078H114.842ZM100.582 32.1048C100.73 31.7458 100.942 31.403 101.204 31.0848C101.465 30.7665 101.817 30.5136 102.25 30.3177C102.684 30.1301 103.166 30.0321 103.706 30.0321C104.278 30.0321 104.777 30.1301 105.218 30.3259C105.66 30.5217 106.011 30.7829 106.273 31.1011C106.535 31.4275 106.731 31.7702 106.862 32.1293C106.992 32.4883 107.074 32.8555 107.091 33.2309H100.304C100.337 32.8392 100.427 32.472 100.582 32.1048ZM99.3969 38.7553C100.582 39.9222 102.079 40.5097 103.902 40.5097C104.875 40.5097 105.782 40.3628 106.616 40.0609C107.459 39.7672 108.17 39.3347 108.767 38.7716L107.589 37.058C107.172 37.4742 106.657 37.7924 106.028 38.0291C105.398 38.2575 104.785 38.3799 104.172 38.3799C103.076 38.3799 102.185 38.0617 101.506 37.4334C100.828 36.805 100.435 36.0135 100.329 35.0669H109.609V34.4468C109.609 32.5373 109.069 30.9706 107.99 29.7465C106.911 28.5225 105.48 27.9105 103.706 27.9105C102.553 27.9105 101.506 28.1879 100.566 28.751C99.6258 29.314 98.9063 30.0729 98.3912 31.0358C97.8761 31.9906 97.6227 33.0514 97.6227 34.1938C97.6227 36.0706 98.2114 37.5966 99.3969 38.7635" fill="black"/>
<path d="M58.4019 0.613281L51.4276 20.4097H58.966C62.3673 20.4097 64.9673 21.1197 66.7578 22.5314C68.344 23.7554 69.1371 25.3466 69.1371 27.3132C69.1371 29.443 68.3849 31.4259 66.8723 33.2538C65.2861 35.1551 63.3648 36.2485 61.1163 36.5341C61.4352 35.7263 61.5987 34.9103 61.5987 34.1024C61.5987 32.2337 60.8629 30.6344 59.3912 29.3124C57.9195 27.9823 56.1289 27.3213 54.0358 27.3213C51.9427 27.3213 50.2176 27.9823 48.7541 29.3124C47.2905 30.6425 46.5547 32.2419 46.5547 34.1024C46.5547 35.8568 47.2088 37.3746 48.5088 38.6558C49.8088 39.9369 51.444 40.7121 53.4144 40.9732C55.1314 41.2343 56.8402 41.3731 58.5409 41.3731C66.4717 41.3731 72.6528 39.1046 77.0761 34.5594C79.7742 31.8094 81.1151 28.8555 81.0987 25.7056C81.0578 22.7843 79.8232 20.3118 77.3868 18.2963C75.122 16.4276 71.7861 15.4973 67.3874 15.4973H63.3893L65.883 8.68364H80.4446L83.8786 0.613281H58.4019Z" fill="black"/>
<path d="M106.118 0.613281L81.2622 40.402H87.893L113.059 0.613281H106.118Z" fill="black"/>
<path d="M91.3842 12.5425C94.8509 12.5425 97.6716 9.73537 97.6716 6.26732C97.6716 2.79927 94.8591 -0.0078125 91.3842 -0.0078125C87.9094 -0.0078125 85.0968 2.79927 85.0968 6.26732C85.0968 9.73537 87.9094 12.5425 91.3842 12.5425Z" fill="black"/>
</g>
<defs>
<clipPath id="clip0_1_32612">
<rect width="130" height="41.3636" fill="white"/>
</clipPath>
</defs>
</svg>
