<svg width="61" height="61" viewBox="0 0 61 61" fill="none" xmlns="http://www.w3.org/2000/svg">
<path d="M59.7177 41.4706H58.9277V3.15062H59.7177C60.3377 3.15062 60.8477 2.64062 60.8477 2.02062C60.8477 1.40062 60.3477 0.890625 59.7177 0.890625H1.96766C1.34766 0.890625 0.847656 1.40062 0.847656 2.02062C0.847656 2.64062 1.34766 3.15062 1.96766 3.15062H2.75766V41.4806H1.96766C1.34766 41.4806 0.847656 41.9906 0.847656 42.6106C0.847656 43.2306 1.34766 43.7406 1.96766 43.7406H20.7677L15.9077 58.8706C15.7177 59.4606 16.0377 60.1006 16.6377 60.2906C16.7477 60.3306 16.8677 60.3506 16.9777 60.3506C17.4477 60.3506 17.8977 60.0406 18.0477 59.5706L23.1277 43.7406H38.5577L39.6077 47.0006L43.6477 59.5706C43.8377 60.1606 44.4677 60.4906 45.0677 60.3006C45.6577 60.1106 45.9777 59.4706 45.7877 58.8806L40.9277 43.7506H59.7277C60.3477 43.7506 60.8577 43.2406 60.8577 42.6206C60.8577 42.0006 60.3577 41.4906 59.7277 41.4906L59.7177 41.4706ZM4.34766 39.8806V4.74062H57.3377V39.8806H4.35766H4.34766ZM51.4477 35.9406H45.4277V13.9706H51.4477V35.9406ZM42.6777 35.9406H36.6677V25.4906H42.6777V35.9406ZM33.9077 35.9406H27.8977V17.4006H33.9077V35.9406ZM25.1377 35.9406H19.1277V24.0806H25.1377V35.9406ZM16.3677 35.9406H10.3577V22.1706H16.3677V35.9406ZM51.4577 12.8406H45.4377V10.7306H51.4577V12.8406ZM33.9177 16.4306H27.9077V14.3206H33.9177V16.4306ZM25.1477 23.1406H19.1377V21.0306H25.1477V23.1406ZM16.3777 21.1906H10.3677V19.0806H16.3777V21.1906ZM42.6877 24.5106H36.6777V22.4006H42.6877V24.5106Z" fill="black"/>
</svg>
