<svg width="66" height="54" viewBox="0 0 66 54" fill="none" xmlns="http://www.w3.org/2000/svg">
<path d="M42.8927 22.2303C42.8927 28.9503 38.3227 34.3903 32.6827 34.3903C27.0427 34.3903 22.4727 28.9503 22.4727 22.2303C22.4727 15.5103 27.0427 10.0703 32.6827 10.0703C38.3227 10.0703 42.8927 15.5203 42.8927 22.2303Z" fill="black"/>
<path d="M24.1014 22.7991C24.1014 24.1491 23.3914 25.2291 22.5214 25.2291C21.6514 25.2291 20.9414 24.1391 20.9414 22.7991C20.9414 21.4591 21.6514 20.3691 22.5214 20.3691C23.3914 20.3691 24.1014 21.4591 24.1014 22.7991Z" fill="black"/>
<path d="M44.7047 22.7991C44.7047 24.1491 43.9947 25.2291 43.1347 25.2291C42.2747 25.2291 41.5547 24.1391 41.5547 22.7991C41.5547 21.4591 42.2647 20.3691 43.1347 20.3691C44.0047 20.3691 44.7047 21.4591 44.7047 22.7991Z" fill="black"/>
<path d="M31.2423 40.4805L29.6523 37.7305L31.2423 34.9805H34.4123L36.0023 37.7305L34.4123 40.4805H31.2423Z" fill="black"/>
<path d="M34.4039 40.7402H31.2539V46.5602H34.4039V40.7402Z" fill="black"/>
<path d="M54.1423 43.9296C49.8523 35.7296 39.9323 35.3496 39.9323 35.3496L34.5923 44.9796H30.9623L26.7623 35.4396C17.0323 35.2496 11.4023 43.5496 11.4023 43.5496V53.2796H54.1323V43.9296H54.1423Z" fill="black"/>
<path d="M12.0116 12.8599C12.0116 13.9899 11.4816 14.9199 10.7816 15.0999C11.7716 19.7799 15.1816 23.3099 19.3316 23.6799C19.1716 13.3899 25.5216 9.61992 29.0016 8.32992C27.6416 3.99992 24.1516 0.919922 20.0516 0.919922C15.2616 0.919922 11.3016 5.11992 10.6016 10.5899C11.3816 10.6499 12.0016 11.6399 12.0016 12.8599H12.0116Z" fill="black"/>
<path d="M10.5325 15.1401C10.6225 15.1401 10.7025 15.1201 10.7825 15.1001C11.4825 14.9201 12.0125 13.9901 12.0125 12.8601C12.0125 11.6401 11.3925 10.6501 10.6125 10.5901C10.5925 10.5901 10.5625 10.5801 10.5425 10.5801C9.7225 10.5801 9.0625 11.6001 9.0625 12.8601C9.0625 14.1201 9.7225 15.1401 10.5425 15.1401H10.5325Z" fill="black"/>
<path d="M20.3548 24.2695H18.7048L17.2148 26.8495L18.7048 29.4295H21.6848L21.9048 29.0495C21.8848 28.0795 21.9048 28.1695 21.2348 27.1395C20.6148 26.1995 20.5048 25.3295 20.3548 24.2695Z" fill="black"/>
<path d="M21.6648 29.6699H18.7148V33.6499H21.6648V29.6699Z" fill="black"/>
<path d="M15.9033 36.9303C18.7533 34.7003 20.8733 33.9603 24.4733 33.7203C23.9033 32.8903 23.3133 32.3903 22.8433 31.8403L21.8433 33.6403H18.4433L14.5033 24.7003C5.38328 24.5203 0.113281 32.3003 0.113281 32.3003V41.4203H10.9333C12.2333 39.5403 13.8533 38.5303 15.9033 36.9303Z" fill="black"/>
<path d="M53.1116 12.8593C53.1116 13.9893 53.6516 14.9193 54.3516 15.0993C53.3816 19.7893 49.9916 23.3193 45.8316 23.7093C45.9616 13.4293 39.5916 9.67929 36.1016 8.39929C37.4516 4.05929 40.9316 0.96929 45.0316 0.94929C49.8116 0.92929 53.7816 5.11929 54.5116 10.5893C53.7316 10.6493 53.1116 11.6393 53.1116 12.8593Z" fill="black"/>
<path d="M54.6033 15.1401C54.5133 15.1401 54.4333 15.1201 54.3533 15.1001C53.6533 14.9201 53.1233 13.9901 53.1133 12.8601C53.1133 11.6401 53.7333 10.6501 54.5133 10.5901C54.5433 10.5901 54.5633 10.5801 54.5933 10.5801C55.4033 10.5801 56.0733 11.6001 56.0733 12.8601C56.0733 14.1201 55.4233 15.1401 54.6033 15.1501V15.1401Z" fill="black"/>
<path d="M44.8152 24.3008H46.4652L47.9652 26.8708L46.4852 29.4508H43.5052L43.2852 29.0808C43.3052 28.1208 43.2852 28.2008 43.9552 27.1708C44.5752 26.2308 44.6752 25.3508 44.8252 24.3008H44.8152Z" fill="black"/>
<path d="M46.4734 29.6918L43.5234 29.7031L43.5387 33.6831L46.4887 33.6718L46.4734 29.6918Z" fill="black"/>
<path d="M49.3144 36.949C46.4544 34.729 44.3344 33.989 40.7344 33.769C41.3044 32.939 41.8844 32.439 42.3544 31.889L43.3544 33.689H43.5344L46.4844 33.679H46.7544L50.6544 24.719C59.7744 24.509 65.0744 32.269 65.0744 32.269L65.1044 41.389L54.2844 41.429C52.9844 39.559 51.3544 38.549 49.3044 36.949H49.3144Z" fill="black"/>
</svg>
