<svg width="46" height="56" viewBox="0 0 46 56" fill="none" xmlns="http://www.w3.org/2000/svg">
<path fill-rule="evenodd" clip-rule="evenodd" d="M45.0703 29.7704C44.3003 28.6204 39.9603 23.1704 39.8903 23.0104C39.8203 22.8504 39.6003 22.4704 40.0203 20.9904C40.4403 19.5204 40.3703 18.8104 40.2103 18.2704C40.0503 17.7204 40.5003 17.6004 40.4303 16.9604C40.3703 16.3204 36.8303 5.07036 28.9103 1.72036C21.0103 -1.63964 8.74033 1.15036 3.16033 9.08036C-1.38967 16.9704 -0.49967 23.9904 6.36033 34.9604C8.28033 38.0304 8.18033 38.5404 8.24033 38.9104C8.29033 39.2804 8.66033 44.1204 6.81033 47.8004C4.96033 51.4804 2.93033 55.8204 2.93033 55.8204C11.1603 57.1304 14.2703 49.6404 28.1803 55.8704C28.1803 55.8704 28.4903 53.9904 28.5203 50.2704C28.5503 46.5604 29.8103 44.8604 31.2503 44.8904C34.8003 44.9704 41.7903 46.5204 40.2203 40.5004C40.0303 39.7604 39.9003 39.0904 40.0903 38.9304C40.2803 38.7704 41.1903 38.5204 41.0603 37.8704C40.9303 37.2304 40.6703 36.5304 40.8703 36.4904C41.0603 36.4604 42.0003 36.6204 41.8303 35.9104C41.6703 35.2104 41.1303 33.1204 41.2903 32.6404C41.4503 32.1604 41.2303 32.3804 43.0603 31.8704C44.8903 31.3504 45.8603 30.9104 45.0903 29.7504L45.0703 29.7704ZM20.6803 7.05036V4.85036L24.2303 8.57036L20.5603 12.1104V10.0404C10.8303 10.7104 11.5603 20.3504 11.5603 20.3504C10.0603 20.1304 10.4703 19.1404 8.44033 19.5004C8.43033 12.4204 13.9403 7.05036 20.6803 7.06036V7.05036ZM26.3503 31.4004C20.4403 34.2304 13.6103 32.1204 10.3903 26.6404L8.49033 27.7504L9.92033 22.8204L14.8403 24.1904L13.0503 25.2404C18.0903 32.5904 25.2003 28.5904 26.3603 27.8704C26.4703 27.8004 26.5303 27.7604 26.5303 27.7604C27.0903 29.1604 26.0303 29.3004 27.3703 30.8804C27.0403 31.0704 26.7003 31.2504 26.3603 31.4104L26.3503 31.4004ZM29.2403 27.9404L28.0003 23.0004L29.8003 24.0404C33.1603 17.1904 28.5103 13.1404 26.3403 11.7104C25.7403 11.3204 25.3303 11.1204 25.3303 11.1204C25.7003 10.6504 26.0303 10.5004 26.3403 10.3704C26.8003 10.1704 27.2103 10.0204 27.6403 8.85036C33.8103 12.3804 35.7103 19.8204 32.3303 25.6304L34.2403 26.7304L29.2303 27.9304L29.2403 27.9404Z" fill="black"/>
</svg>
