<svg width="51" height="55" viewBox="0 0 51 55" fill="none" xmlns="http://www.w3.org/2000/svg">
<path d="M24.6466 9.33875V0.94875C24.6466 0.67875 24.9966 0.46875 25.4266 0.46875C25.8566 0.46875 26.2066 0.68875 26.2066 0.94875V9.33875C26.2066 9.60875 25.8566 9.81875 25.4266 9.81875C24.9966 9.81875 24.6466 9.59875 24.6466 9.33875ZM17.4966 11.2487C17.6266 11.4787 18.0366 11.4888 18.4166 11.2788C18.7866 11.0588 18.9866 10.6987 18.8466 10.4688L14.6566 3.20875C14.5266 2.97875 14.1166 2.96875 13.7366 3.17875C13.3666 3.39875 13.1666 3.75875 13.3066 3.98875L17.4966 11.2487ZM5.03656 11.2087C4.80656 11.0787 4.44656 11.2688 4.22656 11.6388C4.00656 12.0087 4.02656 12.4187 4.25656 12.5588L11.5166 16.7488C11.7466 16.8787 12.1066 16.6888 12.3266 16.3188C12.5466 15.9488 12.5266 15.5388 12.2966 15.3988L5.03656 11.2087ZM9.83656 24.3787C9.83656 23.9487 9.61656 23.5987 9.35656 23.5987H0.956562C0.686562 23.5987 0.476562 23.9487 0.476562 24.3787C0.476562 24.8088 0.696562 25.1588 0.956562 25.1588H9.34656C9.61656 25.1588 9.82656 24.8088 9.82656 24.3787H9.83656ZM10.9966 31.9988L3.73656 36.1888C3.50656 36.3188 3.49656 36.7287 3.70656 37.1087C3.92656 37.4787 4.28656 37.6787 4.51656 37.5387L11.7766 33.3488C12.0066 33.2188 12.0166 32.8088 11.8066 32.4287C11.5866 32.0587 11.2266 31.8588 10.9966 31.9988ZM32.5466 11.2788C32.9166 11.4988 33.3266 11.4787 33.4666 11.2487L37.6566 3.98875C37.7866 3.75875 37.5966 3.39875 37.2266 3.17875C36.8566 2.95875 36.4466 2.97875 36.3066 3.20875L32.1166 10.4688C31.9866 10.6987 32.1766 11.0588 32.5466 11.2788ZM39.4366 16.7588L46.6966 12.5688C46.9266 12.4388 46.9366 12.0288 46.7266 11.6488C46.5066 11.2788 46.1466 11.0787 45.9166 11.2188L38.6566 15.4087C38.4266 15.5387 38.4166 15.9487 38.6266 16.3287C38.8466 16.6987 39.2066 16.8988 39.4366 16.7588ZM49.9866 23.5987H41.5966C41.3266 23.5987 41.1166 23.9487 41.1166 24.3787C41.1166 24.8088 41.3366 25.1588 41.5966 25.1588H49.9866C50.2566 25.1588 50.4666 24.8088 50.4666 24.3787C50.4666 23.9487 50.2466 23.5987 49.9866 23.5987ZM39.9566 31.9988C39.7266 31.8688 39.3666 32.0587 39.1466 32.4287C38.9266 32.7987 38.9466 33.2088 39.1766 33.3488L46.4366 37.5387C46.6666 37.6688 47.0266 37.4787 47.2466 37.1087C47.4666 36.7388 47.4466 36.3288 47.2166 36.1888L39.9566 31.9988ZM25.2066 54.9688H25.9466C27.6866 54.9688 29.0966 53.6488 29.2766 51.9588H21.8866C22.0566 53.6488 23.4766 54.9688 25.2166 54.9688H25.2066ZM38.4966 25.2987C38.4966 28.2188 37.5366 30.9787 35.7366 33.2687C34.3766 34.9987 33.1266 36.8187 32.0266 38.6987L32.0066 38.7287V43.1987C32.0066 43.9087 31.4366 44.4787 30.7266 44.4787H20.4466C19.7366 44.4787 19.1666 43.9087 19.1666 43.1987V38.7287L19.1466 38.6987C18.0566 36.8488 16.7766 34.9688 15.4366 33.2588C13.6266 30.9688 12.6666 28.2087 12.6666 25.2887C12.6666 18.1688 18.4666 12.3687 25.5866 12.3687C32.7066 12.3687 38.5066 18.1688 38.5066 25.2887L38.4966 25.2987ZM26.2766 41.9287L29.2766 28.7987L27.6866 29.6887L26.6866 26.1787L25.0066 31.2087L24.1366 27.1087L22.1466 28.7388L25.1666 41.9188H26.2766V41.9287ZM35.9366 25.2987C35.9366 19.5887 31.2866 14.9388 25.5766 14.9388C19.8666 14.9388 15.2166 19.5887 15.2166 25.2987C15.2166 27.6388 15.9866 29.8387 17.4366 31.6787C18.5166 33.0487 19.5666 34.5288 20.5066 36.0288L21.6966 38.2588V41.9188H23.8866L20.4866 27.0588C20.3666 26.5487 20.5366 26.0187 20.8566 25.8787C21.1766 25.7388 21.5366 26.0487 21.6566 26.5588L21.9766 27.9587L24.5266 25.8687L25.1466 28.7987L26.7466 24.0287L28.0666 28.6388L29.5166 27.8288L29.8066 26.5688C29.9266 26.0588 30.2766 25.7488 30.6066 25.8888C30.9266 26.0287 31.0966 26.5487 30.9766 27.0588L27.5766 41.9188H29.4766V38.8887H29.4866V38.1688L30.4266 36.3988C31.4366 34.7687 32.5366 33.1887 33.7266 31.6787C35.1766 29.8387 35.9366 27.6287 35.9366 25.2987ZM30.6166 45.2988H20.8266C20.0666 45.2988 19.4466 45.7788 19.4466 46.3688V46.6587C19.4466 47.2487 20.0666 47.7287 20.8266 47.7287H30.6166C31.3766 47.7287 31.9966 47.2487 31.9966 46.6587V46.3688C31.9966 45.7788 31.3766 45.2988 30.6166 45.2988ZM19.7966 48.6787C19.7966 48.7287 19.7966 48.7887 19.7966 48.8387C19.7966 49.6787 20.1866 50.4588 20.8366 51.0988H30.6166C31.2766 50.4588 31.6566 49.6787 31.6566 48.8387C31.6566 48.7887 31.6566 48.7287 31.6566 48.6787H19.8066H19.7966Z" fill="black"/>
</svg>
