<svg width="61" height="55" viewBox="0 0 61 55" fill="none" xmlns="http://www.w3.org/2000/svg">
<path d="M18.2314 14.5097C19.3114 14.5097 20.2914 13.8597 20.7114 12.8597C22.4414 8.73969 26.5014 5.83969 31.2414 5.83969C33.8514 5.83969 36.2514 6.72969 38.1714 8.21969L36.6614 8.44969C36.1414 8.52969 35.7414 8.93969 35.6814 9.44969C35.6114 9.95969 35.8914 10.4697 36.3614 10.6797L44.6414 14.3997C45.0014 14.5597 45.4214 14.5297 45.7614 14.3197C46.0914 14.0997 46.3014 13.7297 46.3014 13.3397L46.3414 4.21969C46.3414 3.69969 46.0014 3.23969 45.5114 3.08969C45.0114 2.93969 44.4814 3.12969 44.1914 3.55969L43.0514 5.26969C40.0114 2.27969 35.8414 0.429688 31.2514 0.429688C24.2814 0.429688 18.2914 4.67969 15.7414 10.7297C15.3814 11.5697 15.4714 12.5297 15.9814 13.2897C16.4814 14.0497 17.3314 14.5097 18.2414 14.5097H18.2314Z" fill="black"/>
<path d="M46.5128 42.1302C46.0128 41.3702 45.1628 40.9102 44.2528 40.9102C43.1728 40.9102 42.1928 41.5602 41.7728 42.5602C40.0428 46.6802 35.9828 49.5802 31.2428 49.5802C28.6328 49.5802 26.2328 48.6802 24.3128 47.2002L25.8128 46.9702C26.3228 46.8902 26.7228 46.4802 26.7928 45.9702C26.8628 45.4602 26.5828 44.9502 26.1128 44.7402L17.8328 41.0202C17.4728 40.8602 17.0528 40.8902 16.7128 41.1002C16.3828 41.3202 16.1728 41.6902 16.1728 42.0802L16.1328 51.2002C16.1328 51.7202 16.4728 52.1802 16.9628 52.3302C17.4528 52.4802 17.9928 52.2902 18.2828 51.8602L19.4228 50.1502C22.4628 53.1402 26.6328 54.9902 31.2228 54.9902C38.1928 54.9902 44.1828 50.7402 46.7328 44.6902C47.0928 43.8502 47.0028 42.8902 46.4928 42.1302H46.5128Z" fill="black"/>
<path d="M14.3416 31.5395C14.3416 32.4295 14.1816 33.2295 13.8716 33.9495C13.5516 34.6595 13.1116 35.2795 12.5316 35.7995C11.9516 36.3195 11.2516 36.7295 10.4316 37.0395C9.61156 37.3495 8.71156 37.5495 7.71156 37.6295L7.38156 40.9495C7.37156 41.0295 7.35156 41.1095 7.31156 41.1695C7.27156 41.2295 7.21156 41.2795 7.11156 41.3295C7.01156 41.3695 6.88156 41.4095 6.71156 41.4295C6.54156 41.4595 6.32156 41.4695 6.07156 41.4695C5.74156 41.4695 5.47156 41.4495 5.27156 41.4195C5.07156 41.3895 4.91156 41.3395 4.80156 41.2895C4.69156 41.2295 4.61156 41.1595 4.57156 41.0595C4.53156 40.9695 4.53156 40.8595 4.55156 40.7495L4.88156 37.5995C4.43156 37.5395 4.02156 37.4595 3.62156 37.3595C3.23156 37.2595 2.87156 37.1495 2.55156 37.0295C2.23156 36.9095 1.95156 36.7895 1.72156 36.6695C1.49156 36.5495 1.31156 36.4195 1.19156 36.3095C1.07156 36.1995 0.991563 36.0095 0.931563 35.7795C0.881563 35.5495 0.851562 35.1995 0.851562 34.7495C0.851562 34.3995 0.861562 34.1095 0.881562 33.8795C0.901562 33.6495 0.941563 33.4795 0.991563 33.3495C1.04156 33.2295 1.11156 33.1395 1.18156 33.0895C1.26156 33.0395 1.35156 33.0195 1.45156 33.0195C1.58156 33.0195 1.78156 33.0995 2.04156 33.2495C2.30156 33.4095 2.63156 33.5795 3.03156 33.7595C3.43156 33.9395 3.92156 34.1195 4.50156 34.2695C5.07156 34.4295 5.75156 34.4995 6.53156 34.4995C7.74156 34.4995 8.64156 34.2695 9.23156 33.8195C9.82156 33.3695 10.1216 32.7695 10.1216 32.0295C10.1216 31.5295 9.99156 31.1195 9.74156 30.7995C9.49156 30.4795 9.15156 30.1995 8.72156 29.9495C8.30156 29.7095 7.82156 29.4895 7.28156 29.2995C6.75156 29.1095 6.20156 28.8995 5.64156 28.6895C5.08156 28.4795 4.53156 28.2195 4.00156 27.9295C3.47156 27.6395 2.99156 27.2795 2.56156 26.8595C2.14156 26.4395 1.80156 25.9195 1.54156 25.3095C1.29156 24.6995 1.16156 23.9695 1.16156 23.1095C1.16156 22.3295 1.29156 21.6295 1.55156 20.9895C1.81156 20.3495 2.18156 19.7995 2.67156 19.3195C3.16156 18.8395 3.75156 18.4595 4.46156 18.1595C5.17156 17.8595 5.97156 17.6695 6.88156 17.5595L7.19156 14.4395C7.20156 14.3595 7.22156 14.2895 7.26156 14.2295C7.30156 14.1695 7.36156 14.1195 7.46156 14.0695C7.56156 14.0195 7.69156 13.9895 7.86156 13.9695C8.03156 13.9495 8.24156 13.9395 8.51156 13.9395C8.83156 13.9395 9.10156 13.9595 9.31156 13.9895C9.52156 14.0195 9.69156 14.0695 9.80156 14.1195C9.91156 14.1795 9.99156 14.2495 10.0216 14.3495C10.0516 14.4395 10.0716 14.5495 10.0716 14.6595L9.76156 17.5995C10.0516 17.6395 10.3616 17.6995 10.6816 17.7695C11.0016 17.8395 11.3016 17.9295 11.5816 18.0295C11.8616 18.1295 12.1116 18.2295 12.3416 18.3395C12.5716 18.4495 12.7316 18.5495 12.8116 18.6395C12.9016 18.7295 12.9716 18.8195 13.0116 18.8995C13.0616 18.9895 13.0916 19.0995 13.1216 19.2295C13.1516 19.3595 13.1616 19.5095 13.1716 19.6995C13.1816 19.8795 13.1916 20.0895 13.1916 20.3295C13.1916 20.6495 13.1916 20.9195 13.1716 21.1195C13.1516 21.3295 13.1316 21.4895 13.0816 21.5895C13.0416 21.6995 12.9916 21.7695 12.9416 21.8095C12.8916 21.8495 12.8316 21.8595 12.7516 21.8595C12.6216 21.8595 12.4216 21.7895 12.1616 21.6595C11.9016 21.5295 11.5816 21.3795 11.2016 21.2295C10.8216 21.0695 10.3916 20.9295 9.90156 20.7995C9.41156 20.6695 8.87156 20.5995 8.28156 20.5995C7.74156 20.5995 7.28156 20.6495 6.90156 20.7595C6.52156 20.8595 6.21156 21.0095 5.97156 21.1895C5.73156 21.3795 5.56156 21.5995 5.44156 21.8595C5.33156 22.1195 5.27156 22.3995 5.27156 22.7095C5.27156 23.1995 5.40156 23.6095 5.66156 23.9395C5.92156 24.2695 6.26156 24.5595 6.69156 24.7895C7.12156 25.0295 7.61156 25.2495 8.15156 25.4395C8.69156 25.6395 9.25156 25.8395 9.81156 26.0595C10.3716 26.2795 10.9316 26.5295 11.4716 26.8095C12.0116 27.0895 12.5016 27.4495 12.9216 27.8695C13.3416 28.2895 13.6916 28.7995 13.9416 29.3895C14.2016 29.9895 14.3316 30.6995 14.3316 31.5395H14.3416Z" fill="black"/>
<path d="M60.842 35.0903C60.842 35.5503 60.802 35.9103 60.722 36.1703C60.642 36.4303 60.522 36.6403 60.382 36.7803C60.232 36.9303 60.032 37.0703 59.752 37.2203C59.482 37.3703 59.142 37.5103 58.742 37.6403C58.342 37.7703 57.892 37.8803 57.372 37.9603C56.852 38.0403 56.292 38.0803 55.672 38.0803C54.502 38.0803 53.462 37.9303 52.562 37.6303C51.662 37.3303 50.892 36.9003 50.252 36.3303C49.612 35.7703 49.092 35.0703 48.692 34.2503C48.292 33.4303 48.002 32.4903 47.832 31.4503H46.342C46.182 31.4503 46.062 31.3503 45.972 31.1503C45.882 30.9503 45.832 30.6103 45.832 30.1303C45.832 29.8903 45.832 29.6903 45.852 29.5203C45.872 29.3503 45.892 29.2203 45.932 29.1203C45.972 29.0203 46.012 28.9503 46.072 28.9003C46.132 28.8503 46.202 28.8303 46.282 28.8303H47.662C47.662 28.6703 47.662 28.5103 47.662 28.3403C47.662 28.1703 47.662 28.0003 47.662 27.8403C47.662 27.6303 47.662 27.4303 47.662 27.2303C47.662 27.0303 47.662 26.8303 47.662 26.6503H46.282C46.122 26.6503 46.012 26.5503 45.942 26.3603C45.872 26.1703 45.832 25.8303 45.832 25.3403C45.832 25.0903 45.842 24.8803 45.872 24.7203C45.902 24.5503 45.932 24.4203 45.982 24.3203C46.032 24.2203 46.082 24.1503 46.142 24.1103C46.202 24.0703 46.272 24.0503 46.342 24.0503H47.942C48.152 23.0603 48.452 22.1503 48.852 21.3203C49.252 20.5003 49.762 19.7903 50.392 19.1903C51.022 18.5903 51.772 18.1303 52.642 17.8103C53.512 17.4803 54.542 17.3203 55.712 17.3203C56.252 17.3203 56.772 17.3603 57.272 17.4403C57.772 17.5203 58.232 17.6203 58.632 17.7403C59.032 17.8603 59.372 17.9903 59.632 18.1203C59.892 18.2503 60.082 18.3603 60.202 18.4503C60.312 18.5403 60.402 18.6403 60.452 18.7403C60.502 18.8403 60.542 18.9603 60.572 19.1003C60.602 19.2503 60.632 19.4303 60.652 19.6503C60.672 19.8703 60.682 20.1403 60.682 20.4703C60.682 20.7503 60.672 20.9803 60.652 21.1503C60.632 21.3303 60.602 21.4703 60.552 21.5803C60.502 21.6903 60.452 21.7603 60.382 21.8103C60.312 21.8503 60.242 21.8703 60.152 21.8703C59.982 21.8703 59.792 21.8003 59.572 21.6503C59.352 21.5103 59.072 21.3503 58.752 21.1803C58.422 21.0103 58.032 20.8503 57.582 20.7103C57.122 20.5703 56.592 20.5003 55.982 20.5003C55.372 20.5003 54.892 20.5803 54.462 20.7403C54.032 20.9003 53.652 21.1403 53.332 21.4503C53.012 21.7603 52.762 22.1303 52.562 22.5703C52.362 23.0003 52.212 23.5003 52.112 24.0503H56.372C56.442 24.0503 56.512 24.0703 56.582 24.1103C56.652 24.1503 56.702 24.2203 56.742 24.3203C56.782 24.4203 56.822 24.5503 56.842 24.7203C56.872 24.8903 56.882 25.0903 56.882 25.3403C56.882 25.8303 56.832 26.1703 56.742 26.3603C56.652 26.5503 56.522 26.6503 56.372 26.6503H51.802C51.792 26.8203 51.782 26.9803 51.782 27.1503C51.782 27.3203 51.782 27.5103 51.782 27.7203C51.782 27.9103 51.782 28.0903 51.782 28.2703C51.782 28.4503 51.792 28.6403 51.802 28.8403H56.372C56.442 28.8403 56.512 28.8603 56.582 28.9103C56.652 28.9603 56.702 29.0303 56.742 29.1303C56.782 29.2303 56.822 29.3603 56.842 29.5303C56.872 29.7003 56.882 29.9003 56.882 30.1403C56.882 30.6203 56.832 30.9603 56.742 31.1603C56.652 31.3603 56.522 31.4603 56.372 31.4603H52.102C52.182 31.9903 52.322 32.4603 52.522 32.8803C52.722 33.3003 52.982 33.6503 53.302 33.9403C53.632 34.2303 54.022 34.4503 54.502 34.6103C54.972 34.7703 55.532 34.8403 56.182 34.8403C56.792 34.8403 57.322 34.7703 57.772 34.6203C58.222 34.4703 58.612 34.3103 58.942 34.1403C59.272 33.9603 59.552 33.8003 59.772 33.6603C59.992 33.5103 60.182 33.4403 60.322 33.4403C60.402 33.4403 60.482 33.4603 60.552 33.5003C60.622 33.5403 60.672 33.6203 60.722 33.7403C60.772 33.8603 60.802 34.0203 60.822 34.2403C60.842 34.4503 60.852 34.7303 60.852 35.0903H60.842Z" fill="black"/>
</svg>
