<svg width="41" height="52" viewBox="0 0 41 52" fill="none" xmlns="http://www.w3.org/2000/svg">
<path d="M27.8858 45.8164C26.7358 49.0064 23.9358 51.2564 20.6558 51.2564C17.3758 51.2564 14.5858 49.0064 13.4258 45.8164H27.8758H27.8858Z" fill="black"/>
<path d="M0.756425 40.1358C0.956425 38.6958 1.61642 36.2058 3.77642 33.8358C6.60642 30.7258 6.30642 26.2658 6.40642 22.2458C6.45642 20.0958 5.33642 8.86578 16.1964 5.52578C16.1964 5.52578 16.0864 0.705781 20.6164 0.675781C25.1464 0.705781 25.0364 5.52578 25.0364 5.52578C35.9064 8.86578 34.7764 20.0958 34.8264 22.2458C34.9264 26.2658 34.6264 30.7258 37.4564 33.8358C39.6164 36.2058 40.2764 38.6958 40.4764 40.1358C40.5464 40.6158 40.5864 41.1458 40.6064 41.7658C40.6364 42.6258 39.9464 43.3358 39.0964 43.3358H20.6064H2.11642C1.25642 43.3358 0.576425 42.6258 0.606425 41.7658C0.626425 41.1458 0.666425 40.6158 0.736425 40.1358H0.756425Z" fill="black"/>
</svg>
