<svg width="51" height="53" viewBox="0 0 51 53" fill="none" xmlns="http://www.w3.org/2000/svg">
<path d="M18.7194 17.1341L19.9894 18.2241C20.7494 18.8741 21.8694 18.7741 22.4994 18.0341L26.2294 13.6741C26.8694 12.9241 26.7794 11.8041 26.0294 11.1641C25.2794 10.5241 24.1594 10.6141 23.5194 11.3541L20.9494 14.3641L18.6694 12.4041C18.7394 13.1541 18.7194 16.3141 18.7194 17.1341ZM12.9394 8.49406C15.0994 8.49406 17.1094 6.71406 17.1094 4.33406C17.1094 1.95406 15.2394 0.164062 12.9394 0.164062C10.6394 0.164062 8.77938 2.02406 8.77938 4.33406C8.77938 6.64406 10.8094 8.49406 12.9394 8.49406ZM26.9494 17.4841C27.0394 18.0441 27.5594 18.4341 28.1194 18.3441L32.5394 17.6641C32.8494 17.6141 33.1294 17.4241 33.2794 17.1541L35.1494 13.8341L38.7294 15.7541C38.9994 15.8941 39.3194 15.9141 39.6094 15.8041C39.8894 15.6841 40.1094 15.4441 40.1994 15.1541L42.4894 7.75406C42.6594 7.21406 42.3494 6.63406 41.8094 6.46406C41.2694 6.29406 40.6894 6.60406 40.5194 7.14406L38.5994 13.3441L35.2294 11.5341C34.7394 11.2741 34.1194 11.4441 33.8494 11.9341L31.7294 15.7041L27.8094 16.3141C27.2494 16.4041 26.8594 16.9241 26.9494 17.4841ZM38.7994 39.9041C38.7994 42.4441 40.8594 44.4941 43.3894 44.4941C45.9194 44.4941 47.9794 42.4341 47.9794 39.9041C47.9794 37.3741 45.9194 35.3141 43.3894 35.3141C40.8594 35.3141 38.7994 37.3641 38.7994 39.9041ZM17.2794 38.3041V41.5241C17.2794 42.3541 16.6094 43.0241 15.7794 43.0241C14.9494 43.0241 14.2794 42.3541 14.2794 41.5241V38.3041H14.2994V28.0041H12.8694V36.4141C11.8694 35.1141 10.3294 34.2541 8.58938 34.1641V23.6741C9.64937 24.0441 10.8694 23.8541 11.7694 23.0541C13.0894 21.8741 13.1994 19.8441 12.0194 18.5241L9.82938 16.0741L11.5294 13.6441L8.31938 16.5241L10.9594 19.4741C11.6194 20.2041 11.5494 21.3341 10.8194 21.9841C10.0794 22.6441 8.94938 22.5741 8.29938 21.8441L4.46937 17.5641C3.80937 16.8341 3.87937 15.7041 4.60938 15.0441L9.14937 10.9841L9.10938 11.0041C9.73938 9.97406 10.8694 9.28406 12.1594 9.28406H13.6894C15.6694 9.28406 17.2794 10.8841 17.2794 12.8741C17.2794 20.7241 17.2794 26.3541 17.2794 38.2941V38.3041ZM8.29938 35.3141C5.75938 35.3141 3.70937 37.3641 3.70937 39.9041C3.70937 42.4441 5.76937 44.4941 8.29938 44.4941C10.8294 44.4941 12.8894 42.4341 12.8894 39.9041C12.8894 37.3741 10.8294 35.3141 8.29938 35.3141ZM29.3594 45.3841H22.3294C21.3494 45.3841 20.4894 45.6641 20.0794 46.5541L18.6094 52.8841H33.0694L31.5994 46.5541C31.1894 45.6541 30.3394 45.3841 29.3494 45.3841H29.3594ZM47.1294 45.3841H40.0994C39.1194 45.3841 38.2594 45.6641 37.8494 46.5541L36.3794 52.8841H50.8394L49.3694 46.5541C48.9594 45.6541 48.1094 45.3841 47.1194 45.3841H47.1294ZM11.5894 45.3841H4.57938C3.59938 45.3841 2.73937 45.6641 2.32938 46.5541L0.859375 52.8841H15.3194L13.8494 46.5541C13.4394 45.6541 12.5894 45.3841 11.5994 45.3841H11.5894ZM38.3694 37.1041L35.4794 23.9941H33.1194L29.8094 35.7441C29.1194 35.0941 28.2694 34.6041 27.3294 34.3541L30.1994 23.9941H22.8094C22.0494 23.9941 21.4294 23.3741 21.4294 22.6141V20.0541C22.2594 19.9741 23.0194 19.5841 23.5594 18.9541L24.1794 18.2241V21.2341H44.3094V3.24406H24.1794V9.38406C23.5194 9.52406 22.8894 9.86406 22.4194 10.4241L21.4194 11.5841V1.86406C21.4194 1.10406 22.0394 0.484062 22.7994 0.484062H45.6894C46.4494 0.484062 47.0694 1.10406 47.0694 1.86406V22.6141C47.0694 23.3741 46.4494 23.9941 45.6894 23.9941H38.3894L40.7694 34.7841C39.7594 35.3041 38.9194 36.1141 38.3594 37.1041H38.3694ZM25.8494 44.4941C28.3894 44.4941 30.4394 42.4341 30.4394 39.9041C30.4394 37.3741 28.3794 35.3141 25.8494 35.3141C23.3194 35.3141 21.2594 37.3641 21.2594 39.9041C21.2594 42.4441 23.3194 44.4941 25.8494 44.4941Z" fill="black"/>
</svg>
