<svg width="61" height="49" viewBox="0 0 61 49" fill="none" xmlns="http://www.w3.org/2000/svg">
<path d="M52.9816 29.4683L53.7216 30.5383H8.65156C4.35156 30.5383 0.851562 27.0383 0.851562 22.7383C0.851562 18.4383 4.35156 14.9383 8.65156 14.9383H54.1116L53.2916 16.0283C52.7316 16.7683 52.2716 17.5683 51.9016 18.3983L51.7216 18.8083H7.03156V26.7383H51.5716L51.7416 27.1683C52.0716 27.9883 52.4816 28.7583 52.9716 29.4683H52.9816ZM58.4916 44.6883L58.3216 44.2583H13.7816V36.3283H58.4616L58.6416 35.9183C59.0016 35.0883 59.4716 34.2883 60.0316 33.5483L60.8516 32.4483H15.3916C11.0916 32.4483 7.59156 35.9483 7.59156 40.2483C7.59156 44.5483 11.0916 48.0483 15.3916 48.0483H60.4616L59.7216 46.9783C59.2316 46.2683 58.8216 45.4983 58.4916 44.6783V44.6883ZM55.3816 10.8983L55.2316 10.5283H16.4016V3.61828H55.3516L55.5116 3.25828C55.8316 2.52828 56.2416 1.83828 56.7216 1.18828L57.4416 0.238281H17.8016C14.0516 0.238281 11.0016 3.28828 11.0016 7.03828C11.0016 10.7883 14.0516 13.8383 17.8016 13.8383H57.1016L56.4516 12.9083C56.0216 12.2883 55.6616 11.6183 55.3816 10.8983Z" fill="black"/>
</svg>
