<svg width="61" height="49" viewBox="0 0 61 49" fill="none" xmlns="http://www.w3.org/2000/svg">
<path d="M31.7705 18.0449H30.2305V23.3749H31.7705V18.0449Z" fill="black"/>
<path d="M19.1731 43.8548L18.2031 42.6548L22.5631 39.1348L23.5331 40.3248L19.1731 43.8548Z" fill="black"/>
<path d="M42.0416 43.9848L42.9316 42.7048L39.0016 39.1348L38.1016 40.4148L42.0416 43.9848Z" fill="black"/>
<path d="M30.8798 11.0952C33.7998 11.0952 36.1698 8.73516 36.1698 5.81516C36.1698 2.89516 33.7998 0.535156 30.8798 0.535156C27.9598 0.535156 25.5898 2.89516 25.5898 5.81516C25.5898 8.73516 27.9598 11.0952 30.8798 11.0952Z" fill="black"/>
<path d="M41.7208 19.0657C41.3708 15.2257 39.0108 11.9757 35.7108 10.3457C34.5008 11.6257 32.8008 12.4357 30.8908 12.4357C28.9808 12.4357 27.2808 11.6257 26.0708 10.3457C22.7708 11.9757 20.4208 15.2257 20.0508 19.0657H41.7208Z" fill="black"/>
<path d="M11.6806 40.9545C14.6006 40.9545 16.9706 38.5945 16.9706 35.6745C16.9706 32.7545 14.6006 30.3945 11.6806 30.3945C8.76062 30.3945 6.39062 32.7545 6.39062 35.6745C6.39062 38.5945 8.76062 40.9545 11.6806 40.9545Z" fill="black"/>
<path d="M22.5216 48.9153C22.1716 45.0753 19.8116 41.8253 16.5116 40.1953C15.3016 41.4753 13.6016 42.2853 11.6916 42.2853C9.78156 42.2853 8.08156 41.4753 6.87156 40.1953C3.57156 41.8253 1.22156 45.0753 0.851562 48.9153H22.5216Z" fill="black"/>
<path d="M50.0205 40.9545C52.9405 40.9545 55.3105 38.5945 55.3105 35.6745C55.3105 32.7545 52.9405 30.3945 50.0205 30.3945C47.1005 30.3945 44.7305 32.7545 44.7305 35.6745C44.7305 38.5945 47.1005 40.9545 50.0205 40.9545Z" fill="black"/>
<path d="M60.8497 48.9153C60.4997 45.0753 58.1397 41.8253 54.8397 40.1953C53.6297 41.4753 51.9297 42.2853 50.0197 42.2853C48.1097 42.2853 46.4097 41.4753 45.1997 40.1953C41.8997 41.8253 39.5497 45.0753 39.1797 48.9153H60.8497Z" fill="black"/>
<path d="M30.8822 22.6055C25.1422 22.6055 20.4922 27.2555 20.4922 32.9755C20.4922 38.6955 25.1422 43.3455 30.8822 43.3455C36.6222 43.3455 41.2722 38.7055 41.2722 32.9755C41.2722 27.2455 36.6222 22.6055 30.8822 22.6055ZM35.1922 32.2755C35.2022 32.4355 35.2122 32.6055 35.2122 32.7655H31.3222V29.6455C32.2922 29.6255 33.3322 29.4855 34.4222 29.1855C34.8222 30.1055 35.1122 31.1455 35.2022 32.2755H35.1922ZM27.4322 29.1355C28.3022 29.3855 29.2922 29.5755 30.3822 29.6355V32.7655H26.6422C26.6422 32.5855 26.6422 32.3955 26.6622 32.2155C26.7522 31.0855 27.0422 30.0555 27.4322 29.1355ZM30.3822 28.5055C29.4922 28.4555 28.6722 28.3055 27.9422 28.1055C28.7322 26.6855 29.7022 25.5955 30.3822 24.9455V28.5055ZM30.3822 33.7155V36.6355C29.3522 36.6855 28.4022 36.8655 27.5622 37.1055C27.0622 35.9755 26.7722 34.8455 26.6722 33.7255H30.3822V33.7155ZM30.3822 37.7955V41.3655C29.4422 40.2955 28.6722 39.2255 28.0822 38.1555C28.7822 37.9755 29.5522 37.8455 30.3822 37.7955ZM31.3222 37.7855C32.1122 37.8055 32.9522 37.9155 33.8322 38.1355C33.2022 39.2955 32.3722 40.4555 31.3222 41.6155V37.7855ZM31.3222 36.6255V33.7255H35.1922C35.1122 34.8355 34.8222 35.9455 34.3522 37.0655C33.2922 36.7855 32.2822 36.6455 31.3222 36.6255ZM31.3222 28.5255V24.8755C31.9922 25.5055 33.0522 26.6255 33.9022 28.1455C33.0022 28.3855 32.1322 28.4955 31.3222 28.5255ZM26.7922 27.7455C25.9122 27.4055 25.2222 27.0255 24.7522 26.7255C25.9722 25.5355 27.5322 24.7055 29.2822 24.3855C28.5322 25.1455 27.5622 26.2855 26.7922 27.7455ZM26.3122 28.7655C25.8922 29.7655 25.5922 30.8855 25.4922 32.1155C25.4722 32.3355 25.4622 32.5555 25.4622 32.7655H22.1122C22.1622 30.8155 22.8422 29.0155 23.9722 27.5855C24.4822 27.9055 25.2722 28.3555 26.3122 28.7555V28.7655ZM25.4922 33.7155C25.5822 34.9655 25.9022 36.2155 26.4322 37.4655C25.4422 37.8355 24.6622 38.2555 24.1322 38.5855C23.0122 37.2455 22.2922 35.5655 22.1322 33.7155H25.4822H25.4922ZM26.9322 38.5055C27.4722 39.5155 28.1522 40.5255 28.9722 41.5255C27.4422 41.1855 26.0622 40.4555 24.9522 39.4355C25.4322 39.1555 26.1022 38.8055 26.9322 38.5055ZM34.9622 38.4655C35.5922 38.6855 36.2422 38.9755 36.9022 39.3255C35.8122 40.3555 34.4622 41.1155 32.9522 41.4755C33.7622 40.4755 34.4422 39.4655 34.9622 38.4555V38.4655ZM35.4522 37.4055C35.9622 36.1755 36.2622 34.9455 36.3522 33.7155H39.6122C39.4622 35.5055 38.7822 37.1355 37.7222 38.4555C36.9522 38.0255 36.2022 37.6755 35.4622 37.4155L35.4522 37.4055ZM36.3722 32.7655C36.3722 32.5755 36.3622 32.3755 36.3422 32.1855C36.2422 30.9555 35.9422 29.8355 35.5222 28.8355C36.2922 28.5555 37.0722 28.1855 37.8722 27.7255C38.9322 29.1355 39.5822 30.8855 39.6222 32.7755H36.3622L36.3722 32.7655ZM37.1022 26.8255C36.3922 27.2255 35.7022 27.5355 35.0322 27.7855C34.2422 26.2855 33.2422 25.1355 32.4922 24.3855C34.2822 24.7155 35.8822 25.5955 37.1122 26.8355L37.1022 26.8255Z" fill="black"/>
</svg>
