<svg width="61" height="60" viewBox="0 0 61 60" fill="none" xmlns="http://www.w3.org/2000/svg">
<path d="M32.3094 46.8574C32.3094 38.4474 39.1294 31.6274 47.5394 31.6274C48.3994 31.6274 49.2394 31.6974 50.0594 31.8374C50.5894 29.8074 50.8694 27.6774 50.8694 25.4774C50.8694 11.6074 39.6194 0.357422 25.7394 0.357422C11.8594 0.357422 0.609375 11.6074 0.609375 25.4874C0.609375 39.3674 11.8594 50.6174 25.7394 50.6174C28.1094 50.6174 30.3994 50.2874 32.5694 49.6774C32.3994 48.7674 32.3094 47.8274 32.3094 46.8674V46.8574ZM48.7394 24.0374V26.9374H42.0594V24.0374H48.7394ZM40.9794 8.19742L43.0294 10.2474L38.2994 14.9674L36.2494 12.9174L40.9794 8.19742ZM24.2894 2.48742H27.1894V9.16742H24.2894V2.48742ZM2.73938 26.9374V24.0374H9.41938V26.9374H2.73938ZM10.4994 42.7774L8.44938 40.7274L13.1794 35.9974L15.2294 38.0474L10.4994 42.7674V42.7774ZM13.1694 14.9674L8.43937 10.2474L10.4894 8.19742L15.2194 12.9174L13.1694 14.9674ZM21.6994 19.6074L26.0194 23.7874L33.8894 16.0474L35.9194 18.1174L26.0294 27.8374L19.6894 21.6974L21.6994 19.6174V19.6074ZM27.1794 48.4874H24.2794V41.8074H27.1794V48.4874Z" fill="black"/>
<path d="M47.5387 33.7871C40.3187 33.7871 34.4688 39.6371 34.4688 46.8571C34.4688 54.0771 40.3187 59.9271 47.5387 59.9271C54.7587 59.9271 60.6087 54.0771 60.6087 46.8571C60.6087 39.6371 54.7587 33.7871 47.5387 33.7871ZM52.8288 52.1171C52.5588 52.7171 52.1887 53.2371 51.6987 53.6771C51.2087 54.1171 50.6187 54.4671 49.9287 54.7271C49.2387 54.9871 48.4787 55.1571 47.6387 55.2271L47.3587 58.0271C47.3587 58.0971 47.3287 58.1571 47.2987 58.2071C47.2687 58.2571 47.2087 58.3071 47.1287 58.3371C47.0487 58.3671 46.9288 58.3971 46.7887 58.4271C46.6487 58.4471 46.4587 58.4571 46.2487 58.4571C45.9687 58.4571 45.7488 58.4471 45.5788 58.4171C45.4088 58.3871 45.2787 58.3571 45.1787 58.3071C45.0787 58.2571 45.0188 58.1971 44.9888 58.1171C44.9588 58.0371 44.9487 57.9471 44.9688 57.8571L45.2487 55.1971C44.8687 55.1471 44.5188 55.0771 44.1888 54.9971C43.8588 54.9171 43.5588 54.8271 43.2887 54.7171C43.0187 54.6171 42.7887 54.5171 42.5887 54.4071C42.3887 54.3071 42.2387 54.1971 42.1387 54.0971C42.0387 53.9971 41.9688 53.8471 41.9188 53.6471C41.8788 53.4471 41.8488 53.1571 41.8488 52.7771C41.8488 52.4771 41.8487 52.2371 41.8787 52.0471C41.8987 51.8571 41.9288 51.7071 41.9688 51.5971C42.0087 51.4971 42.0687 51.4171 42.1287 51.3771C42.1887 51.3371 42.2687 51.3171 42.3587 51.3171C42.4687 51.3171 42.6387 51.3871 42.8587 51.5171C43.0787 51.6471 43.3587 51.7971 43.6987 51.9471C44.0387 52.0971 44.4488 52.2471 44.9388 52.3771C45.4288 52.5071 45.9888 52.5771 46.6488 52.5771C47.6688 52.5771 48.4287 52.3871 48.9287 52.0071C49.4287 51.6271 49.6787 51.1271 49.6787 50.4971C49.6787 50.0771 49.5687 49.7371 49.3587 49.4571C49.1487 49.1871 48.8587 48.9471 48.4987 48.7471C48.1387 48.5371 47.7387 48.3571 47.2887 48.1971C46.8387 48.0371 46.3787 47.8671 45.9087 47.6771C45.4387 47.4971 44.9787 47.2771 44.5287 47.0371C44.0787 46.7971 43.6787 46.4871 43.3187 46.1371C42.9587 45.7771 42.6787 45.3471 42.4587 44.8371C42.2387 44.3271 42.1387 43.7071 42.1387 42.9871C42.1387 42.3271 42.2488 41.7371 42.4688 41.1971C42.6888 40.6571 42.9987 40.1871 43.4087 39.7871C43.8187 39.3871 44.3288 39.0571 44.9188 38.8071C45.5088 38.5571 46.1987 38.3871 46.9587 38.3071L47.2188 35.6771C47.2188 35.6071 47.2487 35.5471 47.2787 35.4971C47.3087 35.4471 47.3687 35.4071 47.4487 35.3671C47.5287 35.3271 47.6387 35.2971 47.7787 35.2771C47.9187 35.2571 48.0988 35.2471 48.3288 35.2471C48.5988 35.2471 48.8287 35.2571 48.9987 35.2871C49.1787 35.3171 49.3187 35.3471 49.4087 35.3971C49.4987 35.4471 49.5687 35.5071 49.5887 35.5871C49.6187 35.6671 49.6287 35.7571 49.6287 35.8471L49.3687 38.3271C49.6087 38.3571 49.8687 38.4071 50.1387 38.4671C50.4087 38.5271 50.6588 38.5971 50.8988 38.6871C51.1388 38.7671 51.3487 38.8571 51.5387 38.9471C51.7288 39.0371 51.8688 39.1171 51.9388 39.1971C52.0088 39.2671 52.0687 39.3471 52.1087 39.4171C52.1488 39.4871 52.1787 39.5871 52.1987 39.6971C52.2188 39.8071 52.2387 39.9371 52.2487 40.0871C52.2487 40.2371 52.2588 40.4171 52.2588 40.6171C52.2588 40.8871 52.2588 41.1071 52.2388 41.2871C52.2288 41.4571 52.1988 41.5971 52.1688 41.6871C52.1388 41.7771 52.0987 41.8371 52.0487 41.8671C52.0087 41.8971 51.9487 41.9171 51.8887 41.9171C51.7787 41.9171 51.6087 41.8571 51.3887 41.7471C51.1687 41.6371 50.8988 41.5071 50.5788 41.3771C50.2588 41.2471 49.8887 41.1271 49.4787 41.0071C49.0687 40.8971 48.6087 40.8371 48.1087 40.8371C47.6587 40.8371 47.2688 40.8771 46.9388 40.9671C46.6188 41.0571 46.3488 41.1771 46.1488 41.3371C45.9488 41.4971 45.7987 41.6871 45.6987 41.8971C45.5987 42.1171 45.5588 42.3571 45.5588 42.6171C45.5588 43.0271 45.6687 43.3771 45.8887 43.6571C46.1087 43.9371 46.3988 44.1771 46.7588 44.3771C47.1188 44.5771 47.5288 44.7571 47.9888 44.9271C48.4488 45.0971 48.9187 45.2671 49.3887 45.4471C49.8687 45.6271 50.3287 45.8471 50.7887 46.0871C51.2487 46.3271 51.6587 46.6271 52.0187 46.9771C52.3787 47.3271 52.6688 47.7571 52.8787 48.2571C53.0987 48.7571 53.2087 49.3671 53.2087 50.0671C53.2087 50.8171 53.0788 51.4971 52.8088 52.0971L52.8288 52.1171Z" fill="black"/>
</svg>
