<svg width="61" height="39" viewBox="0 0 61 39" fill="none" xmlns="http://www.w3.org/2000/svg">
<path d="M4.57596 11.5043L27.776 25.3243C29.946 24.3143 32.586 24.5143 34.626 26.0643C37.566 28.2943 38.136 32.4843 35.916 35.4143C33.686 38.3543 29.496 38.9243 26.566 36.7043C24.676 35.2743 23.766 33.0243 23.946 30.8243L4.18596 12.0243C3.89596 11.7543 4.24596 11.2943 4.58596 11.4943L4.57596 11.5043Z" fill="black"/>
<path d="M21.9377 7.64453C18.9577 8.76453 16.2577 10.4445 13.9077 12.6145C13.4277 13.0645 12.9677 13.5245 12.5277 13.9945L7.84766 11.2045C8.60766 10.3245 9.41766 9.47453 10.2777 8.67453C13.1377 6.03452 16.4277 3.99453 20.0477 2.62453C23.7977 1.21453 27.7577 0.584525 31.7977 0.734525C35.8377 0.894525 39.7377 1.83453 43.3677 3.54453C46.8777 5.19453 49.9977 7.47453 52.6377 10.3345C55.2777 13.1945 57.3177 16.4845 58.6877 20.1045C60.1077 23.8645 60.7477 27.8145 60.5877 31.8545L60.5277 33.4645C60.4677 34.9445 59.2277 36.0945 57.7477 36.0345C56.2677 35.9745 55.1177 34.7345 55.1777 33.2545L55.2377 31.6445C55.3677 28.3245 54.8477 25.0745 53.6777 21.9945C52.5577 19.0145 50.8777 16.3145 48.7077 13.9645C46.5377 11.6145 43.9777 9.73453 41.0877 8.38453C38.1077 6.98453 34.9077 6.20453 31.5877 6.07453C28.2677 5.94453 25.0177 6.46453 21.9377 7.63453V7.64453Z" fill="black"/>
<path d="M4.87771 15.334L8.87771 19.134C8.68771 19.494 8.50771 19.854 8.32771 20.224C6.92771 23.204 6.14771 26.404 6.01771 29.724L5.95771 31.334C5.89771 32.814 4.65771 33.964 3.17771 33.904C1.69771 33.844 0.547714 32.614 0.607714 31.134L0.667714 29.524C0.827714 25.484 1.76771 21.584 3.47771 17.954C3.89771 17.054 4.36771 16.184 4.86771 15.334H4.87771Z" fill="black"/>
<path d="M30.5977 34.125C32.1164 34.125 33.3477 32.8938 33.3477 31.375C33.3477 29.8562 32.1164 28.625 30.5977 28.625C29.0789 28.625 27.8477 29.8562 27.8477 31.375C27.8477 32.8938 29.0789 34.125 30.5977 34.125Z" fill="black"/>
</svg>
