<svg width="71" height="59" viewBox="0 0 71 59" fill="none" xmlns="http://www.w3.org/2000/svg">
<path d="M38.4998 33.23C39.0898 34.31 39.3998 35.28 39.4098 36.05C39.4198 36.79 39.1498 37.3 38.5898 37.61C37.4798 38.21 35.9698 37.17 34.9698 35.22C34.4298 34.22 34.1298 33.23 34.1198 32.44C34.1198 31.68 34.3698 31.15 34.9098 30.86C35.1598 30.72 35.3998 30.66 35.6498 30.66C36.5598 30.66 37.5898 31.6 38.4798 33.24L38.4998 33.23ZM20.9198 29.65C20.6698 29.65 20.4298 29.72 20.1798 29.85C19.6398 30.14 19.3898 30.67 19.3898 31.43C19.3898 32.23 19.6898 33.21 20.2398 34.21C21.0398 35.78 22.1898 36.78 23.1698 36.78C23.4098 36.78 23.6398 36.72 23.8598 36.6C25.4498 35.74 24.3198 33.25 23.7698 32.23C22.8798 30.59 21.8398 29.65 20.9398 29.65H20.9198ZM70.2398 7.65001C69.5398 10.36 67.8998 13.35 65.6198 16.07C64.1398 17.84 62.4998 19.35 60.8398 20.52L57.2198 35.86C57.0398 36.62 56.5398 37.28 55.8498 37.65L17.3898 58.63C16.0498 59.36 14.3698 58.87 13.6398 57.53L0.939816 34.24C0.209816 32.9 0.699816 31.22 2.03982 30.49L40.4998 9.52001C41.1898 9.14001 42.0098 9.08001 42.7498 9.34001L51.9698 12.61C52.0998 12.35 52.2298 12.08 52.3798 11.81C52.3898 11.78 52.4098 11.76 52.4298 11.73C52.6498 11.32 52.8898 10.92 53.1498 10.51C53.2298 10.39 53.3098 10.27 53.3898 10.14C53.5998 9.81001 53.8298 9.49001 54.0598 9.16001C54.1498 9.03001 54.2398 8.91001 54.3298 8.78001C54.6498 8.34001 54.9898 7.91001 55.3498 7.48001C57.9598 4.35001 61.0798 1.99001 63.8998 1.01001C66.1198 0.230006 67.9398 0.370006 69.1698 1.40001C70.5998 2.60001 70.9798 4.82001 70.2498 7.66001L70.2398 7.65001ZM57.9498 22.19C57.6998 22.3 57.4498 22.4 57.1998 22.49L54.3798 34.43C54.2898 34.8 54.0498 35.11 53.7198 35.29L17.3598 55.12C17.1398 55.24 16.8898 55.3 16.6398 55.28C16.1798 55.25 15.7798 54.99 15.5598 54.59L4.44982 34.22C4.27982 33.91 4.23982 33.55 4.33982 33.21C4.43982 32.87 4.66982 32.59 4.97982 32.42L41.3298 12.59C41.5498 12.47 41.7998 12.41 42.0498 12.43C42.1698 12.43 42.2898 12.46 42.4098 12.5L50.8298 15.48C50.8898 15.27 50.9498 15.06 51.0198 14.85L42.6198 11.87C42.0898 11.68 41.4998 11.73 41.0098 12L4.65982 31.84C4.18982 32.09 3.85982 32.51 3.70982 33.02C3.55982 33.53 3.61982 34.07 3.86982 34.53L14.9798 54.91C15.3098 55.51 15.9098 55.9 16.5898 55.94C16.9698 55.97 17.3398 55.88 17.6698 55.7L54.0298 35.87C54.5198 35.6 54.8798 35.13 55.0098 34.58L57.9298 22.18L57.9498 22.19ZM48.9698 22.5C49.0198 22.69 49.0798 22.87 49.1798 23.04C49.5298 23.68 50.1298 24.1 50.7898 24.24C51.0598 24.32 51.3498 24.38 51.6798 24.38C55.5498 24.38 55.5498 18.38 51.6798 18.38C49.2598 18.38 48.3498 20.74 48.9698 22.49V22.5ZM41.0298 31.73C39.2298 28.42 36.4698 27.18 33.7898 28.63C32.5398 29.31 31.6898 30.46 31.4198 31.88C31.1398 33.35 31.4698 35.03 32.3998 36.72C33.7098 39.09 35.5398 40.4 37.5398 40.4C38.2898 40.4 39.0198 40.21 39.7098 39.83C41.7498 38.72 43.3198 35.93 41.0198 31.72L41.0298 31.73ZM28.3898 22.53L27.9398 46.41L30.3298 45.11L30.7798 21.22L28.3898 22.52V22.53ZM26.2898 30.74C24.4898 27.43 21.7298 26.19 19.0498 27.64C16.8298 28.85 15.5298 31.82 17.6598 35.73C18.9698 38.1 20.7998 39.41 22.7998 39.41C23.5498 39.41 24.2798 39.22 24.9698 38.85C26.2098 38.18 27.0398 37.05 27.3098 35.68C27.5998 34.21 27.2498 32.5 26.2898 30.74ZM57.3398 17.1L52.0498 15.23C51.9798 15.44 51.9098 15.65 51.8498 15.86L57.1198 17.73C57.7598 17.96 58.1298 18.63 57.9698 19.29L57.4998 21.27C57.7498 21.16 58.0098 21.04 58.2598 20.91L58.5998 19.45C58.8298 18.46 58.2898 17.46 57.3298 17.12L57.3398 17.1ZM68.4998 2.21001C67.5798 1.44001 66.0698 1.37001 64.2498 2.01001C61.6098 2.94001 58.6598 5.18001 56.1598 8.17001C55.8198 8.58001 55.4998 9.00001 55.1898 9.41001C55.1098 9.52001 55.0298 9.64001 54.9498 9.75001C54.6998 10.1 54.4598 10.45 54.2398 10.8C54.1898 10.88 54.1398 10.95 54.0898 11.03C53.8198 11.46 53.5798 11.88 53.3498 12.3C53.3098 12.37 53.2698 12.45 53.2298 12.52C53.1498 12.68 53.0798 12.83 52.9998 12.98L59.5498 15.3C60.8798 15.77 61.6398 17.17 61.3198 18.54L61.2198 18.95C62.4698 17.96 63.6898 16.77 64.8198 15.42C66.9998 12.81 68.5598 9.97001 69.2298 7.41001C69.8498 5.02001 69.5798 3.13001 68.4998 2.22001V2.21001Z" fill="black"/>
</svg>
