<svg width="61" height="56" viewBox="0 0 61 56" fill="none" xmlns="http://www.w3.org/2000/svg">
<path d="M48.2596 30.8454C48.4396 33.4654 46.4596 35.7554 43.8396 35.9354C41.2196 36.1154 38.9296 34.1354 38.7496 31.5154C38.5696 28.8954 40.5496 26.6054 43.1696 26.4254C45.7896 26.2454 48.0796 28.2254 48.2596 30.8454Z" fill="black"/>
<path d="M55.3476 5.34458C52.7176 5.52458 50.7376 7.81458 50.9176 10.4346C51.0976 13.0546 53.3876 15.0446 56.0176 14.8546C58.6376 14.6746 60.6276 12.3846 60.4376 9.76458C60.2576 7.14458 57.9676 5.15458 55.3476 5.34458Z" fill="black"/>
<path d="M14.7607 35.2938C12.1407 35.4738 10.1507 37.7638 10.3407 40.3838C10.5207 43.0038 12.8107 44.9938 15.4307 44.8038C18.0507 44.6238 20.0407 42.3338 19.8507 39.7138C19.6707 37.0938 17.3807 35.1038 14.7607 35.2938Z" fill="black"/>
<path d="M24.3193 15.3153C21.6993 15.4953 19.7093 17.7853 19.8993 20.4053C20.0793 23.0253 22.3693 25.0053 24.9893 24.8253C27.6093 24.6453 29.5993 22.3553 29.4093 19.7353C29.2293 17.1153 26.9393 15.1253 24.3193 15.3153Z" fill="black"/>
<path d="M23.1886 27.2248L19.7386 34.4148C18.8286 33.6648 17.7386 33.1548 16.5586 32.9048L19.9986 25.7148C20.9086 26.4648 21.9886 26.9748 23.1786 27.2248H23.1886Z" fill="black"/>
<path d="M50.47 15.1855L45.75 24.2155C46.89 24.5855 47.9 25.2455 48.73 26.0855L53.45 17.0555C52.31 16.6855 51.3 16.0255 50.47 15.1855Z" fill="black"/>
<path d="M38.1805 26.1841L31.6905 21.9941C31.3705 23.1541 30.7905 24.2141 29.9805 25.0741L36.4705 29.2641C36.7905 28.1041 37.3705 27.0541 38.1805 26.1841Z" fill="black"/>
<path d="M60.6094 52.1646C60.6094 50.5046 59.2694 49.1646 57.6194 49.1646H6.58938V3.72461C6.58938 2.06461 5.24937 0.724609 3.59938 0.724609C1.94938 0.724609 0.609375 2.06461 0.609375 3.72461V52.1646C0.609375 53.8246 1.94938 55.1646 3.59938 55.1646H57.6194C59.2694 55.1646 60.6094 53.8246 60.6094 52.1646Z" fill="black"/>
</svg>
