<svg width="41" height="41" viewBox="0 0 41 41" fill="none" xmlns="http://www.w3.org/2000/svg">
<g clip-path="url(#clip0_1_32688)">
<path d="M20.25 40.5C31.4338 40.5 40.5 31.4338 40.5 20.25C40.5 9.06623 31.4338 0 20.25 0C9.06623 0 0 9.06623 0 20.25C0 31.4338 9.06623 40.5 20.25 40.5Z" fill="#2962FF"/>
<path d="M5.59002 13.8789H17.45L17.51 28.8189L11.51 28.7789V19.8089H5.58002V13.8789H5.59002Z" fill="white"/>
<path d="M21.94 19.6597C23.5913 19.6597 24.93 18.321 24.93 16.6697C24.93 15.0184 23.5913 13.6797 21.94 13.6797C20.2887 13.6797 18.95 15.0184 18.95 16.6697C18.95 18.321 20.2887 19.6597 21.94 19.6597Z" fill="white"/>
<path d="M28 13.8906L34.92 13.9006L28.66 28.7206L21.82 28.7006L27.96 13.9106L28 13.8906Z" fill="white"/>
</g>
<defs>
<clipPath id="clip0_1_32688">
<rect width="40.5" height="40.5" fill="white"/>
</clipPath>
</defs>
</svg>
