<svg width="41" height="41" viewBox="0 0 41 41" fill="none" xmlns="http://www.w3.org/2000/svg">
<g clip-path="url(#clip0_1_32695)">
<path fill-rule="evenodd" clip-rule="evenodd" d="M40.5 20.25C40.5 31.43 31.43 40.5 20.25 40.5C9.07 40.5 0 31.44 0 20.25C0 9.06 9.07 0 20.25 0C31.43 0 40.5 9.07 40.5 20.25Z" fill="#00BFFF"/>
<path d="M34.62 11.2892C33.82 11.6492 32.95 11.9292 32.01 12.0892C31.77 12.1292 31.54 12.1592 31.31 12.1792C31.31 12.1692 31.31 12.1592 31.31 12.1492C32.48 11.4192 33.38 10.2992 33.81 8.95922C33.29 9.30922 32.71 9.60922 32.07 9.83922C31.65 9.99922 31.2 10.1292 30.74 10.2292C30.51 10.2792 30.28 10.3192 30.05 10.3592C28.97 9.18922 27.43 8.44922 25.71 8.44922C24.93 8.44922 24.19 8.59922 23.5 8.87922C23.39 8.91922 23.29 8.96922 23.18 9.01922C23.02 9.09922 22.86 9.17922 22.7 9.27922C21.4 10.0492 20.42 11.3092 20.02 12.8092C19.89 13.2992 19.81 13.8192 19.81 14.3492C19.81 14.8792 19.89 15.4492 20.04 15.9592C19.57 15.9292 19.1 15.8792 18.62 15.8092C18.38 15.7792 18.15 15.7292 17.91 15.6892C17.12 15.5392 16.33 15.3292 15.54 15.0692C15.43 15.0292 15.32 14.9992 15.2 14.9592C15.08 14.9192 14.96 14.8692 14.84 14.8192C12.9 14.0892 11.18 13.0692 9.74999 11.8592C9.51999 11.6592 9.29999 11.4592 9.07999 11.2592C8.57999 10.7892 8.12999 10.2992 7.70999 9.78922C7.35999 10.4492 7.12999 11.1892 7.04999 11.9792C7.02999 12.1692 7.01999 12.3592 7.01999 12.5592C7.01999 13.2792 7.14999 13.9692 7.37999 14.5992C7.83999 15.8492 8.70999 16.8992 9.82999 17.5792C9.82999 17.5792 9.81999 17.5992 9.80999 17.6092C8.75999 17.6092 7.76999 17.3292 6.91999 16.8492C6.91999 16.8592 6.91999 16.8792 6.91999 16.8892C6.91999 17.1492 6.93999 17.3992 6.96999 17.6592C7.14999 19.0292 7.78998 20.2492 8.73998 21.1492C9.55998 21.9392 10.62 22.4892 11.79 22.6892C11.22 22.8692 10.62 22.9692 9.98998 22.9692C9.66999 22.9692 9.35999 22.9392 9.04999 22.8892C9.82999 25.1892 12 26.8592 14.56 26.8892C12.83 28.4192 9.94999 29.4292 6.68999 29.4292C6.40999 29.4292 6.12999 29.4292 5.85999 29.4092C8.47999 31.0792 11.61 32.0592 14.97 32.0592C24.2 32.0592 31.68 24.7392 31.68 15.7092C31.68 15.2192 31.66 14.7392 31.61 14.2592C32.94 13.4792 33.97 12.4392 34.59 11.2992L34.62 11.2892Z" fill="white"/>
</g>
<defs>
<clipPath id="clip0_1_32695">
<rect width="40.5" height="40.5" fill="white"/>
</clipPath>
</defs>
</svg>
