<svg width="906" height="260" viewBox="0 0 906 260" fill="none" xmlns="http://www.w3.org/2000/svg">
<g clip-path="url(#clip0_109_2275)">
<path d="M327.94 53.5941C328.185 52.9952 328.54 52.4235 328.977 51.8926C329.414 51.3617 330.001 50.9398 330.724 50.6131C331.447 50.3 332.253 50.1367 333.153 50.1367C334.109 50.1367 334.941 50.3 335.678 50.6267C336.415 50.9534 337.002 51.389 337.439 51.9198C337.875 52.4643 338.203 53.036 338.421 53.635C338.64 54.2339 338.776 54.8465 338.803 55.4726H327.476C327.53 54.8192 327.681 54.2067 327.94 53.5941ZM325.961 64.688C327.94 66.6346 330.451 67.6147 333.481 67.6147C335.105 67.6147 336.62 67.3696 338.012 66.866C339.418 66.3759 340.605 65.6545 341.601 64.7153L339.636 61.8567C338.94 62.5509 338.08 63.0818 337.029 63.4766C335.978 63.8577 334.955 64.0619 333.931 64.0619C332.102 64.0619 330.615 63.531 329.482 62.4829C328.349 61.4347 327.694 60.1144 327.517 58.5354H343.007V57.5008C343.007 54.3156 342.106 51.702 340.305 49.6602C338.503 47.6184 336.115 46.5975 333.153 46.5975C331.229 46.5975 329.482 47.0603 327.913 47.9995C326.343 48.9388 325.142 50.2047 324.282 51.8109C323.422 53.4036 322.999 55.1731 322.999 57.0789C322.999 60.2096 323.982 62.7551 325.961 64.7017M304.998 67.1246V53.1585C305.571 52.3963 306.308 51.7701 307.222 51.2392C308.137 50.722 309.119 50.4633 310.157 50.4633C311.481 50.4633 312.491 50.7764 313.187 51.389C313.883 52.0015 314.237 53.0497 314.237 54.5198V67.1382H318.605V52.968C318.605 50.8853 318.059 49.3063 316.981 48.231C315.902 47.1556 314.278 46.6111 312.136 46.6111C310.662 46.6111 309.297 46.9242 308.041 47.564C306.786 48.2037 305.776 48.966 305.012 49.8508V39.4919H300.644V67.1518H305.012L304.998 67.1246ZM283.407 43.7117V67.0974H288.279V43.7117H296.659V39.4375H275V43.7117H283.407Z" fill="#FFCC06"/>
<path d="M478.817 66.7979C480.318 67.3423 481.915 67.601 483.634 67.601C486.255 67.601 488.315 67.0156 489.789 65.845C491.263 64.6744 492 63.177 492 61.353C492 60.4001 491.823 59.5698 491.482 58.8347C491.141 58.0997 490.677 57.528 490.117 57.0924C489.544 56.6704 488.902 56.2893 488.165 55.9626C487.442 55.6359 486.691 55.3773 485.941 55.2003C485.19 55.0233 484.453 54.8328 483.73 54.6558C483.006 54.4789 482.351 54.3155 481.765 54.1794C481.191 54.0433 480.727 53.8255 480.372 53.526C480.018 53.2265 479.854 52.8726 479.854 52.4506C479.854 51.7292 480.195 51.1439 480.864 50.6947C481.546 50.2319 482.447 50.0005 483.58 50.0005C484.794 50.0005 485.941 50.2183 487.005 50.6675C488.07 51.1167 488.916 51.702 489.53 52.4098L491.359 49.3471C489.216 47.4822 486.609 46.543 483.539 46.543C481.096 46.543 479.158 47.1283 477.752 48.2989C476.346 49.4696 475.637 50.8989 475.637 52.614C475.637 53.6621 475.855 54.5605 476.305 55.3092C476.756 56.0579 477.329 56.6432 478.039 57.0516C478.748 57.4599 479.54 57.773 480.427 58.0044C481.314 58.2358 482.174 58.4672 483.02 58.685C483.866 58.9028 484.644 59.107 485.368 59.2976C486.077 59.4881 486.664 59.7604 487.101 60.1007C487.551 60.4546 487.77 60.8902 487.77 61.4211C487.77 62.2242 487.428 62.8912 486.746 63.3812C486.064 63.8849 485.081 64.1299 483.812 64.1299C482.542 64.1299 481.314 63.844 480.045 63.2859C478.776 62.7278 477.766 62.0608 477.015 61.2849L475.009 64.4566C476.032 65.4503 477.302 66.2261 478.789 66.7706M466.697 67.0701V53.4307C467.134 52.7229 467.871 52.1103 468.908 51.5795C469.946 51.0486 470.928 50.7763 471.856 50.7763C472.416 50.7763 472.866 50.8172 473.235 50.8989V46.5838C471.979 46.5838 470.778 46.8969 469.618 47.5367C468.472 48.1764 467.489 48.9932 466.697 49.9868V47.0466H462.33V67.0701H466.697ZM442.896 53.5532C443.141 52.9543 443.496 52.3826 443.933 51.8517C444.37 51.3208 444.956 50.8989 445.68 50.5722C446.403 50.2591 447.208 50.0957 448.109 50.0957C449.064 50.0957 449.897 50.2591 450.634 50.5858C451.371 50.9125 451.958 51.3481 452.394 51.8789C452.831 52.4234 453.159 52.9951 453.377 53.5941C453.595 54.193 453.732 54.8055 453.759 55.4317H442.432C442.486 54.7783 442.636 54.1658 442.896 53.5532ZM440.917 64.6471C442.896 66.5937 445.393 67.5737 448.437 67.5737C450.061 67.5737 451.576 67.3287 452.968 66.8251C454.373 66.335 455.561 65.6136 456.557 64.6744L454.592 61.8158C453.896 62.51 453.036 63.0409 451.985 63.4357C450.934 63.8168 449.911 64.021 448.887 64.021C447.058 64.021 445.571 63.4901 444.438 62.442C443.305 61.3938 442.65 60.0735 442.472 58.4944H457.963V57.4599C457.963 54.2747 457.062 51.6611 455.26 49.6193C453.459 47.5775 451.071 46.5566 448.109 46.5566C446.185 46.5566 444.438 47.0194 442.868 47.9586C441.299 48.8979 440.098 50.1638 439.238 51.77C438.378 53.3627 437.955 55.1322 437.955 57.0379C437.955 60.1687 438.938 62.7142 440.917 64.6607" fill="#FFCC06"/>
<path d="M372.487 1.02344L360.845 34.0465H373.428C379.106 34.0465 383.446 35.2308 386.435 37.5857C389.082 39.6275 390.406 42.2819 390.406 45.5624C390.406 49.1152 389.151 52.4229 386.626 55.4721C383.978 58.6437 380.771 60.4677 377.018 60.9441C377.55 59.5965 377.823 58.2353 377.823 56.8877C377.823 53.7705 376.595 51.1025 374.138 48.8974C371.681 46.6786 368.693 45.576 365.199 45.576C361.705 45.576 358.825 46.6786 356.382 48.8974C353.939 51.1162 352.711 53.7841 352.711 56.8877C352.711 59.8143 353.803 62.3462 355.973 64.4833C358.143 66.6204 360.872 67.9136 364.161 68.3491C367.027 68.7847 369.88 69.0161 372.719 69.0161C385.957 69.0161 396.275 65.232 403.658 57.65C408.162 53.0627 410.4 48.1351 410.373 42.8808C410.305 38.0077 408.244 33.8832 404.177 30.521C400.396 27.4038 394.828 25.852 387.486 25.852H380.812L384.974 14.4859H409.281L415.013 1.02344H372.487Z" fill="#FFCC06"/>
<path d="M452.135 1.02344L410.646 67.3963H421.714L463.722 1.02344H452.135Z" fill="#FFCC06"/>
<path d="M427.541 20.9238C433.328 20.9238 438.036 16.2412 438.036 10.456C438.036 4.67086 433.341 -0.0117188 427.541 -0.0117188C421.741 -0.0117188 417.046 4.67086 417.046 10.456C417.046 16.2412 421.741 20.9238 427.541 20.9238Z" fill="#FFCC06"/>
</g>
<g clip-path="url(#clip1_109_2275)">
<path d="M298.472 127.242H350.853L357.196 108.816H288.166H265.355L276.065 118.586L258.077 170.93C255.676 177.928 261.402 185.054 269.445 185.054H331.006L337.349 166.629H284.968L287.104 160.412L280.803 154.666H297.112H335.627L340.929 139.204H294.382L295.933 134.7L287.784 127.263H298.483V127.242H298.472Z" fill="white"/>
<path d="M540.867 127.242H593.247L599.59 108.816H530.561H507.749L518.459 118.586L500.471 170.93C498.07 177.928 503.797 185.054 511.84 185.054H573.4L579.743 166.629H527.363L529.498 160.412L523.198 154.666H539.507H578.022L583.324 139.204H536.776L538.328 134.7L530.178 127.263H540.878V127.242H540.867Z" fill="white"/>
<path d="M847.287 127.242H899.667L906.01 108.816H836.981H814.169L824.879 118.586L806.891 170.93C804.49 177.928 810.217 185.054 818.26 185.054H879.82L886.163 166.629H833.783L835.918 160.412L829.618 154.666H845.927H884.442L889.744 139.204H843.196L844.748 134.7L836.598 127.263H847.297V127.242H847.287Z" fill="white"/>
<path d="M256.165 39.4375H198.939L132.343 104.718L109.659 75.6249H54.7816H41.5537L64.7265 96.7574L94.4972 133.448L7.38428 213.537H64.1421L116.862 161.278L181.291 253.438H238.591L155.707 131.597L256.165 39.4375Z" fill="#FFC806"/>
<path d="M683.123 108.828L667.537 154.143L645.905 108.828H620.501H605.658L616.963 119.122L594.3 185.055H619.714L635.301 139.74L658.219 185.055H682.327L708.527 108.828H683.123Z" fill="white"/>
<path d="M476.268 108.828H460.894L472.603 119.496L450.067 185.055H475.482L501.683 108.828H476.268Z" fill="white"/>
<path d="M806.626 111.792C804.894 109.813 802.302 108.828 798.838 108.828H740.89C740.656 108.828 740.433 108.85 740.199 108.85L740.231 108.828H714.137L722.923 116.842C720.512 119.571 718.695 122.674 717.505 126.194L703.321 167.7C701.589 172.568 702.205 176.688 705.18 180.037C708.144 183.386 712.617 185.066 718.578 185.066H772.637C776.09 185.066 779.373 184.081 782.486 182.102C785.589 180.122 787.629 177.725 788.606 174.901L794.407 157.856H768.993L766.252 165.795C766.092 166.362 765.667 166.64 764.977 166.64H730.754C729.628 166.64 729.203 166.18 729.468 165.26L739.785 135.225L731.073 127.275H744.056C744.131 127.275 744.194 127.254 744.279 127.254H778.502C779.193 127.254 779.416 127.532 779.171 128.099L776.558 136.038H801.972L807.773 118.993C808.74 116.168 808.358 113.772 806.626 111.792Z" fill="white"/>
<path d="M262.986 119.517C262.423 116.34 260.733 113.761 257.928 111.792C255.113 109.813 251.5 108.828 247.102 108.828H168.467L179.772 119.132L157.12 185.055H182.535L189.961 163.248H230.931C236.891 163.248 242.087 161.558 246.496 158.166C250.905 154.774 253.944 150.687 255.602 145.882L262.359 126.194C263.166 123.937 263.379 121.711 262.996 119.528L262.986 119.517ZM236.073 128.623L230.676 144.288C230.315 145.208 229.624 145.668 228.583 145.668H196.039L199.736 134.936L191.332 127.275H202.371V127.254H234.926C235.616 127.254 236.009 127.532 236.116 128.099C236.158 128.313 236.137 128.484 236.084 128.623H236.073Z" fill="white"/>
<path d="M455.327 113.911C452.394 110.519 447.942 108.828 441.982 108.828H362.041L373.547 119.325L350.959 185.055H376.374L384.927 160.07H397.241L410.469 185.055H439.644L423.952 160.07H424.472C431.814 160.07 437.764 158.358 442.301 154.934C446.837 151.51 449.94 147.434 451.608 142.704L457.25 126.184C458.907 121.379 458.27 117.292 455.337 113.9L455.327 113.911ZM430.964 128.623L426.693 141.121C426.416 142.041 425.726 142.501 424.6 142.501H391.025L393.596 135L385.139 127.286H396.242V127.264H429.827C430.953 127.264 431.336 127.724 430.975 128.645L430.964 128.623Z" fill="white"/>
<path d="M40.9693 119.589H93.3496L99.6927 101.164H30.6526H7.83043L18.5403 110.933L0.552427 163.278C-1.84878 170.275 3.878 177.402 11.921 177.402H73.4812L79.8242 158.976H27.4545L29.5901 152.759L23.2895 147.014H39.5987H78.1136L83.4154 131.552H36.8681L38.4193 127.047L30.2701 119.611H40.9693V119.589Z" fill="white"/>
<rect x="776.305" y="216.438" width="100" height="2" fill="white"/>
<rect x="226.078" y="217.438" width="100" height="2" fill="white"/>
</g>
<path d="M359.666 209.181V228H357.209V219.468H347.624V228H345.167V209.181H347.624V217.443H357.209V209.181H359.666ZM366.319 209.181V228H363.862V209.181H366.319ZM382.089 209.181V211.179H376.959V228H374.502V211.179H369.345V209.181H382.089ZM403.895 209.181V211.179H398.765V228H396.308V211.179H391.151V209.181H403.895ZM421.418 209.181V228H418.961V219.468H409.376V228H406.919V209.181H409.376V217.443H418.961V209.181H421.418ZM428.071 211.179V217.47H434.929V219.495H428.071V225.975H435.739V228H425.614V209.154H435.739V211.179H428.071ZM458.238 209.181V211.179H453.108V228H450.651V211.179H445.494V209.181H458.238ZM472.386 223.815H464.178L462.666 228H460.074L466.878 209.289H469.713L476.49 228H473.898L472.386 223.815ZM471.684 221.817L468.282 212.313L464.88 221.817H471.684ZM489.364 228L484.882 220.305H481.912V228H479.455V209.181H485.53C486.952 209.181 488.149 209.424 489.121 209.91C490.111 210.396 490.849 211.053 491.335 211.881C491.821 212.709 492.064 213.654 492.064 214.716C492.064 216.012 491.686 217.155 490.93 218.145C490.192 219.135 489.076 219.792 487.582 220.116L492.307 228H489.364ZM481.912 218.334H485.53C486.862 218.334 487.861 218.01 488.527 217.362C489.193 216.696 489.526 215.814 489.526 214.716C489.526 213.6 489.193 212.736 488.527 212.124C487.879 211.512 486.88 211.206 485.53 211.206H481.912V218.334ZM510.138 214.635C509.616 213.537 508.86 212.691 507.87 212.097C506.88 211.485 505.728 211.179 504.414 211.179C503.1 211.179 501.912 211.485 500.85 212.097C499.806 212.691 498.978 213.555 498.366 214.689C497.772 215.805 497.475 217.101 497.475 218.577C497.475 220.053 497.772 221.349 498.366 222.465C498.978 223.581 499.806 224.445 500.85 225.057C501.912 225.651 503.1 225.948 504.414 225.948C506.25 225.948 507.762 225.399 508.95 224.301C510.138 223.203 510.831 221.718 511.029 219.846H503.523V217.848H513.648V219.738C513.504 221.286 513.018 222.708 512.19 224.004C511.362 225.282 510.273 226.299 508.923 227.055C507.573 227.793 506.07 228.162 504.414 228.162C502.668 228.162 501.075 227.757 499.635 226.947C498.195 226.119 497.052 224.976 496.206 223.518C495.378 222.06 494.964 220.413 494.964 218.577C494.964 216.741 495.378 215.094 496.206 213.636C497.052 212.16 498.195 211.017 499.635 210.207C501.075 209.379 502.668 208.965 504.414 208.965C506.412 208.965 508.176 209.46 509.706 210.45C511.254 211.44 512.379 212.835 513.081 214.635H510.138ZM519.354 211.179V217.47H526.212V219.495H519.354V225.975H527.022V228H516.897V209.154H527.022V211.179H519.354ZM542.323 209.181V211.179H537.193V228H534.736V211.179H529.579V209.181H542.323Z" fill="white"/>
<path d="M564.722 215.04C564.38 214.41 563.885 213.933 563.237 213.609C562.607 213.267 561.86 213.096 560.996 213.096C559.502 213.096 558.305 213.591 557.405 214.581C556.505 215.553 556.055 216.858 556.055 218.496C556.055 220.242 556.523 221.61 557.459 222.6C558.413 223.572 559.718 224.058 561.374 224.058C562.508 224.058 563.462 223.77 564.236 223.194C565.028 222.618 565.604 221.79 565.964 220.71H560.105V217.308H570.149V221.601C569.807 222.753 569.222 223.824 568.394 224.814C567.584 225.804 566.549 226.605 565.289 227.217C564.029 227.829 562.607 228.135 561.023 228.135C559.151 228.135 557.477 227.73 556.001 226.92C554.543 226.092 553.4 224.949 552.572 223.491C551.762 222.033 551.357 220.368 551.357 218.496C551.357 216.624 551.762 214.959 552.572 213.501C553.4 212.025 554.543 210.882 556.001 210.072C557.459 209.244 559.124 208.83 560.996 208.83C563.264 208.83 565.172 209.379 566.72 210.477C568.286 211.575 569.321 213.096 569.825 215.04H564.722ZM577.324 212.745V216.579H583.507V220.143H577.324V224.301H584.317V228H572.707V209.046H584.317V212.745H577.324ZM600.949 209.046V212.745H595.927V228H591.31V212.745H586.288V209.046H600.949ZM618.654 228L614.712 220.845H613.605V228H608.988V209.046H616.737C618.231 209.046 619.5 209.307 620.544 209.829C621.606 210.351 622.398 211.071 622.92 211.989C623.442 212.889 623.703 213.897 623.703 215.013C623.703 216.273 623.343 217.398 622.623 218.388C621.921 219.378 620.877 220.08 619.491 220.494L623.865 228H618.654ZM613.605 217.578H616.467C617.313 217.578 617.943 217.371 618.357 216.957C618.789 216.543 619.005 215.958 619.005 215.202C619.005 214.482 618.789 213.915 618.357 213.501C617.943 213.087 617.313 212.88 616.467 212.88H613.605V217.578ZM631.218 212.745V216.579H637.401V220.143H631.218V224.301H638.211V228H626.601V209.046H638.211V212.745H631.218ZM667.291 209.046L662.35 228H656.761L653.737 215.526L650.605 228H645.016L640.21 209.046H645.151L647.878 222.843L651.253 209.046H656.329L659.569 222.843L662.323 209.046H667.291ZM681.405 224.652H674.331L673.197 228H668.364L675.222 209.046H680.568L687.426 228H682.539L681.405 224.652ZM680.217 221.088L677.868 214.149L675.546 221.088H680.217ZM699.179 228L695.237 220.845H694.13V228H689.513V209.046H697.262C698.756 209.046 700.025 209.307 701.069 209.829C702.131 210.351 702.923 211.071 703.445 211.989C703.967 212.889 704.228 213.897 704.228 215.013C704.228 216.273 703.868 217.398 703.148 218.388C702.446 219.378 701.402 220.08 700.016 220.494L704.39 228H699.179ZM694.13 217.578H696.992C697.838 217.578 698.468 217.371 698.882 216.957C699.314 216.543 699.53 215.958 699.53 215.202C699.53 214.482 699.314 213.915 698.882 213.501C698.468 213.087 697.838 212.88 696.992 212.88H694.13V217.578ZM714.228 209.046C716.226 209.046 717.972 209.442 719.466 210.234C720.96 211.026 722.112 212.142 722.922 213.582C723.75 215.004 724.164 216.651 724.164 218.523C724.164 220.377 723.75 222.024 722.922 223.464C722.112 224.904 720.951 226.02 719.439 226.812C717.945 227.604 716.208 228 714.228 228H707.127V209.046H714.228ZM713.931 224.004C715.677 224.004 717.036 223.527 718.008 222.573C718.98 221.619 719.466 220.269 719.466 218.523C719.466 216.777 718.98 215.418 718.008 214.446C717.036 213.474 715.677 212.988 713.931 212.988H711.744V224.004H713.931ZM731.361 212.745V216.579H737.544V220.143H731.361V224.301H738.354V228H726.744V209.046H738.354V212.745H731.361ZM748.452 209.046C750.45 209.046 752.196 209.442 753.69 210.234C755.184 211.026 756.336 212.142 757.146 213.582C757.974 215.004 758.388 216.651 758.388 218.523C758.388 220.377 757.974 222.024 757.146 223.464C756.336 224.904 755.175 226.02 753.663 226.812C752.169 227.604 750.432 228 748.452 228H741.351V209.046H748.452ZM748.155 224.004C749.901 224.004 751.26 223.527 752.232 222.573C753.204 221.619 753.69 220.269 753.69 218.523C753.69 216.777 753.204 215.418 752.232 214.446C751.26 213.474 749.901 212.988 748.155 212.988H745.968V224.004H748.155Z" fill="#FFCC06"/>
<defs>
<clipPath id="clip0_109_2275">
<rect width="217" height="69" fill="white" transform="translate(275)"/>
</clipPath>
<clipPath id="clip1_109_2275">
<rect width="906" height="214" fill="white" transform="translate(0 39.4375)"/>
</clipPath>
</defs>
</svg>
