<svg width="1915" height="389" viewBox="0 0 1915 389" fill="none" xmlns="http://www.w3.org/2000/svg">
<path d="M2004.84 0.046875L1845.34 129.767C1845.34 129.767 1663.15 159.557 1632.44 157.827C1601.73 156.067 1564.93 178.867 1564.93 178.867L1398.43 255.997H1349.35L1230.18 231.457H1189.88L1097.45 266.517H1051.89L1031.78 275.267L994.63 250.737L930.95 224.447L916.52 208.667L864.91 203.407L844.4 182.367L809.28 189.387L728.96 229.697L686.9 243.717L585.23 264.757L494.08 319.117C494.08 319.117 349.59 384.117 302.43 391.067C255.27 398.007 127.76 398.007 127.76 398.007L0.810059 425.567V1036.53H2004.84V0.046875Z" fill="url(#paint0_linear_101_2273)"/>
<g opacity="0.08">
<path d="M756.56 272.657L692.97 298.957C692.97 298.957 670.62 347.607 646.96 367.327C623.3 387.047 532.6 425.177 532.6 425.177L462.93 500.127L347.25 657.507L245.88 1003.12H434.56L625.95 502.747L731.11 415.967C731.11 415.967 778.4 356.797 804.06 347.597C829.69 338.397 855.03 330.507 873.91 319.987C892.79 309.467 903.25 291.057 935.48 295.007C935.48 295.007 949.52 280.547 985.56 284.487C1021.6 288.437 1031.72 275.287 1031.72 275.287L994.57 250.757L930.89 224.467L916.46 208.687L864.85 203.427L844.34 182.387L814.4 229.277L756.59 272.667H756.54L756.56 272.657Z" fill="#201352"/>
</g>
<defs>
<linearGradient id="paint0_linear_101_2273" x1="1002.82" y1="726.807" x2="1002.82" y2="106.217" gradientUnits="userSpaceOnUse">
<stop stop-color="#ABCDAC"/>
<stop offset="0.53" stop-color="#FCD97A"/>
<stop offset="1" stop-color="#FFCC06"/>
</linearGradient>
</defs>
</svg>
