<svg width="1445" height="482" viewBox="0 0 1445 482" fill="none" xmlns="http://www.w3.org/2000/svg">
<path d="M179.56 14.4263H221.62L325.04 0.40625L370.6 14.4263L541.96 144.146L628.72 180.956L880.02 331.716L1182.09 408.526L1444.99 478.976V634.986H-360.25V233.576C-360.25 233.576 -232.3 161.706 -190.23 154.686C-148.17 147.666 -21.97 119.636 -21.97 119.636L139.27 51.2662L179.57 14.4462V14.4263H179.56Z" fill="url(#paint0_linear_101_2274)"/>
<g opacity="0.32">
<path d="M1182.1 408.546L880.03 331.736L628.73 180.976L541.97 144.166L455.58 78.7656L524.51 172.226L711.48 287.926C711.48 287.926 814.41 375.016 817.72 379.676C821.03 384.336 1222.37 419.356 1222.4 419.356L1182.07 408.546H1182.09H1182.1Z" fill="#201352"/>
</g>
<g opacity="0.08">
<path d="M254.07 435.607L198.86 457.957L-11.46 586.817V770.027H849.43L898.49 463.227L621 430.357L407.87 380.397L338.2 312.027L294.82 354.547L254.07 435.617V435.607Z" fill="#201352"/>
</g>
<defs>
<linearGradient id="paint0_linear_101_2274" x1="542.38" y1="818.226" x2="542.38" y2="163.446" gradientUnits="userSpaceOnUse">
<stop stop-color="#ABCDAC"/>
<stop offset="0.66" stop-color="#F9E6AA"/>
<stop offset="1" stop-color="#FFCC06"/>
</linearGradient>
</defs>
</svg>
