<svg width="41" height="41" viewBox="0 0 41 41" fill="none" xmlns="http://www.w3.org/2000/svg">
<g clip-path="url(#clip0_1_32655)">
<path d="M20.25 40.5C31.4338 40.5 40.5 31.4338 40.5 20.25C40.5 9.06623 31.4338 0 20.25 0C9.06623 0 0 9.06623 0 20.25C0 31.4338 9.06623 40.5 20.25 40.5Z" fill="#FF0000"/>
<path fill-rule="evenodd" clip-rule="evenodd" d="M29.86 30.4209L26.94 30.6209C22.47 30.9309 17.99 30.9309 13.52 30.6209L10.65 30.4209C7.97001 30.2309 5.89001 28.0009 5.89001 25.3109V15.1909C5.89001 12.5009 7.97001 10.2709 10.65 10.0809L13.52 9.88094C17.99 9.57094 22.47 9.57094 26.94 9.88094L29.86 10.0809C32.54 10.2709 34.62 12.5009 34.62 15.1909V25.3009C34.62 27.9909 32.54 30.2209 29.86 30.4109V30.4209Z" fill="white"/>
<path fill-rule="evenodd" clip-rule="evenodd" d="M17.64 16.1406V24.4206L24.81 20.2806L17.64 16.1406Z" fill="#FF0000"/>
</g>
<defs>
<clipPath id="clip0_1_32655">
<rect width="40.5" height="40.5" fill="white"/>
</clipPath>
</defs>
</svg>
